<svg width="54" height="54" viewBox="0 0 54 54" fill="none" xmlns="http://www.w3.org/2000/svg">
<path d="M3 0L7.27756 48.5855L26.4715 54L45.719 48.5657L50 0H3ZM41.1135 11.1312L39.6896 27.3166L39.6939 27.4039L39.6879 27.6049V27.6032L38.6763 38.9203L38.5648 39.9257L26.5 43.3018L26.4906 43.3104L14.4467 39.9154L13.6312 30.5588H19.5372L19.9562 35.3165L26.5017 37.1113L26.5 37.1148V37.1139L33.0697 35.2937L33.764 27.546H20.0303L19.9124 26.2362L19.644 23.1679L19.5032 21.5203H34.286L34.8237 15.4946H12.3081L12.1903 14.1857L11.9223 11.1165L11.781 9.46893H41.2543L41.1135 11.1312Z" fill="#1572B6"/>
</svg>
