<svg width="54" height="54" viewBox="0 0 54 54" fill="none" xmlns="http://www.w3.org/2000/svg">
<g clip-path="url(#clip0_5_77)">
<path d="M52.6234 24.6282L29.3714 1.37702C28.0332 0.0379839 25.8614 0.0379839 24.5211 1.37702L19.6931 6.2058L25.8179 12.3306C27.2417 11.8501 28.8736 12.1724 30.008 13.3068C31.1483 14.4484 31.4681 16.0941 30.9758 17.5226L36.8786 23.4259C38.3067 22.9336 39.9549 23.2517 41.0949 24.3941C42.6895 25.9875 42.6895 28.5707 41.0949 30.1649C40.7159 30.5441 40.2659 30.8448 39.7707 31.05C39.2755 31.2552 38.7447 31.3609 38.2086 31.3609C37.6725 31.3609 37.1417 31.2552 36.6465 31.05C36.1513 30.8448 35.7013 30.5441 35.3223 30.1649C34.753 29.5952 34.3649 28.8698 34.2068 28.08C34.0488 27.2902 34.128 26.4713 34.4343 25.7264L28.9297 20.2217L28.9288 34.7094C29.3282 34.906 29.6928 35.1665 30.0084 35.4805C31.6022 37.074 31.6022 39.6563 30.0084 41.2531C28.4141 42.8465 25.8301 42.8465 24.2376 41.2531C22.6437 39.6567 22.6437 37.0744 24.2376 35.4805C24.6194 35.0981 25.0736 34.7955 25.5736 34.5904V19.9686C25.0732 19.7641 24.6189 19.4613 24.2376 19.078C23.0302 17.8715 22.7395 16.0996 23.3588 14.6163L17.3205 8.578L1.37701 24.5207C0.73378 25.1641 0.372437 26.0366 0.372437 26.9464C0.372437 27.8562 0.73378 28.7288 1.37701 29.3722L24.6295 52.6234C25.9685 53.9625 28.1395 53.9625 29.4806 52.6234L52.6239 29.4802C53.2669 28.8366 53.6282 27.964 53.6281 27.0541C53.628 26.1443 53.2666 25.2717 52.6234 24.6282Z" fill="#F34F29"/>
</g>
<defs>
<clipPath id="clip0_5_77">
<rect width="54" height="54" fill="white"/>
</clipPath>
</defs>
</svg>
