<svg width="54" height="54" viewBox="0 0 54 54" fill="none" xmlns="http://www.w3.org/2000/svg">
<g clip-path="url(#clip0_5_35)">
<path d="M0 0V54H54V0H0ZM29.3868 42.1164C29.3868 47.3724 26.3052 49.7628 21.8088 49.7628C17.7516 49.7628 15.3954 47.6604 14.1984 45.126L18.3312 42.624C19.1286 44.0208 19.854 45.216 21.5928 45.216C23.2596 45.216 24.3108 44.5806 24.3108 42.03V24.786H29.3868V42.1164ZM41.3856 49.7628C36.6732 49.7628 33.6276 47.5164 32.1426 44.5788L36.2736 42.1902C37.3608 43.9506 38.7756 45.2682 41.2776 45.2682C43.3782 45.2682 44.703 44.217 44.703 42.7554C44.703 41.0166 43.3242 40.3974 41.0058 39.3984L39.7458 38.8404C36.0846 37.2834 33.6564 35.325 33.6564 31.1904C33.6564 27.387 36.5436 24.4854 41.0868 24.4854C44.3124 24.4854 46.6308 25.6104 48.3012 28.5426L44.3592 31.0716C43.4952 29.5236 42.5484 28.8936 41.0976 28.8936C39.6144 28.8936 38.664 29.8332 38.664 31.0716C38.664 32.6052 39.6 33.21 41.778 34.1496L43.0434 34.7076C47.358 36.5436 49.788 38.4336 49.788 42.6816C49.8006 47.2608 46.2132 49.7556 41.391 49.7556L41.3856 49.7628Z" fill="#F0DB4F"/>
</g>
<defs>
<clipPath id="clip0_5_35">
<rect width="54" height="54" fill="white"/>
</clipPath>
</defs>
</svg>
