<svg width="54" height="54" viewBox="0 0 54 54" fill="none" xmlns="http://www.w3.org/2000/svg">
<path d="M29.8823 42.1875H47.4474C48.0065 42.1849 48.555 42.0355 49.0381 41.7541C49.5211 41.4727 49.9217 41.0693 50.1998 40.5844C50.479 40.0962 50.6259 39.5436 50.6259 38.9812C50.6259 38.4189 50.479 37.8662 50.1998 37.3781L38.4008 16.767C38.1264 16.2784 37.7269 15.8717 37.2434 15.5887C36.7598 15.3057 36.2096 15.1565 35.6493 15.1565C35.089 15.1565 34.5388 15.3057 34.0552 15.5887C33.5716 15.8717 33.1722 16.2784 32.8978 16.767L29.8806 22.0404L23.9844 11.7281C23.7099 11.2396 23.3102 10.833 22.8265 10.55C22.3428 10.267 21.7925 10.1179 21.2321 10.1179C20.6717 10.1179 20.1214 10.267 19.6378 10.55C19.1541 10.833 18.7544 11.2396 18.4798 11.7281L3.79856 37.3781C3.37827 38.1146 3.2648 38.9869 3.4827 39.8064C3.7006 40.6259 4.23235 41.3267 4.96294 41.7572C5.44556 42.039 5.99231 42.1875 6.55088 42.1875H17.577C21.9459 42.1875 25.1674 40.2519 27.3831 36.4753L32.7662 27.0725L35.6484 22.0404L44.3003 37.1554H32.7662L29.8823 42.1875ZM17.3981 37.1503L9.70313 37.1486L21.2389 16.9965L26.9933 27.0709L23.1407 33.8074C21.6675 36.2576 19.9952 37.1503 17.3981 37.1503Z" fill="#00DC82"/>
</svg>
