<svg width="54" height="54" viewBox="0 0 54 54" fill="none" xmlns="http://www.w3.org/2000/svg">
<path d="M43.0549 21.6776C42.9671 20.0947 43.4076 18.5979 42.7022 17.3677C40.9421 14.2881 36.5445 12.5297 27.7459 12.5297V12.4402V12.528C18.0681 12.528 13.9337 14.2881 12.1753 17.3661C11.5775 18.7208 11.3064 20.1971 11.3839 21.6759C11.0591 23.0292 10.911 24.4189 10.9434 25.8103C11.2067 27.7459 11.3839 29.6814 11.6471 31.4398C11.9104 32.9349 14.0231 34.0791 14.2864 35.4898C14.8146 39.2732 18.1575 41.0316 27.8336 41.0316V41.472H27.6649V41.0316C36.4618 41.0316 40.1524 39.2715 40.6856 35.4898C40.8544 34.0824 42.6212 32.9383 42.8794 31.4398C43.1426 29.6797 43.2321 27.7442 43.4953 25.8103C43.4934 24.4211 43.3458 23.036 43.0549 21.6776Z" fill="#EFCCA3"/>
<path d="M27.3071 23.085C28.7464 23.2166 30.075 23.9125 31.0028 25.0206C32.2346 26.077 34.2579 26.7806 35.1371 27.7476C36.2076 28.6351 37.0269 29.7877 37.5131 31.0905C37.8495 32.324 38.027 33.5954 38.0413 34.8739C38.0413 35.3143 38.3046 35.2266 39.0083 34.8739C40.4021 34.0232 41.6499 32.9537 42.7039 31.7065C42.4406 33.2016 40.5928 34.5212 40.4173 35.9252C39.8891 39.7086 36.1986 41.5547 27.1333 41.5547H27.6615" fill="#CCAC8D"/>
<path d="M32.9383 20.0948C33.291 21.2389 34.4334 25.1978 32.1469 23.8781C32.981 24.5334 33.5445 25.473 33.7298 26.5174C33.8402 27.0774 34.1037 27.5959 34.491 28.0153C34.8782 28.4347 35.374 28.7386 35.9235 28.8934C37.443 29.1187 38.9903 28.7394 40.2334 27.837C40.9629 27.1379 41.463 26.2337 41.6673 25.2441C41.8716 24.2545 41.7705 23.2262 41.3775 22.2953C41.1099 21.5373 40.6253 20.8747 39.9842 20.3899C39.343 19.905 38.5735 19.6193 37.7713 19.5683C36.1125 19.1261 32.5856 18.7751 32.9383 20.0948Z" fill="#CCAC8D"/>
<path d="M37.4254 27.5721C39.2232 27.5721 40.6806 26.1147 40.6806 24.3169C40.6806 22.5191 39.2232 21.0617 37.4254 21.0617C35.6276 21.0617 34.1702 22.5191 34.1702 24.3169C34.1702 26.1147 35.6276 27.5721 37.4254 27.5721Z" fill="black"/>
<path d="M36.5445 23.7009C37.0301 23.7009 37.4237 23.3073 37.4237 22.8218C37.4237 22.3362 37.0301 21.9426 36.5445 21.9426C36.0589 21.9426 35.6653 22.3362 35.6653 22.8218C35.6653 23.3073 36.0589 23.7009 36.5445 23.7009Z" fill="white"/>
<path d="M32.4101 24.1414C34.0653 25.3026 35.5981 26.629 36.9849 28.1002C38.5678 30.1252 38.5678 30.4762 38.5678 30.4762L37.4237 31.0044C36.5684 29.3353 35.3332 27.8903 33.8175 26.7857C31.7925 25.6415 31.5309 24.6746 31.5309 24.6746L32.4101 24.1414Z" fill="#EFCCA3"/>
<path d="M27.3966 23.085C25.8814 23.2128 24.469 23.9033 23.4377 25.0206C22.2058 26.077 20.007 26.7806 19.2189 27.7476C18.1215 28.6292 17.2724 29.7813 16.7552 31.0905C16.4188 32.324 16.2413 33.5954 16.227 34.8739C16.227 35.3143 16.3147 35.4021 15.1706 34.8739C13.7564 34.0516 12.504 32.9782 11.475 31.7065C11.7382 33.2016 13.5861 34.5212 13.7616 35.9252C14.2897 39.6208 17.9803 41.467 27.0456 41.467H27.6615" fill="#CCAC8D"/>
<path d="M35.8408 29.1549C34.8314 27.8159 33.5307 26.7239 32.0371 25.9617C30.5434 25.1996 28.896 24.7871 27.2194 24.7556C25.5448 24.7976 23.901 25.2147 22.409 25.976C20.9169 26.7374 19.6146 27.8237 18.5979 29.1549C17.9208 29.86 17.4109 30.7085 17.1063 31.6374C16.8016 32.5664 16.7099 33.552 16.8379 34.5212C16.8379 42.3512 19.5649 39.9752 21.4127 40.9438C23.2529 41.5578 25.2101 41.7386 27.1316 41.472C29.0531 41.7426 31.0112 41.5618 32.8506 40.9438C34.6984 39.9769 37.4254 42.3512 37.4254 34.5212C37.6435 33.5659 37.6124 32.5706 37.3349 31.6308C37.0574 30.6911 36.5429 29.8385 35.8408 29.1549Z" fill="#56332B"/>
<path d="M27.0439 26.9561C26.9775 28.4221 26.7113 29.8721 26.2524 31.266L27.2194 31.0027L27.0439 26.9561Z" fill="#442823"/>
<path d="M27.3071 26.9561C27.3735 28.4221 27.6397 29.8721 28.0986 31.266L27.1316 31.0027L27.3071 26.9561Z" fill="#442823"/>
<path d="M24.2291 26.077C23.8764 25.1978 25.1961 23.7904 27.3088 23.7904C29.4216 23.7904 30.7395 25.1978 30.3885 26.077C30.0375 26.9562 28.6284 27.2211 27.3088 27.2211C25.8998 27.2194 24.5801 26.9562 24.2291 26.077Z" fill="#56332B"/>
<path d="M27.3071 26.9561C27.3071 26.7874 28.539 26.7874 29.2427 26.3402C29.2427 26.3402 27.8353 26.7806 27.5704 26.6034C27.3884 26.4424 27.2645 26.2259 27.2177 25.9875C27.1709 26.2259 27.047 26.4424 26.865 26.6034C26.6018 26.7722 25.0172 26.3402 25.0172 26.3402C25.7072 26.4926 26.3842 26.6985 27.0422 26.9561V27.6598C26.9871 28.8061 27.0436 29.9551 27.2109 31.0905C27.4742 31.4432 27.3797 28.6267 27.3797 27.6598C27.3176 27.4307 27.2931 27.1931 27.3071 26.9561Z" fill="black"/>
<path d="M27.3071 31.9697C28.3015 32.1023 29.2428 32.4972 30.0341 33.1138C29.3461 32.2221 28.3903 31.5745 27.3071 31.266C26.0649 31.5356 24.9672 32.2573 24.2274 33.291C25.0947 32.5459 26.1696 32.0847 27.3071 31.9697Z" fill="#7F4A41"/>
<path d="M27.1316 38.475C25.7516 38.3988 24.3888 38.1325 23.0816 37.6835C22.8184 37.5958 22.5534 37.7713 22.2902 37.6835C20.1642 37.0812 18.2849 35.8182 16.9239 34.0774V34.43C16.9239 42.26 19.6509 39.884 21.4987 40.8527C23.339 41.4667 25.2961 41.6474 27.2177 41.3809C29.1391 41.6515 31.0972 41.4707 32.9366 40.8527C34.7844 39.8857 37.5114 42.26 37.5114 34.43V33.6386C36.2093 35.551 34.2832 36.9517 32.0625 37.6009C31.7992 37.6886 31.3588 37.5131 31.0956 37.5131C29.8395 38.0597 28.4985 38.3851 27.1316 38.475Z" fill="#442823"/>
<path d="M23.5254 34.2562C23.5254 34.2562 22.5585 37.071 23.2622 38.3062L22.383 37.9535C22.6716 36.6945 23.0535 35.4586 23.5254 34.2562ZM30.915 34.2562C30.915 34.2562 31.8819 37.071 31.1782 38.3062L32.0625 37.9535C31.8145 36.6833 31.4298 35.4437 30.915 34.2562Z" fill="#442823"/>
<path d="M21.2372 20.0948C20.8845 21.2389 19.7421 25.1978 22.0286 23.8781C21.1945 24.5334 20.631 25.473 20.4457 26.5174C20.3352 27.0774 20.0718 27.5959 19.6845 28.0153C19.2973 28.4347 18.8015 28.7386 18.252 28.8934C16.7312 29.1224 15.1812 28.7455 13.9354 27.8438C13.2058 27.1446 12.7058 26.2404 12.5015 25.2508C12.2972 24.2612 12.3982 23.2329 12.7912 22.302C13.0589 21.544 13.5434 20.8815 14.1846 20.3966C14.8257 19.9118 15.5952 19.6261 16.3974 19.575C18.0714 19.1261 21.5899 18.7751 21.2372 20.0948Z" fill="#CCAC8D"/>
<path d="M27.2194 31.266C28.3098 31.573 29.2847 32.1965 30.0206 33.0578C30.7566 33.919 31.2205 34.9791 31.3537 36.1041V35.9353C31.326 34.7669 30.9016 33.6427 30.1502 32.7475C29.3989 31.8523 28.3653 31.2394 27.2194 31.0095C26.0663 31.2245 25.0237 31.8332 24.2696 32.7316C23.5155 33.6301 23.0968 34.7625 23.085 35.9353V36.1041C23.2329 34.9844 23.7021 33.9315 24.4358 33.0729C25.1696 32.2143 26.1364 31.5867 27.2194 31.266Z" fill="black"/>
<path d="M28.0532 26.0564C28.194 26.0201 28.2491 25.7617 28.1762 25.4792C28.1034 25.1968 27.9302 24.9972 27.7894 25.0335C27.6486 25.0698 27.5936 25.3282 27.6664 25.6107C27.7392 25.8932 27.9124 26.0927 28.0532 26.0564Z" fill="#331712"/>
<path d="M26.5928 25.6385C26.6792 25.3599 26.6367 25.0991 26.4979 25.056C26.359 25.0129 26.1764 25.2039 26.0899 25.4825C26.0035 25.7611 26.046 26.0219 26.1849 26.0649C26.3237 26.108 26.5064 25.9171 26.5928 25.6385Z" fill="#331712"/>
<path d="M16.9273 27.5721C18.7251 27.5721 20.1825 26.1147 20.1825 24.3169C20.1825 22.5191 18.7251 21.0617 16.9273 21.0617C15.1295 21.0617 13.6721 22.5191 13.6721 24.3169C13.6721 26.1147 15.1295 27.5721 16.9273 27.5721Z" fill="black"/>
<path d="M17.8065 23.7009C18.2921 23.7009 18.6857 23.3073 18.6857 22.8218C18.6857 22.3362 18.2921 21.9426 17.8065 21.9426C17.3209 21.9426 16.9273 22.3362 16.9273 22.8218C16.9273 23.3073 17.3209 23.7009 17.8065 23.7009Z" fill="white"/>
<path d="M28.1812 24.3169C28.1812 24.3169 27.3021 24.6696 27.1249 24.7573C26.7543 24.6593 26.3989 24.5112 26.0685 24.3169H28.1812Z" fill="#7F4A41"/>
<path d="M21.7687 24.1414C20.1136 25.3026 18.5808 26.629 17.1939 28.1002C15.6111 30.1252 15.6111 30.4762 15.6111 30.4762L16.7552 31.0044C17.6105 29.3353 18.8457 27.8903 20.3614 26.7857C22.3864 25.6415 22.6479 24.6746 22.6479 24.6746L21.7687 24.1414Z" fill="#EFCCA3"/>
<path d="M15.3427 18.2469C14.7297 19.87 13.5814 21.2356 12.0876 22.1181C13.0206 22.0075 13.8764 21.5457 14.4811 20.8266C15.0858 20.1075 15.3939 19.1851 15.3427 18.2469ZM38.6572 18.2469C39.2703 19.87 40.4186 21.2356 41.9124 22.1181C40.9794 22.0075 40.1236 21.5457 39.5189 20.8266C38.9142 20.1075 38.6061 19.1851 38.6572 18.2469ZM32.5856 23.3482C31.1715 21.9955 29.343 21.1584 27.3949 20.9722H27.6581C26.6838 20.9605 25.7194 21.1679 24.8361 21.5792C23.9528 21.9905 23.1733 22.5951 22.5551 23.3482C24.007 22.1992 25.8066 21.5785 27.6581 21.5882C29.4302 21.7156 31.1339 22.3241 32.5856 23.3482ZM29.9464 18.5102C29.3025 17.6632 28.3575 17.0965 27.3071 16.9273H27.5704C27.0438 16.9451 26.5312 17.1007 26.0835 17.3784C25.6358 17.6561 25.2687 18.0464 25.0189 18.5102C25.6864 17.8089 26.6027 17.398 27.5704 17.3661C28.025 17.3768 28.4721 17.4843 28.8819 17.6816C29.2916 17.8789 29.6545 18.1614 29.9464 18.5102ZM16.9273 29.9464C16.0053 30.4214 14.9426 30.5466 13.9354 30.2991H13.5844C12.8878 29.5814 12.3749 28.706 12.0892 27.7476C12.4547 28.6687 13.1628 29.4123 14.065 29.8224C14.9671 30.2324 15.9931 30.2768 16.9273 29.9464ZM37.3376 29.9464C38.2596 30.4214 39.3224 30.5466 40.3296 30.2991H39.9769C40.4944 30.0917 40.9427 29.742 41.2697 29.2905C41.5967 28.8389 41.7891 28.304 41.8247 27.7476C41.6894 28.1967 41.463 28.613 41.1595 28.9706C40.8559 29.3281 40.4819 29.6192 40.0607 29.8256C39.6395 30.032 39.1803 30.1492 38.7118 30.17C38.2432 30.1908 37.7754 30.1147 37.3376 29.9464Z" fill="#CCAC8D"/>
<path d="M18.9506 18.0714C20.2071 17.8247 21.5045 17.8825 22.734 18.2402C24.3169 18.7684 23.0867 20.8794 23.3499 20.9672C23.8571 20.5052 24.4567 20.1564 25.109 19.944C25.7613 19.7316 26.4514 19.6605 27.1333 19.7353C30.1252 19.9041 30.4762 21.2304 30.9167 20.9672C31.3571 20.7984 30.4762 17.2716 35.0511 18.0647C35.0511 18.0647 30.3885 16.8328 30.564 20.1758C29.6012 19.5467 28.4824 19.1978 27.3327 19.168C26.1831 19.1382 25.0477 19.4287 24.0536 20.007C24.0536 20.007 25.0206 16.7518 18.9506 18.0714ZM17.7188 13.5C17.7188 13.5 13.6687 18.5153 13.1439 20.4491C12.528 22.3847 12.0876 30.4779 11.5611 31.6221L9.71325 23.7009L13.1439 15.4322L17.7188 13.5ZM36.5445 13.5C36.5445 13.5 40.5945 18.5153 41.1193 20.4491C41.7353 22.3847 42.1757 30.4779 42.7022 31.6221L44.55 23.7009L41.1193 15.4322L36.5445 13.5Z" fill="#CCAC8D"/>
<path d="M36.2813 13.5C38.7367 15.5861 40.6401 18.2453 41.823 21.2422C43.0549 25.3766 42.5267 30.4796 43.4953 31.0956C44.9027 31.9747 46.3978 26.6962 46.926 26.1697C47.7174 25.2906 50.4444 23.0023 50.6216 22.5635C50.7988 22.1248 45.1676 15.9654 42.6161 14.7335C39.7997 13.3194 36.1125 13.1439 36.2813 13.5Z" fill="#56332B"/>
<path d="M39.9769 15.6937C43.0916 19.94 44.8408 25.0334 44.9921 30.2974L47.0171 26.163C45.4989 22.1823 43.0908 18.6013 39.9769 15.6937Z" fill="#442823"/>
<path d="M17.7188 13.5C15.2633 15.5861 13.3599 18.2453 12.177 21.2422C10.9451 25.3766 11.4733 30.4796 10.5047 31.0956C9.09731 31.9747 7.60219 26.6962 7.074 26.1697C6.28256 25.2906 3.55556 23.0023 3.37838 22.5635C3.20119 22.1248 8.83238 15.9654 11.3839 14.7335C14.2003 13.3194 17.8875 13.1439 17.7188 13.5Z" fill="#56332B"/>
<path d="M14.0231 15.6937C10.9084 19.94 9.15924 25.0334 9.00788 30.2974L6.98625 26.1562C8.50441 22.1783 10.9113 18.5998 14.0231 15.6937Z" fill="#442823"/>
<path d="M11.2084 30.3868C11.3475 31.3232 11.6766 32.2214 12.1753 33.0261C12.7912 33.642 12.3441 32.4979 12.3441 32.4979C12.3441 32.4979 11.7281 32.1452 11.8159 29.5954C11.9036 27.0456 11.2084 30.3868 11.2084 30.3868ZM42.8794 30.3868C42.7402 31.3232 42.4112 32.2214 41.9124 33.0261C41.2965 33.642 41.7437 32.4979 41.7437 32.4979C41.7437 32.4979 42.3596 32.1452 42.2719 29.5954C42.1757 27.1316 42.8794 30.3868 42.8794 30.3868Z" fill="#CCAC8D"/>
<path d="M23.4377 29.1549C23.5831 29.1549 23.7009 29.0371 23.7009 28.8917C23.7009 28.7463 23.5831 28.6284 23.4377 28.6284C23.2923 28.6284 23.1744 28.7463 23.1744 28.8917C23.1744 29.0371 23.2923 29.1549 23.4377 29.1549Z" fill="#442823"/>
<path d="M21.6776 31.0028C21.823 31.0028 21.9409 30.8849 21.9409 30.7395C21.9409 30.5941 21.823 30.4763 21.6776 30.4763C21.5322 30.4763 21.4144 30.5941 21.4144 30.7395C21.4144 30.8849 21.5322 31.0028 21.6776 31.0028Z" fill="#442823"/>
<path d="M21.1494 29.1549C21.2948 29.1549 21.4127 29.0371 21.4127 28.8917C21.4127 28.7463 21.2948 28.6284 21.1494 28.6284C21.004 28.6284 20.8862 28.7463 20.8862 28.8917C20.8862 29.0371 21.004 29.1549 21.1494 29.1549Z" fill="#442823"/>
<path d="M30.6517 29.1549C30.7971 29.1549 30.915 29.0371 30.915 28.8917C30.915 28.7463 30.7971 28.6284 30.6517 28.6284C30.5064 28.6284 30.3885 28.7463 30.3885 28.8917C30.3885 29.0371 30.5064 29.1549 30.6517 29.1549Z" fill="#442823"/>
<path d="M32.3224 31.0028C32.4678 31.0028 32.5856 30.8849 32.5856 30.7395C32.5856 30.5941 32.4678 30.4763 32.3224 30.4763C32.177 30.4763 32.0591 30.5941 32.0591 30.7395C32.0591 30.8849 32.177 31.0028 32.3224 31.0028Z" fill="#442823"/>
<path d="M32.8506 29.1549C32.9959 29.1549 33.1138 29.0371 33.1138 28.8917C33.1138 28.7463 32.9959 28.6284 32.8506 28.6284C32.7052 28.6284 32.5873 28.7463 32.5873 28.8917C32.5873 29.0371 32.7052 29.1549 32.8506 29.1549Z" fill="#442823"/>
</svg>
