<svg width="54" height="54" viewBox="0 0 54 54" fill="none" xmlns="http://www.w3.org/2000/svg">
<path d="M30.375 27C30.375 27.6675 30.1771 28.32 29.8062 28.875C29.4354 29.4301 28.9083 29.8626 28.2916 30.1181C27.6749 30.3735 26.9963 30.4404 26.3416 30.3101C25.6869 30.1799 25.0855 29.8585 24.6135 29.3865C24.1415 28.9145 23.8201 28.3131 23.6898 27.6584C23.5596 27.0037 23.6265 26.3251 23.8819 25.7084C24.1374 25.0917 24.5699 24.5646 25.125 24.1938C25.68 23.8229 26.3325 23.625 27 23.625C27.8951 23.625 28.7535 23.9806 29.3865 24.6135C30.0194 25.2464 30.375 26.1049 30.375 27ZM27 44.5837C28.4865 44.5802 29.9665 44.3874 31.4044 44.01V39.4369C32.9172 38.9251 34.324 38.1417 35.5556 37.125C35.0656 35.314 34.2664 33.6013 33.1931 32.0625C30.9224 36.314 27.1507 39.5683 22.6125 41.1919V44.0775C24.048 44.4293 25.5221 44.5993 27 44.5837ZM42.1875 18.225C41.441 16.9395 40.5337 15.7543 39.4875 14.6981L35.5219 16.9931C34.3008 15.9497 32.8998 15.1377 31.3875 14.5969C30.0607 15.923 28.9757 17.4706 28.1813 19.17C33 19.01 37.7053 20.6526 41.3775 23.7769L43.875 22.3256C43.4899 20.8923 42.9228 19.5142 42.1875 18.225ZM11.8125 18.225C11.0761 19.5136 10.5089 20.8919 10.125 22.3256L14.0906 24.6206C13.7998 26.1992 13.7998 27.8176 14.0906 29.3962C15.899 29.8792 17.7775 30.0448 19.6425 29.8856C17.0909 25.7922 16.1582 20.8941 17.0269 16.1494L14.4956 14.715C13.4559 15.7663 12.5542 16.9458 11.8125 18.225Z" fill="#050A14"/>
<path d="M42.1875 35.8087C42.9239 34.5201 43.4911 33.1418 43.875 31.7081L39.9263 29.4131C40.2171 27.8345 40.2171 26.2161 39.9263 24.6375C38.1179 24.1545 36.2394 23.9889 34.3744 24.1481C36.9726 28.2234 37.9537 33.1228 37.125 37.8844L39.6225 39.3187C40.6212 38.2608 41.4829 37.0816 42.1875 35.8087ZM11.8125 35.8087C12.559 37.0943 13.4663 38.2794 14.5125 39.3356L18.4781 37.0406C19.6992 38.084 21.1002 38.896 22.6125 39.4369C23.9393 38.1107 25.0243 36.5631 25.8188 34.8637C21 35.0237 16.2947 33.3811 12.6225 30.2569L10.125 31.6912C10.5093 33.1302 11.0764 34.514 11.8125 35.8087ZM27 9.43311C25.5135 9.43651 24.0334 9.62931 22.5956 10.0069V14.58C21.0778 15.1121 19.6707 15.9186 18.4444 16.9594C18.9344 18.7703 19.7336 20.483 20.8069 22.0219C23.0776 17.7704 26.8493 14.5161 31.3875 12.8925V10.0237C29.9557 9.64298 28.4815 9.44453 27 9.43311Z" fill="#00B4FF"/>
<path d="M27 6.42937C31.0733 6.42604 35.056 7.63106 38.4441 9.89196C41.8323 12.1529 44.4737 15.368 46.034 19.1306C47.5943 22.8931 48.0034 27.034 47.2096 31.0292C46.4158 35.0243 44.4547 38.6942 41.5744 41.5744C38.6942 44.4547 35.0243 46.4158 31.0292 47.2096C27.034 48.0034 22.8931 47.5943 19.1306 46.034C15.368 44.4737 12.1529 41.8323 9.89196 38.4441C7.63106 35.056 6.42604 31.0733 6.42937 27C6.44274 21.5484 8.61429 16.324 12.4691 12.4691C16.324 8.61429 21.5484 6.44274 27 6.42937ZM27 3.375C20.7343 3.375 14.7251 5.86406 10.2946 10.2946C5.86406 14.7251 3.375 20.7343 3.375 27C3.375 33.2657 5.86406 39.2748 10.2946 43.7054C14.7251 48.1359 20.7343 50.625 27 50.625C33.2657 50.625 39.2748 48.1359 43.7054 43.7054C48.1359 39.2748 50.625 33.2657 50.625 27C50.625 20.7343 48.1359 14.7251 43.7054 10.2946C39.2748 5.86406 33.2657 3.375 27 3.375Z" fill="#00B4FF"/>
</svg>
