<svg width="54" height="54" viewBox="0 0 54 54" fill="none" xmlns="http://www.w3.org/2000/svg">
<path fill-rule="evenodd" clip-rule="evenodd" d="M0.514266 23.6908C0.514266 23.9874 0.601594 24.1831 0.650531 24.3734C0.969469 25.6108 1.65502 26.6726 2.46839 27.6412C3.62686 29.0216 5.04563 30.1328 6.49898 31.1778C7.75955 32.084 9.04584 32.97 10.3115 33.8694C10.5287 34.0238 10.7342 34.2014 10.97 34.3908C10.7671 34.5005 10.5983 34.5971 10.4228 34.6861C8.75264 35.5333 7.14572 36.4829 5.66452 37.6334C4.77183 38.3269 3.90867 39.0639 3.29906 40.0271C2.3182 41.5762 1.971 43.2266 2.70211 44.9888C2.91558 45.5034 3.24127 45.9481 3.70069 46.2767C3.84961 46.383 4.01667 46.4885 4.19091 46.5299C4.63725 46.6349 5.09203 46.7037 5.54386 46.7868L6.82341 46.7859C8.23838 46.6598 9.52636 46.1751 10.6903 45.3718C12.5094 44.1163 13.735 42.433 14.2619 40.2726C14.645 38.7024 14.6606 37.1305 14.2092 35.5674C14.166 35.4226 14.1161 35.2799 14.0598 35.1397C14.005 34.9992 13.9404 34.8625 13.8645 34.6874L16.7653 33.0193L16.8088 33.0564C16.756 33.229 16.6999 33.4011 16.6523 33.5753C16.3076 34.8342 16.0785 36.115 16.1608 37.4216C16.2485 38.8138 16.6371 40.1169 17.4521 41.28C18.1111 42.2208 19.6813 42.2558 20.3816 41.3117C20.6301 40.9763 20.871 40.6257 21.052 40.2515C21.5249 39.2749 21.9628 38.2809 22.4146 37.2938L22.4935 37.1132C22.461 37.5806 22.4231 37.9911 22.4058 38.402C22.3788 39.0437 22.4163 39.6816 22.6357 40.292C22.8234 40.8143 23.1428 41.2045 23.741 41.2733C24.1502 41.3201 24.4763 41.1328 24.7771 40.8953C25.2431 40.527 25.6294 40.0679 25.9124 39.5457C26.7144 38.073 27.5379 36.609 28.2648 35.0992C29.0512 33.4661 29.7388 31.7853 30.4691 30.1244L30.5897 29.8299C30.7623 30.5079 30.8825 31.1719 31.104 31.8005C31.3613 32.5299 31.6799 33.2421 32.0266 33.9344C32.1908 34.2613 32.1718 34.4735 31.9444 34.7477C30.9926 35.8952 30.0573 37.0567 29.1212 38.2168C28.914 38.4729 28.7078 38.7336 28.5352 39.0133C28.4305 39.1899 28.3617 39.3855 28.3327 39.5887C28.3037 39.7759 28.3482 39.967 28.457 40.122C28.5657 40.277 28.7303 40.3839 28.9162 40.4203C29.2912 40.501 29.6758 40.5285 30.0586 40.5017C31.3651 40.4055 32.5515 39.9469 33.6002 39.1698C34.9591 38.1632 35.3953 36.7896 35.0663 35.1616C34.9772 34.7199 34.8199 34.2904 34.6667 33.8648C34.598 33.6728 34.5933 33.5382 34.7186 33.3593C35.805 31.8081 36.7331 30.1624 37.5962 28.4787C37.6304 28.4124 37.6654 28.3462 37.7253 28.2753C38.005 29.7308 38.4261 31.1335 39.1804 32.4063C38.7956 32.7772 38.4147 33.1134 38.07 33.4838C37.311 34.2997 36.6529 35.1856 36.3095 36.2661C36.1619 36.7318 36.0484 37.2052 36.1142 37.7025C36.2163 38.475 36.8491 38.977 37.6089 38.8011C39.2348 38.4248 40.6384 37.6587 41.664 36.3015C42.3541 35.3877 42.417 34.3685 42.128 33.3007C42.0487 33.0105 41.9546 32.7248 41.8534 32.392C42.2546 32.2675 42.6457 32.1182 43.0502 32.0258C45.1508 31.5465 47.2285 31.6301 49.2526 32.3886C50.4343 32.8316 51.389 33.5728 51.9552 34.7389C52.6466 36.1644 52.2644 37.5169 50.9207 38.418C50.7954 38.502 50.652 38.5682 50.5482 38.6733C50.515 38.7118 50.4901 38.7568 50.4752 38.8055C50.4603 38.8542 50.4557 38.9054 50.4617 38.9559C50.4706 39.0078 50.6077 39.0728 50.6866 39.072C51.1283 39.0686 51.4865 38.837 51.8303 38.599C52.6918 38.0029 53.3204 37.2009 53.4558 36.145L53.4824 36.0657L53.4499 35.378C53.4368 35.3384 53.4596 35.2991 53.4566 35.2692C53.2735 33.7314 52.4521 32.5388 51.2574 31.6039C49.8736 30.5218 48.2397 30.0763 46.5117 30.0059C45.1103 29.9455 43.7106 30.161 42.3921 30.6399C42.0137 30.777 41.6386 30.9395 41.2581 31.0926C41.2071 31.0002 41.1522 30.9116 41.1071 30.8201C40.7164 30.0202 40.2431 29.2558 40.1385 28.3386C40.0642 27.6872 39.9731 27.0367 40.1279 26.3925C40.2768 25.7728 40.4709 25.1636 40.6536 24.5523C40.7476 24.2376 40.6814 24.0612 40.381 23.9195C40.2764 23.8673 40.1647 23.8306 40.0494 23.8106C39.3112 23.7035 38.583 23.7646 37.8679 23.9726C37.6148 24.0465 37.4309 24.1882 37.3748 24.4683C37.3427 24.6291 37.2773 24.783 37.2317 24.9417C37.0448 25.6011 36.9124 26.2731 36.6103 26.9013C35.8535 28.477 34.9895 29.9932 34.1052 31.4985C34.0095 31.6609 33.9086 31.8203 33.788 32.0174C33.4775 31.3677 33.1463 30.7846 33.0459 30.1012C32.9324 29.3283 32.843 28.5567 33.0353 27.7898C33.1784 27.2177 33.3653 26.6562 33.5374 26.0917C33.6188 25.8234 33.5813 25.6825 33.3383 25.5412C33.2155 25.4699 33.0767 25.4066 32.9383 25.3859C32.1813 25.2706 31.4078 25.3339 30.6796 25.5707C30.4505 25.6449 30.3303 25.793 30.2603 26.0293C30.0544 26.7262 29.8789 27.44 29.5899 28.1028C28.4196 30.7859 27.2156 33.4551 26.0128 36.1239C25.7618 36.6812 25.4678 37.2191 25.1847 37.7616C25.113 37.8991 25.0083 38.0202 24.9189 38.1493C24.8472 38.0645 24.8193 38.0063 24.8198 37.9481C24.8219 37.6051 24.7809 37.252 24.8463 36.9204C25.0471 35.9175 25.2691 34.919 25.512 33.9255C25.7103 33.1045 25.9411 32.2912 26.1609 31.4757C26.2347 31.2027 26.236 30.9475 26.0398 30.718C25.7103 30.3337 25.0218 30.2493 24.6135 30.5454L24.4329 30.6475L24.4679 30.3564C24.554 29.7325 24.5713 29.1106 24.4 28.496C24.1865 27.7298 23.6398 27.289 22.845 27.3135C22.4745 27.3248 22.0856 27.3881 21.7426 27.5231C20.3002 28.0884 19.1911 29.0895 18.2469 30.294C18.1594 30.4058 18.0509 30.4995 17.9276 30.5699C16.7071 31.2466 15.4828 31.9148 14.259 32.5856L12.8967 33.3319C12.5314 32.9835 12.1994 32.6219 11.8226 32.3152C10.6722 31.377 9.50316 30.4619 8.34469 29.5342C7.31784 28.712 6.32306 27.8556 5.562 26.7667C4.99584 25.9567 4.63092 25.0703 4.59591 24.0688C4.55161 22.7926 4.91358 21.6266 5.56327 20.5411C6.39436 19.1523 7.52794 18.0377 8.77416 17.0281C10.0925 15.9608 11.5185 15.0546 12.9963 14.2273C15.0639 13.0701 17.1906 12.0458 19.4708 11.3695C21.8088 10.676 24.181 10.279 26.6279 10.5557C27.5898 10.6646 28.5238 10.8848 29.3815 11.3552C30.0383 11.715 30.5771 12.1863 30.8277 12.9229C31.0749 13.6477 31.0673 14.3821 30.896 15.1183C30.548 16.6092 29.7316 17.8381 28.7044 18.9363C27.0194 20.7364 24.964 21.962 22.65 22.7715C21.3196 23.2376 19.9353 23.5329 18.5304 23.6503C17.3791 23.7469 16.2519 23.6448 15.1618 23.2445C14.4399 22.9791 13.8113 22.5733 13.3059 21.9843C13.2157 21.8789 13.1001 21.7645 12.9317 21.8633C12.7668 21.9603 12.7377 22.1172 12.7929 22.2763C12.8853 22.5404 12.9705 22.8154 13.1144 23.0517C13.476 23.6444 14.0033 24.0743 14.5838 24.443C15.6988 25.1522 16.945 25.3905 18.2372 25.4458C20.1981 25.5306 22.1113 25.2378 23.9975 24.7118C26.6903 23.9608 29.0318 22.6344 30.9095 20.5419C32.473 18.7996 33.5897 16.8332 33.8289 14.4589C33.9457 13.3 33.8213 12.1648 33.2788 11.1075C32.6903 9.96216 31.7545 9.11039 30.6357 8.52356C29.0064 7.66927 27.2481 7.17188 25.4332 7.17188H23.6149C21.4169 7.17188 19.2919 7.80173 17.2264 8.55309C15.663 9.1222 14.1299 9.79383 12.6415 10.5372C9.40022 12.1567 6.3817 14.1096 3.90234 16.7948C2.66709 18.1326 1.62127 19.6087 1.01967 21.3469C0.838099 21.8658 0.681683 22.3932 0.550969 22.9272M12.2955 38.1202C12.1551 40.0013 11.3025 41.5264 9.909 42.7617C9.12516 43.4561 8.22614 43.9505 7.17905 44.1243C6.79936 44.1872 6.41081 44.2024 6.04252 44.045C5.51728 43.8206 5.39958 43.3544 5.38945 42.8579C5.37384 42.0664 5.65102 41.3509 6.03113 40.67C6.52725 39.7824 7.25456 39.1057 8.03124 38.4737C9.25467 37.4777 10.5819 36.6348 11.9412 35.8391L12.0437 35.7969C12.2538 36.5732 12.3538 37.3397 12.2955 38.1202ZM22.9091 29.9447C22.8099 30.5454 22.6859 31.1466 22.5104 31.7288C21.9038 33.7441 21.1245 35.697 20.2821 37.6237C20.1264 37.9801 19.8998 38.3054 19.7028 38.6433C19.6693 38.6953 19.6292 38.7426 19.5834 38.7842C19.3396 39.0251 19.1084 39.0125 18.9852 38.6973C18.8418 38.3311 18.7536 37.9392 18.6777 37.5515C18.6266 37.2912 18.6389 37.0178 18.6228 36.7512C18.6393 34.8553 19.2177 33.1324 20.199 31.5284C20.6035 30.8669 21.044 30.2366 21.7169 29.8181C21.9262 29.688 22.1527 29.5877 22.3898 29.5203C22.7483 29.4195 22.9686 29.5853 22.9091 29.9447ZM30.1501 39.1702L32.7527 36.1315C32.8611 37.26 30.9428 39.5128 30.1501 39.1702ZM38.4623 37.1254C38.2784 37.2309 38.078 37.3068 37.8894 37.4043C37.7169 37.4937 37.6599 37.4034 37.6549 37.2549C37.6523 37.1521 37.6656 37.0496 37.6941 36.9508C38.0455 35.7113 38.6923 34.6532 39.6546 33.7926L39.7221 33.758C40.1798 35.0384 39.6508 36.4445 38.4623 37.1254Z" fill="#CB6699"/>
</svg>
