<svg width="54" height="54" viewBox="0 0 54 54" fill="none" xmlns="http://www.w3.org/2000/svg">
<g clip-path="url(#clip0_5_87)">
<path d="M27.0017 10.8008C19.8016 10.8008 15.3031 14.3994 13.5017 21.5996C16.2008 18.0006 19.3518 16.651 22.9508 17.5508C25.0058 18.063 26.4744 19.5531 28.1007 21.2043C30.7475 23.8904 33.8112 27 40.5017 27C47.7014 27 52.2003 23.401 54.0017 16.1992C51.3021 19.8003 48.1516 21.1499 44.5521 20.25C42.4976 19.7374 41.0307 18.2478 39.4023 16.5966C36.7571 13.9105 33.6943 10.8008 27.0017 10.8008ZM13.5017 27C6.30197 27 1.8031 30.599 0.00169373 37.8008C2.70085 34.1997 5.85141 32.8501 9.45085 33.75C11.5058 34.2626 12.9743 35.7522 14.6007 37.4034C17.2475 40.0895 20.3112 43.1992 27.0017 43.1992C34.2014 43.1992 38.7003 39.6006 40.5017 32.4004C37.8021 35.9994 34.6516 37.349 31.0521 36.4492C28.9976 35.937 27.5307 34.4469 25.9023 32.7957C23.2571 30.1096 20.1943 27 13.5017 27Z" fill="#38BDF8"/>
</g>
<defs>
<clipPath id="clip0_5_87">
<rect width="54" height="54" fill="white"/>
</clipPath>
</defs>
</svg>
