<svg width="54" height="54" viewBox="0 0 54 54" fill="none" xmlns="http://www.w3.org/2000/svg">
<g clip-path="url(#clip0_5_37)">
<mask id="mask0_5_37" style="mask-type:luminance" maskUnits="userSpaceOnUse" x="0" y="0" width="54" height="54">
<path d="M0 0H54V54H0V0Z" fill="white"/>
</mask>
<g mask="url(#mask0_5_37)">
<path d="M52.7153 1.97385e-06H1.2825C0.942155 0.000598029 0.615952 0.136218 0.375501 0.377091C0.13505 0.617964 1.4554e-06 0.944405 1.97734e-06 1.28475V52.7175C-0.000294422 52.8863 0.0327343 53.0535 0.0971941 53.2095C0.161654 53.3655 0.256276 53.5073 0.375636 53.6266C0.494995 53.746 0.636742 53.8406 0.792749 53.9051C0.948756 53.9695 1.11595 54.0025 1.28475 54.0023H52.7175C52.8862 54.0023 53.0533 53.969 53.2092 53.9045C53.365 53.8399 53.5067 53.7453 53.626 53.626C53.7453 53.5067 53.8399 53.365 53.9045 53.2092C53.969 53.0533 54.0022 52.8862 54.0023 52.7175V1.2825C54.002 1.11379 53.9684 0.946781 53.9036 0.79102C53.8388 0.63526 53.7439 0.493796 53.6244 0.374705C53.5049 0.255614 53.3631 0.161228 53.2071 0.0969362C53.0511 0.0326445 52.884 -0.000293759 52.7153 1.97385e-06ZM32.1435 28.8585H25.7153V48.8565H20.5718V28.8585H14.1435V24.4283H32.1435V28.8585ZM33.5835 47.7135V42.3697C33.5835 42.3697 36.504 44.5703 40.0073 44.5703C43.5105 44.5703 43.3755 42.2797 43.3755 41.9647C43.3755 38.6415 33.4485 38.6415 33.4485 31.275C33.4485 21.258 47.9137 25.2113 47.9137 25.2113L47.7337 29.9723C47.7337 29.9723 45.3083 28.3545 42.5678 28.3545C39.8273 28.3545 38.8395 29.6595 38.8395 31.05C38.8395 34.6433 48.8565 34.2855 48.8565 41.517C48.8565 52.6545 33.5835 47.7158 33.5835 47.7158V47.7135Z" fill="#007ACC"/>
</g>
</g>
<defs>
<clipPath id="clip0_5_37">
<rect width="54" height="54" fill="white"/>
</clipPath>
</defs>
</svg>
