<svg width="54" height="54" viewBox="0 0 54 54" fill="none" xmlns="http://www.w3.org/2000/svg">
<path d="M50.4293 10.3714L28.2521 50.0276C28.148 50.2141 27.9961 50.3696 27.8121 50.4781C27.6281 50.5866 27.4186 50.6443 27.205 50.6451C26.9914 50.646 26.7813 50.59 26.5965 50.483C26.4116 50.376 26.2585 50.2217 26.1529 50.0361L3.537 10.3748C3.4233 10.1758 3.36871 9.94845 3.37965 9.71952C3.39059 9.49058 3.4666 9.26952 3.59876 9.08226C3.73091 8.89501 3.91374 8.74933 4.12578 8.66233C4.33782 8.57533 4.57028 8.55061 4.79588 8.59107L26.9966 12.5601C27.1378 12.5855 27.2824 12.5855 27.4236 12.5601L49.1603 8.59782C49.385 8.55676 49.6167 8.58043 49.8285 8.66607C50.0403 8.75171 50.2234 8.89579 50.3564 9.08152C50.4894 9.26724 50.5669 9.48695 50.5798 9.71503C50.5927 9.94311 50.5405 10.1718 50.4293 10.3714Z" fill="url(#paint0_linear_5_69)"/>
<path d="M37.5705 3.38684L21.1613 6.60153C21.0299 6.62718 20.9108 6.69584 20.8228 6.79668C20.7348 6.89751 20.6829 7.02478 20.6753 7.1584L19.6661 24.2089C19.6606 24.3024 19.6769 24.396 19.7138 24.4821C19.7507 24.5682 19.8072 24.6446 19.8788 24.705C19.9504 24.7655 20.0351 24.8084 20.1262 24.8304C20.2173 24.8523 20.3123 24.8528 20.4036 24.8316L24.9716 23.7769C25.07 23.7542 25.1726 23.7565 25.2698 23.7838C25.3671 23.8111 25.4559 23.8623 25.5282 23.9329C25.6005 24.0035 25.6538 24.0911 25.6833 24.1877C25.7129 24.2843 25.7177 24.3867 25.6972 24.4857L24.3405 31.1327C24.3196 31.235 24.3256 31.3411 24.358 31.4404C24.3904 31.5397 24.4481 31.6288 24.5253 31.6991C24.6026 31.7694 24.6968 31.8184 24.7987 31.8413C24.9006 31.8642 25.0067 31.8601 25.1066 31.8297L27.9281 30.9724C28.0282 30.9418 28.1345 30.9378 28.2366 30.9607C28.3387 30.9837 28.433 31.0328 28.5103 31.1033C28.5877 31.1738 28.6453 31.2633 28.6775 31.3628C28.7098 31.4623 28.7155 31.5686 28.6942 31.671L26.5359 42.1116C26.4009 42.7646 27.27 43.1207 27.6328 42.5621L27.8741 42.1875L41.2476 15.4997C41.2978 15.3992 41.3188 15.2866 41.3084 15.1747C41.2979 15.0628 41.2564 14.956 41.1885 14.8665C41.1205 14.7769 41.0289 14.7082 40.9239 14.668C40.819 14.6278 40.7049 14.6178 40.5945 14.6391L35.8914 15.5453C35.7902 15.5647 35.6857 15.5577 35.5879 15.5252C35.4901 15.4926 35.4023 15.4355 35.3329 15.3593C35.2635 15.2831 35.2147 15.1904 35.1914 15.09C35.1681 14.9896 35.1709 14.8849 35.1996 14.7859L38.2674 4.14453C38.2963 4.04521 38.2992 3.94012 38.2757 3.83938C38.2522 3.73863 38.2032 3.64564 38.1333 3.56934C38.0635 3.49305 37.9752 3.43602 37.8769 3.40376C37.7786 3.3715 37.6737 3.36509 37.5722 3.38515L37.5705 3.38684Z" fill="url(#paint1_linear_5_69)"/>
<defs>
<linearGradient id="paint0_linear_5_69" x1="2.98438" y1="7.17334" x2="30.5837" y2="44.6554" gradientUnits="userSpaceOnUse">
<stop stop-color="#41D1FF"/>
<stop offset="1" stop-color="#BD34FE"/>
</linearGradient>
<linearGradient id="paint1_linear_5_69" x1="25.7208" y1="4.25891" x2="30.7134" y2="38.5076" gradientUnits="userSpaceOnUse">
<stop stop-color="#FFEA83"/>
<stop offset="0.083" stop-color="#FFDD35"/>
<stop offset="1" stop-color="#FFA800"/>
</linearGradient>
</defs>
</svg>
