<svg width="54" height="54" viewBox="0 0 54 54" fill="none" xmlns="http://www.w3.org/2000/svg">
<path d="M49.4817 41.3859L27.945 53.5781V44.0817L41.3438 36.7031L49.4817 41.3859ZM50.9583 40.0528V14.5758L43.0777 19.132V35.505L50.9541 40.0486L50.9583 40.0528ZM4.51828 41.3859L26.0339 53.5697V44.0817L12.6309 36.7031L4.51828 41.3859ZM3.04172 40.0528V14.5758L10.9223 19.132V35.505L3.04172 40.0528ZM3.96562 12.9262L26.055 0.421875V9.60188L11.9011 17.3855L11.7872 17.4487L3.96562 12.9262ZM50.0259 12.9262L27.945 0.421875V9.60188L42.0989 17.3813L42.2128 17.4445L50.0344 12.9262H50.0259Z" fill="#8ED6FB"/>
<path d="M26.055 41.9217L12.8123 34.6359V20.2163L26.055 27.8438V41.9217ZM27.945 41.9217L41.1877 34.6444V20.2163L27.945 27.8438V41.9217ZM13.7109 18.5625L27 11.2472L40.2891 18.5625L27 26.2238L13.7109 18.5625Z" fill="#1C78C0"/>
</svg>
