<svg width="54" height="54" viewBox="0 0 54 54" fill="none" xmlns="http://www.w3.org/2000/svg">
  <path fill-rule="evenodd" clip-rule="evenodd" d="M31.1968 3.375C30.8725 3.37953 30.5511 3.43652 30.2451 3.54375C32.9704 5.33587 29.7557 7.93125 31.2576 10.125C31.1541 9.38712 31.2715 8.63512 31.5949 7.96389C31.9184 7.29265 32.4334 6.73227 33.075 6.35344C33.556 5.9535 33.8648 5.81006 33.7618 5.14856C33.5948 4.06519 32.1503 3.375 31.1968 3.375ZM35.0781 4.07363C34.7018 5.96869 34.2343 6.03788 32.8455 7.25794C32.3038 7.68498 31.9216 8.28186 31.7603 8.95251C31.5989 9.62316 31.668 10.3286 31.9562 10.9553C26.2187 8.72775 18.8646 7.38112 13.473 11.2354C11.5341 12.6208 10.3511 14.6104 7.95995 15.4221C6.4142 15.9519 4.89545 15.795 3.92682 17.3272C3.57257 17.7697 3.38751 18.3239 3.40483 18.8904C3.42215 19.4569 3.64071 19.9988 4.02132 20.4188C4.30989 20.7141 4.86507 20.9031 5.09457 21.2034C5.22789 21.3722 5.22451 21.5409 5.35107 21.7654C5.57474 22.2884 5.89799 22.763 6.30282 23.1626C6.55089 23.3668 7.40307 23.5659 7.5482 23.7836C7.73045 24.0553 7.25795 25.1336 7.65451 25.3024C7.92114 25.4256 8.70245 24.0469 8.77839 23.9254C8.62314 25.0104 8.41895 26.9359 9.63901 25.3328C10.2178 24.5717 10.2533 24.3202 11.2269 24.1515C11.85 24.0433 12.4798 23.9778 13.1119 23.9557C16.7226 23.8294 20.2443 25.0929 22.9512 27.4859C25.6581 29.8788 27.344 33.2189 27.6615 36.8179C27.4793 35.9741 26.3773 34.6241 25.3513 34.9447C24.9143 35.0798 24.7523 35.8341 24.4654 36.2711C24.1027 36.8253 23.6558 37.3195 23.1407 37.7359C23.2279 36.9178 23.1869 36.0911 23.0192 35.2856C22.7121 36.5479 22.0961 38.6421 20.5453 38.3029C20.0287 38.224 19.5447 38.0015 19.1484 37.6608C18.7522 37.32 18.4597 36.8747 18.3043 36.3757C18.1035 35.0933 19.4586 33.5897 17.28 33.4834C12.9094 33.2691 13.9202 39.6968 16.5004 41.3724C15.9074 41.438 15.329 41.5993 14.7876 41.85C16.4266 42.8019 18.2734 43.3388 20.1672 43.4141C22.0611 43.4893 23.9446 43.1007 25.654 42.2819C27.3634 41.4632 28.8468 40.2391 29.9752 38.7162C31.1036 37.1934 31.8427 35.4178 32.1283 33.5441C32.5039 35.2601 32.4952 37.0378 32.103 38.7501C31.8933 39.66 31.5796 40.5427 31.1681 41.3809C30.6103 42.513 29.8691 43.5451 28.9744 44.4352C28.4445 44.9601 27.4725 45.4883 27.1384 46.0232C29.1836 45.752 31.1821 45.2024 33.0784 44.3897C31.1154 47.0784 28.5012 49.2241 25.4813 50.625C28.7192 50.3959 31.8492 49.3645 34.589 47.6237C37.3288 45.8829 39.5922 43.4875 41.175 40.6536C40.6705 43.4879 39.5501 46.1769 37.8928 48.5308C40.1219 47.0385 42.0183 45.1015 43.4631 42.8413C44.9078 40.5811 45.8696 38.0466 46.2881 35.397C46.7037 37.3366 46.8226 39.328 46.6408 41.3032C48.4719 38.7589 49.7089 35.8362 50.2606 32.7504C50.8123 29.6646 50.6646 26.4943 49.8285 23.4731C49.189 21.1245 48.23 18.8749 46.9783 16.7872C46.495 15.9738 45.966 15.1884 45.3938 14.4349C45.1693 14.1429 43.9695 13.0747 43.9695 12.7474C43.9594 12.78 43.951 12.78 43.9442 12.7474C43.9442 18.2284 38.038 21.7468 33.0919 20.2787C34.9726 20.1328 36.7502 19.3609 38.1408 18.0863C39.5313 16.8117 40.4546 15.1078 40.7633 13.2469C41.0365 11.2945 40.6176 9.30812 39.5791 7.63245C38.5406 5.95679 36.9481 4.69766 35.0781 4.07363Z" fill="#EA2845"/>
</svg>
