<svg width="54" height="54" viewBox="0 0 54 54" fill="none" xmlns="http://www.w3.org/2000/svg">
  <path d="M27 50.625C26.3626 50.6253 25.7363 50.4576 25.1843 50.139L19.4063 46.7185C18.5439 46.2358 18.9641 46.0654 19.2493 45.9658C20.1664 45.6825 21.0445 45.2857 21.8633 44.7846C21.9318 44.7529 22.0073 44.7392 22.0826 44.7448C22.1579 44.7504 22.2305 44.7751 22.2936 44.8166L26.7334 47.4542C26.8161 47.4979 26.9082 47.5208 27.0017 47.5208C27.0952 47.5208 27.1873 47.4979 27.27 47.4542L44.5838 37.4608C44.6648 37.4123 44.7318 37.3435 44.7782 37.2613C44.8247 37.179 44.849 37.0862 44.8487 36.9917V17.0016C44.8488 16.9056 44.8241 16.8113 44.7771 16.7276C44.7301 16.644 44.6624 16.5739 44.5804 16.524L27.2666 6.53908C27.185 6.4931 27.0929 6.46894 26.9992 6.46894C26.9055 6.46894 26.8133 6.4931 26.7317 6.53908L9.42807 16.5274C9.34553 16.5762 9.277 16.6455 9.2291 16.7286C9.18121 16.8117 9.15558 16.9057 9.1547 17.0016V36.9833C9.15493 37.0775 9.18021 37.17 9.22795 37.2512C9.2757 37.3325 9.34418 37.3996 9.42638 37.4456L14.175 40.1861C16.7484 41.472 18.3246 39.9566 18.3246 38.4345V18.706C18.3246 18.5717 18.3779 18.4429 18.4728 18.348C18.5678 18.253 18.6966 18.1997 18.8308 18.1997H21.0246C21.1588 18.1997 21.2876 18.253 21.3825 18.348C21.4775 18.4429 21.5308 18.5717 21.5308 18.706V38.4362C21.5308 41.8703 19.6611 43.8362 16.4042 43.8362C14.9991 43.8607 13.6161 43.4849 12.4166 42.7528L7.86544 40.1423C7.31294 39.8205 6.85449 39.3595 6.53588 38.8051C6.21726 38.2508 6.04962 37.6226 6.04969 36.9833V17.0016C6.04805 16.3612 6.21498 15.7317 6.53371 15.1763C6.85244 14.6209 7.31173 14.1592 7.86544 13.8375L25.1809 3.84077C25.7386 3.53561 26.3642 3.37567 27 3.37567C27.6358 3.37567 28.2614 3.53561 28.8191 3.84077L46.1329 13.8375C46.6853 14.1586 47.1439 14.619 47.4628 15.1727C47.7817 15.7265 47.9498 16.3541 47.9503 16.9931V36.9833C47.9494 37.6226 47.7811 38.2506 47.4623 38.8048C47.1435 39.359 46.6851 39.8201 46.1329 40.1423L28.8191 50.139C28.266 50.4581 27.6386 50.6258 27 50.625Z" fill="#83CD29"/>
  <path d="M23.7161 30.2957C23.7161 30.1614 23.7695 30.0327 23.8644 29.9377C23.9593 29.8428 24.0881 29.7895 24.2224 29.7895H26.4617C26.5813 29.7898 26.697 29.8326 26.7881 29.9101C26.8792 29.9877 26.94 30.095 26.9595 30.213C27.297 32.4928 28.3095 33.642 32.8877 33.642C36.5344 33.642 38.0886 32.8168 38.0886 30.8813C38.0886 29.7658 37.6481 28.9373 31.9798 28.3821C27.2413 27.913 24.3118 26.8633 24.3118 23.0766C24.3118 19.5835 27.2565 17.4994 32.1924 17.4994C37.7393 17.4994 40.4848 19.4248 40.8324 23.5558C40.8377 23.6248 40.8289 23.6941 40.8063 23.7595C40.7838 23.8249 40.7481 23.885 40.7015 23.9361C40.6548 23.9872 40.5982 24.0281 40.5351 24.0565C40.472 24.0848 40.4038 24.0999 40.3346 24.1009H38.0801C37.967 24.0993 37.8577 24.0599 37.7696 23.9889C37.6815 23.918 37.6198 23.8196 37.5941 23.7094C37.0558 21.3115 35.7379 20.5453 32.1941 20.5453C28.2116 20.5453 27.7493 21.9325 27.7493 22.972C27.7493 24.2308 28.296 24.5987 33.6724 25.3091C38.9931 26.0128 41.5209 27.0085 41.5209 30.748C41.5209 34.5212 38.3754 36.6812 32.8894 36.6812C25.3041 36.6913 23.7161 33.2134 23.7161 30.2957Z" fill="#83CD29"/>
</svg>
