<svg width="54" height="54" viewBox="0 0 54 54" fill="none" xmlns="http://www.w3.org/2000/svg">
  <path d="M39.5757 38.8597C39.9068 36.1036 39.8077 35.6991 41.8605 36.1458L42.3815 36.1914C43.9602 36.2631 46.0253 35.9374 47.2386 35.3738C49.8504 34.1617 51.3987 32.1389 48.824 32.67C42.9498 33.882 42.5461 31.8929 42.5461 31.8929C48.7489 22.6897 51.3418 11.0067 49.1033 8.14683C42.9988 0.346779 32.4321 4.03523 32.2553 4.13058L32.1988 4.14112C31.0382 3.90023 29.7392 3.75637 28.28 3.73275C25.6217 3.68887 23.6047 4.42968 22.0746 5.58984C22.0746 5.58984 3.22396 -2.17646 4.10103 15.3567C4.2875 19.0865 9.44703 43.5793 15.6013 36.1813C17.8508 33.4762 20.0243 31.1888 20.0243 31.1888C21.1034 31.9056 22.3961 32.2717 23.7511 32.1401L23.8562 32.0507C23.8233 32.3865 23.8376 32.7151 23.8979 33.1041C22.313 34.8756 22.7787 35.1865 19.6092 35.8387C16.4021 36.4994 18.2862 37.676 19.5159 37.9835C21.0073 38.3565 24.4569 38.8846 26.7882 35.6219L26.6954 35.9939C27.3172 36.4918 27.2755 39.5702 27.3632 41.7694C27.4514 43.9691 27.5986 46.0215 28.0471 47.2319C28.4955 48.4418 29.0246 51.5586 33.1902 50.6659C36.6715 49.9217 39.3331 48.8481 39.5757 38.8597Z" fill="black"/>
  <path d="M31.8339 52.8424C29.9915 52.8424 28.7917 52.1298 28.0631 51.4418C26.9633 50.4039 26.5271 49.067 26.2664 48.2684L26.1537 47.9351C25.6289 46.5185 25.4509 44.4787 25.3454 41.8521C25.3294 41.4577 25.3184 41.0514 25.3062 40.6207C25.2973 40.3055 25.2864 39.9102 25.2703 39.4968C24.6066 39.8133 23.9021 40.0359 23.177 40.1583C21.878 40.3802 20.4816 40.3085 19.0257 39.9444C17.9985 39.6875 16.9311 39.1551 16.3228 38.3328C14.5496 39.8858 12.8583 39.6753 11.937 39.3677C10.3115 38.8256 8.85686 37.3022 7.48956 34.7115C6.51545 32.8658 5.5734 30.4611 4.68915 27.5636C3.14931 22.518 2.17098 17.2037 2.08408 15.4588C1.8107 9.99761 3.28094 6.09189 6.45301 3.85131C11.4569 0.316841 19.0384 2.39542 21.8025 3.33915C23.6596 2.21992 25.8445 1.67528 28.3133 1.71451C29.6393 1.73603 30.9019 1.85247 32.0747 2.06172C33.2982 1.67697 35.7147 1.12473 38.4809 1.15933C43.5776 1.22008 47.801 3.20626 50.6938 6.90315C52.7584 9.54072 51.7375 15.0795 50.9456 18.1465C49.831 22.4606 47.8782 27.049 45.4794 31.0433C46.1308 31.0479 47.0745 30.9699 48.4161 30.6927C51.0629 30.1464 51.8371 31.5655 52.0472 32.2009C52.8888 34.7499 49.2303 36.6761 48.0891 37.206C46.6269 37.8848 44.2429 38.2982 42.2905 38.2088L42.2052 38.2033L41.6922 38.1582L41.6416 38.586L41.5927 39.004C41.4615 44.0661 40.7384 47.2719 39.2504 49.3902C37.6908 51.6109 35.5232 52.2332 33.6137 52.6424C32.9624 52.7816 32.3705 52.8424 31.8339 52.8424ZM27.9568 34.4187C29.1461 35.3704 29.2503 37.1613 29.3435 40.508C29.3553 40.9257 29.3663 41.321 29.3811 41.6901C29.4258 42.8081 29.5308 45.4258 29.9409 46.532C29.9987 46.6885 30.0506 46.8471 30.1054 47.0155C30.5623 48.4144 30.7914 49.116 32.767 48.6937C34.4254 48.338 35.278 48.0191 35.9455 47.069C36.9153 45.6878 37.4579 42.9093 37.5574 38.8108L39.5753 38.8598L37.5714 38.6193L37.6304 38.119C37.8224 36.4694 37.9608 35.278 39.0631 34.49C39.9478 33.858 40.9556 33.9192 41.7585 34.0639C40.8763 33.3973 40.6325 32.6156 40.5675 32.295L40.3992 31.466L40.8721 30.7644C43.5962 26.7228 45.8422 21.7557 47.0353 17.1362C48.2612 12.3896 47.8875 9.86893 47.5137 9.39222C42.5655 3.06958 33.985 5.68014 33.0889 5.97629L32.9375 6.05814L32.1781 6.19947L31.7891 6.11889C30.7167 5.89614 29.5254 5.77295 28.2483 5.75228C26.2419 5.71853 24.6232 6.19272 23.296 7.19973L22.375 7.89793L21.3064 7.45792C19.0232 6.52431 12.3171 4.64739 8.77839 7.15375C6.81414 8.54509 5.91934 11.2712 6.11847 15.2567C6.18428 16.5725 7.07823 21.5536 8.55311 26.3845C10.5912 33.0607 12.4432 35.2785 13.2165 35.5362C13.3515 35.5818 13.7017 35.3097 14.0501 34.8912C15.5031 33.1494 17.0076 31.4513 18.5617 29.7992L19.7303 28.5694L21.1431 29.5081C21.7127 29.8865 22.3408 30.1012 22.9859 30.1417L26.3554 27.2679L25.8673 32.2494C25.8563 32.3612 25.8508 32.5135 25.8947 32.7962L26.0415 33.7403L25.4045 34.4524L25.3311 34.5351L27.1823 35.3894L27.9568 34.4187Z" fill="black"/>
  <path d="M48.824 32.67C42.9494 33.882 42.5457 31.8929 42.5457 31.8929C48.7485 22.6893 51.3413 11.0059 49.1037 8.14682C42.9992 0.347199 32.4316 4.03565 32.2553 4.13142L32.1983 4.14154C31.0378 3.90065 29.7388 3.75721 28.2787 3.73359C25.6205 3.69014 23.6043 4.43053 22.0742 5.59068C22.0742 5.59068 3.22313 -2.17519 4.09978 15.3575C4.28625 19.0877 9.44578 43.5805 15.6001 36.1825C17.8495 33.4775 20.0226 31.1901 20.0226 31.1901C21.1022 31.9068 22.3944 32.273 23.749 32.1414L23.8545 32.052C23.8216 32.3878 23.8368 32.7164 23.8967 33.1054C22.3113 34.8768 22.777 35.1877 19.6075 35.84C16.4004 36.5006 18.2845 37.6772 19.5147 37.9848C21.0056 38.3577 24.4557 38.8859 26.7865 35.6231L26.6933 35.9952C27.3147 36.493 27.7509 39.2318 27.678 41.7146C27.6046 44.1973 27.5556 45.9021 28.0454 47.2335C28.5348 48.565 29.0225 51.5603 33.1889 50.6676C36.6702 49.9217 38.4742 47.9883 38.7256 44.7635C38.9036 42.4706 39.3065 42.8098 39.3323 40.7599L39.6558 39.7896C40.0288 36.6816 39.7149 35.6792 41.8601 36.1454L42.3811 36.191C43.9598 36.2627 46.0257 35.937 47.2386 35.3734C49.85 34.1622 51.3987 32.1389 48.824 32.67Z" fill="#336791"/>
  <path d="M32.0444 51.5982C28.5715 51.5982 27.4712 48.848 27.0211 47.7233C26.3621 46.0751 26.22 39.6786 26.3668 34.433C26.3689 34.3445 26.3886 34.2574 26.4246 34.1765C26.4606 34.0957 26.5123 34.0228 26.5766 33.962C26.6409 33.9012 26.7166 33.8538 26.7993 33.8224C26.8821 33.791 26.9702 33.7763 27.0586 33.7791C27.147 33.7815 27.234 33.8013 27.3147 33.8373C27.3954 33.8734 27.4682 33.925 27.5289 33.9892C27.5897 34.0535 27.6371 34.129 27.6687 34.2116C27.7002 34.2942 27.7151 34.3822 27.7125 34.4705C27.5434 40.5206 27.7834 46.0033 28.2711 47.2234C29.0322 49.1256 30.1864 50.7895 33.4496 50.0905C36.5475 49.426 37.7076 48.2515 38.2244 45.2558C38.621 42.957 39.4052 36.4171 39.5018 35.1266C39.5083 35.0384 39.5321 34.9523 39.5719 34.8733C39.6117 34.7944 39.6666 34.724 39.7337 34.6663C39.8007 34.6086 39.8784 34.5647 39.9624 34.5371C40.0464 34.5096 40.1351 34.4988 40.2233 34.5056C40.4012 34.519 40.5665 34.6026 40.6829 34.7378C40.7994 34.8731 40.8574 35.049 40.8442 35.227C40.7434 36.5706 39.963 43.0979 39.5512 45.4848C38.9412 49.0231 37.3638 50.6279 33.7319 51.4067C33.1147 51.5388 32.554 51.5978 32.0444 51.5982ZM13.2135 38.1653C12.91 38.1643 12.6086 38.1144 12.3209 38.0177C10.0651 37.265 7.91648 33.5913 5.93451 27.0974C4.42589 22.1543 3.46992 16.9948 3.38597 15.3178C3.13748 10.3465 4.41745 6.82928 7.19128 4.86461C12.6786 0.976613 21.9097 4.67899 22.2999 4.83846C22.4652 4.90598 22.5969 5.03641 22.6661 5.20105C22.7352 5.3657 22.7361 5.55106 22.6686 5.71638C22.6011 5.88169 22.4707 6.01341 22.306 6.08256C22.1414 6.15171 21.956 6.15262 21.7907 6.0851C21.7017 6.04882 12.8499 2.50253 7.96669 5.96486C5.59491 7.64646 4.50605 10.7709 4.73006 15.2508C4.80051 16.6636 5.69362 21.6991 7.22166 26.7042C8.991 32.5016 11.0046 36.1597 12.7465 36.7406C13.0199 36.8318 13.8518 37.1089 15.0411 35.6788C16.428 34.0132 17.8669 32.3915 19.3556 30.8163C19.4802 30.692 19.6485 30.6214 19.8244 30.6197C20.0003 30.6179 20.17 30.6851 20.297 30.8068C20.424 30.9286 20.4983 31.0952 20.5041 31.2711C20.5098 31.4469 20.4465 31.618 20.3276 31.7478C20.3074 31.7688 18.2828 33.8854 16.0764 36.5398C15.0314 37.7966 14.0299 38.1653 13.2135 38.1653ZM42.5039 32.4932C42.3819 32.493 42.2622 32.4597 42.1576 32.3968C42.053 32.3339 41.9676 32.2437 41.9103 32.1359C41.853 32.0282 41.8261 31.9069 41.8324 31.785C41.8387 31.6631 41.8781 31.5453 41.9462 31.444C48.2165 22.1395 50.4174 10.897 48.5325 8.4881C46.1599 5.4565 42.8098 3.87321 38.5746 3.78166C35.4388 3.71416 32.9463 4.51488 32.5388 4.65452L32.4363 4.69628C32.0266 4.82496 31.7123 4.60052 31.5938 4.33811C31.5262 4.18777 31.516 4.01789 31.565 3.86052C31.614 3.70314 31.719 3.56915 31.86 3.48382C31.8794 3.47243 31.941 3.44627 32.041 3.40957C32.7333 3.15602 35.2637 2.39664 38.3978 2.4325C43.084 2.48228 46.9551 4.28917 49.5918 7.65869C50.8393 9.25296 50.8423 12.9258 49.5998 17.736C48.3334 22.6403 45.9502 27.9108 43.062 32.1966C42.933 32.3894 42.7203 32.4932 42.5039 32.4932ZM42.8245 36.8006C41.7538 36.8006 40.794 36.6495 40.2195 36.3053C39.6288 35.9513 39.5162 35.4704 39.5014 35.2151C39.3403 32.3844 40.902 31.8916 41.6985 31.6668C41.5876 31.4988 41.4298 31.3014 41.2665 31.0976C40.8021 30.5171 40.1659 29.7223 39.6757 28.5335C39.5989 28.3479 39.3584 27.9163 39.08 27.4164C37.5701 24.7088 34.4284 19.0746 36.4466 16.1894C37.3807 14.8542 39.2407 14.3285 41.9812 14.6217C41.175 12.1656 37.3359 4.48239 28.2264 4.33305C25.4867 4.28749 23.2398 5.12997 21.5515 6.83477C17.7715 10.6523 17.9082 17.5597 17.9103 17.6289C17.9126 17.7172 17.8975 17.8052 17.8658 17.8877C17.8342 17.9702 17.7866 18.0457 17.7257 18.1099C17.6649 18.174 17.592 18.2255 17.5113 18.2615C17.4305 18.2974 17.3435 18.3171 17.2551 18.3195C17.1667 18.3218 17.0788 18.3067 16.9963 18.275C16.9137 18.2434 16.8382 18.1958 16.7741 18.1349C16.71 18.0741 16.6585 18.0012 16.6225 17.9205C16.5865 17.8397 16.5668 17.7527 16.5645 17.6643C16.5561 17.3576 16.4152 10.1089 20.5951 5.88724C22.5513 3.9116 25.1265 2.93622 28.2487 2.98727C34.0765 3.08303 37.8278 6.04586 39.9482 8.51425C42.2596 11.2045 43.3928 14.172 43.486 15.1626C43.5556 15.8992 43.027 16.0464 42.9203 16.0683L42.6773 16.0738C39.9878 15.6431 38.2624 15.9422 37.549 16.9615C36.0138 19.1556 38.9859 24.4852 40.2549 26.7612C40.5789 27.3417 40.8126 27.7615 40.9198 28.0205C41.3366 29.0313 41.8804 29.7105 42.317 30.2564C42.7013 30.7365 43.0342 31.1529 43.1532 31.6414C43.2084 31.7385 43.9927 32.8986 48.6464 31.938C49.8129 31.6976 50.5124 31.903 50.7262 32.5497C51.1469 33.8217 48.7869 35.3054 47.4803 35.9121C46.3096 36.4563 44.4412 36.8006 42.8245 36.8006ZM40.8434 35.1042C40.9911 35.2531 41.7298 35.51 43.2595 35.4442C44.6196 35.386 46.054 35.0903 46.9146 34.6908C48.0153 34.1794 48.7502 33.6078 49.1307 33.2176L48.9198 33.2564C45.9443 33.8706 43.8396 33.7888 42.6642 33.013C42.5853 32.9608 42.5092 32.9043 42.4364 32.8438C42.309 32.894 42.1913 32.9269 42.1073 32.9505C41.4408 33.1374 40.7514 33.3311 40.8434 35.1042ZM21.6219 38.8652C20.8828 38.8652 20.1049 38.7644 19.3105 38.5657C18.4874 38.3598 17.0999 37.7401 17.121 36.7221C17.145 35.5801 18.8059 35.2375 19.4311 35.1088C21.6899 34.6435 21.8371 34.457 22.5429 33.5606C22.7488 33.2994 23.0048 32.9741 23.3542 32.5843C23.8726 32.0038 24.4392 31.7098 25.0383 31.7098C25.4555 31.7098 25.7977 31.8511 26.0238 31.9452C26.7443 32.2439 27.3455 32.9661 27.5927 33.8297C27.8159 34.6089 27.7092 35.359 27.2932 35.9416C25.9276 37.854 23.9663 38.8652 21.6219 38.8652ZM18.5752 36.7799C18.7781 36.9368 19.1848 37.1465 19.6374 37.2596C20.3255 37.4317 20.9929 37.519 21.6224 37.519C23.5402 37.519 25.08 36.725 26.1984 35.159C26.4317 34.8325 26.3617 34.4178 26.2993 34.1997C26.1685 33.7428 25.8436 33.3273 25.5091 33.1885C25.3277 33.1134 25.1771 33.056 25.0387 33.056C24.9645 33.056 24.7383 33.056 24.3578 33.4817C24.0952 33.777 23.8428 34.0812 23.601 34.3938C22.7218 35.51 22.3189 35.8889 19.7032 36.4276C19.065 36.5584 18.7376 36.6917 18.5752 36.7799ZM23.7511 33.6749C23.5904 33.6746 23.4351 33.6169 23.3133 33.5121C23.1914 33.4074 23.1111 33.2625 23.0867 33.1037C23.07 32.9919 23.0587 32.8794 23.0529 32.7666C21.3384 32.7345 19.6843 31.9988 18.4283 30.6884C16.8404 29.0317 16.1177 26.7363 16.446 24.3911C16.8024 21.8442 16.6691 19.5961 16.5974 18.3882C16.5776 18.0524 16.5632 17.8098 16.5641 17.6419C16.5653 17.4289 16.5696 16.864 18.4579 15.9068C19.1295 15.5663 20.4761 14.9723 21.9472 14.82C24.3844 14.5682 25.9909 15.6536 26.4718 17.8769C27.7699 23.8794 26.5747 26.5342 25.7019 28.4732C25.5395 28.8343 25.3859 29.1752 25.2631 29.5055L25.1547 29.7966C24.6936 31.0331 24.2949 32.1013 24.4173 32.8991C24.4307 32.9864 24.4268 33.0756 24.4058 33.1614C24.3847 33.2473 24.347 33.3282 24.2947 33.3994C24.2424 33.4707 24.1765 33.531 24.1009 33.5768C24.0253 33.6226 23.9415 33.6531 23.8541 33.6664L23.7511 33.6749ZM17.9145 17.8284L17.9407 18.3089C18.0149 19.5636 18.1533 21.8982 17.7787 24.578C17.5082 26.5123 18.0989 28.4002 19.3999 29.7569C20.428 30.8293 21.781 31.4212 23.1715 31.4212H23.2002C23.3558 30.7652 23.6145 30.0725 23.8929 29.3262L24.0005 29.0368C24.1393 28.6638 24.3017 28.3027 24.4738 27.9205C25.3138 26.0541 26.3596 23.7309 25.1551 18.1617C24.9168 17.0585 24.3384 16.4202 23.3879 16.2097C21.4355 15.7785 18.5258 17.2471 17.9145 17.8284ZM21.9772 17.5428C21.9434 17.7807 22.413 18.4161 23.0255 18.5009C23.6368 18.5865 24.1599 18.0895 24.1933 17.8516C24.2266 17.6137 23.7575 17.3513 23.1449 17.266C22.5328 17.1808 22.0096 17.3049 21.9772 17.5428ZM23.166 18.735L22.9943 18.7232C22.6146 18.6705 22.2307 18.4313 21.9679 18.0828C21.8755 17.9605 21.7249 17.7234 21.7548 17.5116C21.7974 17.2011 22.1763 17.015 22.7673 17.015C22.8994 17.015 23.0369 17.0247 23.1753 17.0441C23.4984 17.0889 23.7984 17.1821 24.0199 17.3057C24.4038 17.52 24.432 17.7592 24.4147 17.8828C24.3675 18.2258 23.822 18.735 23.166 18.735ZM22.2003 17.5825C22.2193 17.7293 22.583 18.2136 23.0563 18.279L23.1664 18.2866C23.6035 18.2866 23.93 17.9427 23.9684 17.8301C23.9279 17.7533 23.6469 17.5626 23.1141 17.4884C22.9994 17.4719 22.8836 17.4636 22.7677 17.4635C22.4252 17.4635 22.2434 17.5407 22.2003 17.5825ZM40.5962 17.0572C40.6295 17.2952 40.1604 17.9305 39.5483 18.0157C38.9365 18.1009 38.413 17.6044 38.3792 17.3665C38.3472 17.1285 38.8163 16.8657 39.428 16.7809C40.0397 16.6953 40.5624 16.8197 40.5962 17.0572ZM39.4069 18.1372C38.818 18.1372 38.3096 17.6791 38.2679 17.3816C38.2193 17.0247 38.807 16.7535 39.412 16.6695C39.5453 16.651 39.6773 16.6417 39.8043 16.6417C40.3266 16.6417 40.6725 16.7948 40.7071 17.042C40.7295 17.2019 40.6067 17.4487 40.3954 17.6715C40.2557 17.8179 39.9625 18.0714 39.563 18.1267L39.4069 18.1372ZM39.8047 16.8661C39.6883 16.8661 39.5668 16.875 39.4436 16.8918C38.8357 16.9766 38.4729 17.2205 38.4906 17.3513C38.5109 17.4951 38.899 17.9132 39.4073 17.9132L39.5326 17.9043C39.8647 17.8584 40.114 17.6415 40.233 17.5166C40.4198 17.3205 40.4941 17.1357 40.4852 17.0728C40.4734 16.9893 40.249 16.8661 39.8047 16.8661ZM41.4775 30.7218C41.3555 30.7218 41.2358 30.6887 41.1313 30.626C41.0267 30.5633 40.9411 30.4733 40.8837 30.3657C40.8263 30.2581 40.7993 30.1369 40.8055 30.0151C40.8117 29.8933 40.8509 29.7755 40.9189 29.6742C42.3525 27.5332 42.09 25.35 41.8365 23.2385C41.7281 22.3391 41.6167 21.4089 41.6454 20.5162C41.6749 19.5978 41.7918 18.8401 41.9044 18.1073C42.0382 17.239 42.1647 16.4189 42.1124 15.4452C42.1076 15.357 42.1203 15.2687 42.1497 15.1853C42.179 15.1019 42.2246 15.0252 42.2836 14.9594C42.3426 14.8936 42.414 14.8401 42.4938 14.802C42.5735 14.7638 42.6599 14.7417 42.7482 14.7369C42.8364 14.7321 42.9248 14.7448 43.0081 14.7742C43.0915 14.8036 43.1682 14.8491 43.234 14.9081C43.2998 14.9671 43.3533 15.0385 43.3915 15.1183C43.4296 15.198 43.4517 15.2844 43.4565 15.3727C43.5164 16.4856 43.3734 17.4137 43.235 18.3119C43.1283 19.005 43.0177 19.7218 42.9912 20.5592C42.9654 21.3498 43.0663 22.1893 43.173 23.0778C43.443 25.323 43.7489 27.8678 42.0377 30.4231C41.9761 30.5151 41.8927 30.5905 41.795 30.6426C41.6973 30.6947 41.5882 30.7219 41.4775 30.7218Z" fill="white"/>
</svg>
