<svg width="129" height="32" viewBox="0 0 129 32" fill="none" xmlns="http://www.w3.org/2000/svg">
<path d="M1.04 24C0.826667 24 0.634667 23.9253 0.464 23.776C0.314667 23.6267 0.24 23.4347 0.24 23.2V2.4C0.24 2.16533 0.314667 1.97333 0.464 1.824C0.634667 1.67467 0.826667 1.6 1.04 1.6H4.496C4.83733 1.6 5.09333 1.696 5.264 1.888C5.456 2.05867 5.57333 2.19733 5.616 2.304L11.248 12.416L16.88 2.304C16.944 2.19733 17.0507 2.05867 17.2 1.888C17.3707 1.696 17.6373 1.6 18 1.6H21.424C21.6587 1.6 21.8507 1.67467 22 1.824C22.1707 1.97333 22.256 2.16533 22.256 2.4V23.2C22.256 23.4347 22.1707 23.6267 22 23.776C21.8507 23.9253 21.6587 24 21.424 24H17.616C17.3813 24 17.1787 23.9253 17.008 23.776C16.8587 23.6267 16.784 23.4347 16.784 23.2V11.2L13.168 17.888C13.0827 18.08 12.9547 18.2507 12.784 18.4C12.6133 18.5493 12.3787 18.624 12.08 18.624H10.416C10.1173 18.624 9.88267 18.5493 9.712 18.4C9.54133 18.2507 9.40267 18.08 9.296 17.888L5.68 11.2V23.2C5.68 23.4347 5.60533 23.6267 5.456 23.776C5.30667 23.9253 5.11467 24 4.88 24H1.04ZM31.3488 24.32C30.1968 24.32 29.1621 24.1067 28.2448 23.68C27.3488 23.232 26.6341 22.6347 26.1008 21.888C25.5674 21.1413 25.3008 20.2987 25.3008 19.36C25.3008 17.8453 25.9194 16.6507 27.1568 15.776C28.3941 14.88 30.0368 14.272 32.0848 13.952L36.0848 13.344V12.896C36.0848 12.128 35.9248 11.5413 35.6048 11.136C35.2848 10.7307 34.6981 10.528 33.8448 10.528C33.2474 10.528 32.7568 10.6453 32.3728 10.88C32.0101 11.1147 31.7221 11.4347 31.5088 11.84C31.3168 12.1173 31.0501 12.256 30.7088 12.256H27.1248C26.8901 12.256 26.7088 12.192 26.5807 12.064C26.4528 11.9147 26.3994 11.744 26.4208 11.552C26.4208 11.168 26.5594 10.7307 26.8368 10.24C27.1354 9.728 27.5834 9.22667 28.1808 8.736C28.7781 8.24533 29.5461 7.84 30.4848 7.52C31.4234 7.2 32.5541 7.04 33.8767 7.04C35.2634 7.04 36.4474 7.2 37.4288 7.52C38.4101 7.84 39.1994 8.288 39.7968 8.864C40.4154 9.44 40.8741 10.1227 41.1728 10.912C41.4714 11.68 41.6208 12.5333 41.6208 13.472V23.2C41.6208 23.4347 41.5354 23.6267 41.3647 23.776C41.2154 23.9253 41.0341 24 40.8208 24H37.1088C36.8741 24 36.6821 23.9253 36.5328 23.776C36.3834 23.6267 36.3088 23.4347 36.3088 23.2V22.08C36.0314 22.4853 35.6581 22.8587 35.1888 23.2C34.7194 23.5413 34.1648 23.808 33.5248 24C32.9061 24.2133 32.1808 24.32 31.3488 24.32ZM32.8528 20.672C33.4714 20.672 34.0261 20.544 34.5168 20.288C35.0288 20.0107 35.4234 19.5947 35.7008 19.04C35.9994 18.464 36.1488 17.7493 36.1488 16.896V16.448L33.4288 16.928C32.4261 17.0987 31.6901 17.3653 31.2208 17.728C30.7728 18.0693 30.5488 18.4747 30.5488 18.944C30.5488 19.3067 30.6554 19.616 30.8688 19.872C31.0821 20.128 31.3594 20.3307 31.7008 20.48C32.0421 20.608 32.4261 20.672 32.8528 20.672ZM53.3918 31.04C51.7491 31.04 50.3838 30.8267 49.2958 30.4C48.2291 29.9733 47.3758 29.4613 46.7358 28.864C46.1171 28.2667 45.6691 27.6693 45.3918 27.072C45.1144 26.496 44.9651 26.0373 44.9438 25.696C44.9224 25.4613 44.9971 25.2693 45.1678 25.12C45.3384 24.9707 45.5411 24.896 45.7758 24.896H49.8398C50.0318 24.896 50.1918 24.9387 50.3198 25.024C50.4691 25.1307 50.5864 25.3013 50.6718 25.536C50.7784 25.7707 50.9171 26.016 51.0878 26.272C51.2798 26.528 51.5358 26.7307 51.8558 26.88C52.1971 27.0507 52.6558 27.136 53.2318 27.136C53.8718 27.136 54.4051 27.0293 54.8318 26.816C55.2584 26.624 55.5784 26.2933 55.7918 25.824C56.0051 25.376 56.1118 24.768 56.1118 24V21.856C55.6211 22.3893 54.9918 22.8267 54.2238 23.168C53.4558 23.488 52.5278 23.648 51.4398 23.648C50.3518 23.648 49.3918 23.488 48.5598 23.168C47.7278 22.848 47.0344 22.368 46.4798 21.728C45.9251 21.088 45.4878 20.3093 45.1678 19.392C44.8691 18.4747 44.6878 17.4187 44.6238 16.224C44.6024 15.6693 44.6024 15.1147 44.6238 14.56C44.6878 13.408 44.8691 12.3733 45.1678 11.456C45.4664 10.5387 45.8931 9.74933 46.4478 9.088C47.0238 8.42667 47.7278 7.92533 48.5598 7.584C49.3918 7.22133 50.3518 7.04 51.4398 7.04C52.5918 7.04 53.5731 7.264 54.3838 7.712C55.2158 8.13867 55.8984 8.68267 56.4318 9.344V8.16C56.4318 7.94667 56.5064 7.76533 56.6558 7.616C56.8051 7.44533 56.9971 7.36 57.2318 7.36H60.9118C61.1464 7.36 61.3384 7.44533 61.4878 7.616C61.6584 7.76533 61.7438 7.94667 61.7438 8.16V23.552C61.7438 25.1733 61.4131 26.5387 60.7518 27.648C60.0904 28.7573 59.1411 29.6 57.9038 30.176C56.6664 30.752 55.1624 31.04 53.3918 31.04ZM53.1678 19.488C53.8504 19.488 54.4051 19.3387 54.8318 19.04C55.2584 18.7413 55.5678 18.3573 55.7598 17.888C55.9731 17.4187 56.0904 16.9173 56.1118 16.384C56.1331 16.1493 56.1438 15.8187 56.1438 15.392C56.1438 14.9653 56.1331 14.6453 56.1118 14.432C56.0904 13.8773 55.9731 13.3653 55.7598 12.896C55.5678 12.4267 55.2584 12.0533 54.8318 11.776C54.4051 11.4773 53.8504 11.328 53.1678 11.328C52.4638 11.328 51.8984 11.4773 51.4718 11.776C51.0664 12.0747 50.7678 12.48 50.5758 12.992C50.4051 13.504 50.2984 14.0693 50.2558 14.688C50.2344 15.1573 50.2344 15.6373 50.2558 16.128C50.2984 16.7467 50.4051 17.312 50.5758 17.824C50.7678 18.336 51.0664 18.7413 51.4718 19.04C51.8984 19.3387 52.4638 19.488 53.1678 19.488ZM66.313 24C66.0783 24 65.8863 23.9253 65.737 23.776C65.5877 23.6267 65.513 23.4347 65.513 23.2V8.16C65.513 7.92533 65.5877 7.73333 65.737 7.584C65.8863 7.43467 66.0783 7.36 66.313 7.36H70.089C70.3023 7.36 70.4837 7.43467 70.633 7.584C70.8037 7.73333 70.889 7.92533 70.889 8.16V23.2C70.889 23.4347 70.8037 23.6267 70.633 23.776C70.4837 23.9253 70.3023 24 70.089 24H66.313ZM66.281 4.96C66.0463 4.96 65.8543 4.88533 65.705 4.736C65.5557 4.58667 65.481 4.39467 65.481 4.16V1.312C65.481 1.07733 65.5557 0.885332 65.705 0.735998C65.8543 0.565332 66.0463 0.48 66.281 0.48H70.089C70.3237 0.48 70.5157 0.565332 70.665 0.735998C70.8357 0.885332 70.921 1.07733 70.921 1.312V4.16C70.921 4.39467 70.8357 4.58667 70.665 4.736C70.5157 4.88533 70.3237 4.96 70.089 4.96H66.281ZM82.4423 24.32C80.8636 24.32 79.4663 24.032 78.2503 23.456C77.0343 22.88 76.0636 22.048 75.3383 20.96C74.6343 19.8507 74.2503 18.528 74.1863 16.992C74.1649 16.6507 74.1543 16.224 74.1543 15.712C74.1543 15.1787 74.1649 14.7413 74.1863 14.4C74.2503 12.8427 74.6343 11.52 75.3383 10.432C76.0423 9.32267 77.0023 8.48 78.2183 7.904C79.4556 7.328 80.8636 7.04 82.4423 7.04C83.9143 7.04 85.1729 7.25333 86.2183 7.68C87.2636 8.08533 88.1169 8.59733 88.7783 9.216C89.4396 9.83467 89.9303 10.4747 90.2503 11.136C90.5916 11.776 90.7729 12.3413 90.7943 12.832C90.8156 13.0453 90.7409 13.2373 90.5703 13.408C90.3996 13.5573 90.2076 13.632 89.9943 13.632H85.9303C85.6956 13.632 85.5143 13.5787 85.3863 13.472C85.2583 13.3653 85.1409 13.2053 85.0343 12.992C84.7783 12.3307 84.4476 11.8613 84.0423 11.584C83.6583 11.3067 83.1569 11.168 82.5383 11.168C81.6849 11.168 81.0236 11.4453 80.5543 12C80.1063 12.5547 79.8609 13.408 79.8183 14.56C79.7969 15.4133 79.7969 16.1707 79.8183 16.832C79.8609 18.0053 80.1063 18.8587 80.5543 19.392C81.0236 19.9253 81.6849 20.192 82.5383 20.192C83.1996 20.192 83.7223 20.0533 84.1063 19.776C84.4903 19.4987 84.7996 19.0293 85.0343 18.368C85.1409 18.1547 85.2583 17.9947 85.3863 17.888C85.5143 17.7813 85.6956 17.728 85.9303 17.728H89.9943C90.2076 17.728 90.3996 17.8133 90.5703 17.984C90.7409 18.1333 90.8156 18.3147 90.7943 18.528C90.7729 18.8907 90.6663 19.3173 90.4743 19.808C90.2823 20.2773 89.9836 20.7787 89.5783 21.312C89.1729 21.8453 88.6396 22.3467 87.9783 22.816C87.3383 23.264 86.5596 23.6267 85.6423 23.904C84.7249 24.1813 83.6583 24.32 82.4423 24.32ZM94.4053 16.704C94.1706 16.704 93.9786 16.6293 93.8293 16.48C93.6799 16.3307 93.6053 16.1387 93.6053 15.904V12.896C93.6053 12.6613 93.6799 12.4693 93.8293 12.32C93.9786 12.1707 94.1706 12.096 94.4053 12.096H104.421C104.656 12.096 104.848 12.1707 104.997 12.32C105.147 12.4693 105.221 12.6613 105.221 12.896V15.904C105.221 16.1387 105.147 16.3307 104.997 16.48C104.848 16.6293 104.656 16.704 104.421 16.704H94.4053ZM109.978 24C109.743 24 109.551 23.9253 109.402 23.776C109.252 23.6267 109.178 23.4347 109.178 23.2V2.4C109.178 2.16533 109.252 1.97333 109.402 1.824C109.551 1.67467 109.743 1.6 109.978 1.6H119.738C121.572 1.6 123.076 1.856 124.25 2.368C125.423 2.88 126.287 3.616 126.842 4.576C127.418 5.51467 127.706 6.63467 127.706 7.936C127.706 8.704 127.556 9.38667 127.258 9.984C126.98 10.56 126.628 11.04 126.202 11.424C125.796 11.808 125.412 12.0853 125.05 12.256C125.86 12.64 126.575 13.2693 127.194 14.144C127.834 15.0187 128.154 16.0427 128.154 17.216C128.154 18.624 127.834 19.84 127.194 20.864C126.575 21.8667 125.658 22.6453 124.442 23.2C123.247 23.7333 121.775 24 120.026 24H109.978ZM114.906 19.84H119.386C120.303 19.84 120.996 19.5733 121.466 19.04C121.935 18.5067 122.17 17.8987 122.17 17.216C122.17 16.4693 121.924 15.84 121.434 15.328C120.964 14.816 120.282 14.56 119.386 14.56H114.906V19.84ZM114.906 10.496H119.098C119.972 10.496 120.623 10.272 121.05 9.824C121.498 9.376 121.722 8.8 121.722 8.096C121.722 7.41333 121.498 6.85867 121.05 6.432C120.623 5.984 119.972 5.76 119.098 5.76H114.906V10.496Z" fill="url(#paint0_linear_2_4)"/>
<defs>
  <linearGradient id="paint0_linear_2_4" x1="5.99999" y1="-21" x2="130" y2="46" gradientUnits="userSpaceOnUse">
    <stop stop-color="#DDD12E"/>
    <stop offset="1" stop-color="#86B91A"/>
  </linearGradient>
</defs>
</svg>
