<svg width="18" height="18" viewBox="0 0 18 18" fill="none" xmlns="http://www.w3.org/2000/svg">
  <path d="M9.75 6.75H13.875L9.75 2.625V6.75ZM4.5 1.5H10.5L15 6V15C15 15.3978 14.842 15.7794 14.5607 16.0607C14.2794 16.342 13.8978 16.5 13.5 16.5H4.5C4.10218 16.5 3.72064 16.342 3.43934 16.0607C3.15804 15.7794 3 15.3978 3 15V3C3 2.1675 3.6675 1.5 4.5 1.5ZM10.5 15V14.25C10.5 13.2525 8.4975 12.75 7.5 12.75C6.5025 12.75 4.5 13.2525 4.5 14.25V15H10.5ZM7.5 9C7.10218 9 6.72064 9.15804 6.43934 9.43934C6.15804 9.72064 6 10.1022 6 10.5C6 10.8978 6.15804 11.2794 6.43934 11.5607C6.72064 11.842 7.10218 12 7.5 12C7.89782 12 8.27936 11.842 8.56066 11.5607C8.84196 11.2794 9 10.8978 9 10.5C9 10.1022 8.84196 9.72064 8.56066 9.43934C8.27936 9.15804 7.89782 9 7.5 9Z" fill="white"/>
</svg>
