<svg width="32" height="32" viewBox="0 0 32 32" fill="none" xmlns="http://www.w3.org/2000/svg">
  <path d="M2.66666 6.13333V12.5333C2.66666 13.7333 3.33332 14.6667 4.26666 14.6667H27.8667C28.6667 14.6667 29.4667 13.7333 29.4667 12.5333V6.13333C29.3333 4.93333 28.6667 4 27.7333 4H4.26666C3.33332 4 2.66666 4.93333 2.66666 6.13333ZM13.3333 10.6667V8H12V10.6667H13.3333ZM6.66666 10.6667H9.33332V8H6.66666V10.6667ZM26.6667 12H5.33332V6.66667H26.6667V12ZM2.66666 19.4667V25.8667C2.66666 27.0667 3.33332 28 4.26666 28H27.8667C28.6667 28 29.4667 27.0667 29.4667 25.8667V19.4667C29.4667 18.2667 28.8 17.3333 27.8667 17.3333H4.26666C3.33332 17.3333 2.66666 18.2667 2.66666 19.4667ZM13.3333 24V21.3333H12V24H13.3333ZM6.66666 24H9.33332V21.3333H6.66666V24ZM26.6667 25.3333H5.33332V20H26.6667V25.3333Z" fill="#86B91A"/>
</svg>
