<svg width="32" height="32" viewBox="0 0 32 32" fill="none" xmlns="http://www.w3.org/2000/svg">
  <path d="M2.66667 28C2.28889 28 1.972 27.872 1.716 27.616C1.46 27.36 1.33244 27.0436 1.33333 26.6667C1.33333 26.2889 1.46133 25.972 1.71733 25.716C1.97333 25.46 2.28978 25.3324 2.66667 25.3333H29.3333C29.7111 25.3333 30.028 25.4613 30.284 25.7173C30.54 25.9733 30.6676 26.2898 30.6667 26.6667C30.6667 27.0444 30.5387 27.3613 30.2827 27.6173C30.0267 27.8733 29.7102 28.0009 29.3333 28H2.66667ZM5.33333 24C4.6 24 3.972 23.7387 3.44933 23.216C2.92667 22.6933 2.66578 22.0658 2.66667 21.3333V6.66667C2.66667 5.93334 2.928 5.30534 3.45067 4.78267C3.97333 4.26 4.60089 3.99911 5.33333 4H26.6667C27.4 4 28.028 4.26134 28.5507 4.784C29.0733 5.30667 29.3342 5.93422 29.3333 6.66667V21.3333C29.3333 22.0667 29.072 22.6947 28.5493 23.2173C28.0267 23.74 27.3991 24.0009 26.6667 24H5.33333ZM5.33333 21.3333H26.6667V6.66667H5.33333V21.3333Z" fill="#86B91A"/>
</svg>
