<svg display="none" xmlns="http://www.w3.org/2000/svg">
  <symbol fill="#86B91A" viewBox="0 0 32 32" id="frontend">
    <path d="M2.66667 28C2.28889 28 1.972 27.872 1.716 27.616C1.46 27.36 1.33244 27.0436 1.33333 26.6667C1.33333 26.2889 1.46133 25.972 1.71733 25.716C1.97333 25.46 2.28978 25.3324 2.66667 25.3333H29.3333C29.7111 25.3333 30.028 25.4613 30.284 25.7173C30.54 25.9733 30.6676 26.2898 30.6667 26.6667C30.6667 27.0444 30.5387 27.3613 30.2827 27.6173C30.0267 27.8733 29.7102 28.0009 29.3333 28H2.66667ZM5.33333 24C4.6 24 3.972 23.7387 3.44933 23.216C2.92667 22.6933 2.66578 22.0658 2.66667 21.3333V6.66667C2.66667 5.93334 2.928 5.30534 3.45067 4.78267C3.97333 4.26 4.60089 3.99911 5.33333 4H26.6667C27.4 4 28.028 4.26134 28.5507 4.784C29.0733 5.30667 29.3342 5.93422 29.3333 6.66667V21.3333C29.3333 22.0667 29.072 22.6947 28.5493 23.2173C28.0267 23.74 27.3991 24.0009 26.6667 24H5.33333ZM5.33333 21.3333H26.6667V6.66667H5.33333V21.3333Z"/>
  </symbol>

  <symbol fill="#86B91A" viewBox="0 0 32 32" id="backend">
    <path d="M2.66666 6.13333V12.5333C2.66666 13.7333 3.33332 14.6667 4.26666 14.6667H27.8667C28.6667 14.6667 29.4667 13.7333 29.4667 12.5333V6.13333C29.3333 4.93333 28.6667 4 27.7333 4H4.26666C3.33332 4 2.66666 4.93333 2.66666 6.13333ZM13.3333 10.6667V8H12V10.6667H13.3333ZM6.66666 10.6667H9.33332V8H6.66666V10.6667ZM26.6667 12H5.33332V6.66667H26.6667V12ZM2.66666 19.4667V25.8667C2.66666 27.0667 3.33332 28 4.26666 28H27.8667C28.6667 28 29.4667 27.0667 29.4667 25.8667V19.4667C29.4667 18.2667 28.8 17.3333 27.8667 17.3333H4.26666C3.33332 17.3333 2.66666 18.2667 2.66666 19.4667ZM13.3333 24V21.3333H12V24H13.3333ZM6.66666 24H9.33332V21.3333H6.66666V24ZM26.6667 25.3333H5.33332V20H26.6667V25.3333Z" fill="#86B91A"/>
  </symbol>

  <symbol fill="#1572B6" viewBox="0 0 54 54" id="css">
    <path d="M3 0L7.27756 48.5855L26.4715 54L45.719 48.5657L50 0H3ZM41.1135 11.1312L39.6896 27.3166L39.6939 27.4039L39.6879 27.6049V27.6032L38.6763 38.9203L38.5648 39.9257L26.5 43.3018L26.4906 43.3104L14.4467 39.9154L13.6312 30.5588H19.5372L19.9562 35.3165L26.5017 37.1113L26.5 37.1148V37.1139L33.0697 35.2937L33.764 27.546H20.0303L19.9124 26.2362L19.644 23.1679L19.5032 21.5203H34.286L34.8237 15.4946H12.3081L12.1903 14.1857L11.9223 11.1165L11.781 9.46893H41.2543L41.1135 11.1312Z"></path>
  </symbol>

  <symbol fill="none" viewBox="0 0 54 54" id="html">
    <path d="M26.5 43.6806L39.0767 40.2894L40.7726 21.9888H18.4041L17.8488 15.903H41.3307L41.9486 9.9333H11.0514L12.7827 27.9639H34.0705L33.36 35.7021L26.5 37.503L19.64 35.7021L19.2099 30.7233H13.0304L13.9261 40.2921L26.5 43.6806ZM2 0H51L46.5818 48.6L26.5 54L6.41817 48.6L2 0Z" fill="#E44D26"></path>
  </symbol>

  <symbol fill="none" viewBox="0 0 54 54" id="js">
    <g clip-path="url(#clip0_5_35)">
      <path d="M0 0V54H54V0H0ZM29.3868 42.1164C29.3868 47.3724 26.3052 49.7628 21.8088 49.7628C17.7516 49.7628 15.3954 47.6604 14.1984 45.126L18.3312 42.624C19.1286 44.0208 19.854 45.216 21.5928 45.216C23.2596 45.216 24.3108 44.5806 24.3108 42.03V24.786H29.3868V42.1164ZM41.3856 49.7628C36.6732 49.7628 33.6276 47.5164 32.1426 44.5788L36.2736 42.1902C37.3608 43.9506 38.7756 45.2682 41.2776 45.2682C43.3782 45.2682 44.703 44.217 44.703 42.7554C44.703 41.0166 43.3242 40.3974 41.0058 39.3984L39.7458 38.8404C36.0846 37.2834 33.6564 35.325 33.6564 31.1904C33.6564 27.387 36.5436 24.4854 41.0868 24.4854C44.3124 24.4854 46.6308 25.6104 48.3012 28.5426L44.3592 31.0716C43.4952 29.5236 42.5484 28.8936 41.0976 28.8936C39.6144 28.8936 38.664 29.8332 38.664 31.0716C38.664 32.6052 39.6 33.21 41.778 34.1496L43.0434 34.7076C47.358 36.5436 49.788 38.4336 49.788 42.6816C49.8006 47.2608 46.2132 49.7556 41.391 49.7556L41.3856 49.7628Z" fill="#F0DB4F"></path>
    </g>
    <defs>
      <clipPath id="clip0_5_35">
        <rect width="54" height="54" fill="white"></rect>
      </clipPath>
    </defs>
  </symbol>

  <symbol fill="none" viewBox="0 0 54 54" id="git">
    <g clip-path="url(#clip0_5_77)">
      <path d="M52.6234 24.6282L29.3714 1.37702C28.0332 0.0379839 25.8614 0.0379839 24.5211 1.37702L19.6931 6.2058L25.8179 12.3306C27.2417 11.8501 28.8736 12.1724 30.008 13.3068C31.1483 14.4484 31.4681 16.0941 30.9758 17.5226L36.8786 23.4259C38.3067 22.9336 39.9549 23.2517 41.0949 24.3941C42.6895 25.9875 42.6895 28.5707 41.0949 30.1649C40.7159 30.5441 40.2659 30.8448 39.7707 31.05C39.2755 31.2552 38.7447 31.3609 38.2086 31.3609C37.6725 31.3609 37.1417 31.2552 36.6465 31.05C36.1513 30.8448 35.7013 30.5441 35.3223 30.1649C34.753 29.5952 34.3649 28.8698 34.2068 28.08C34.0488 27.2902 34.128 26.4713 34.4343 25.7264L28.9297 20.2217L28.9288 34.7094C29.3282 34.906 29.6928 35.1665 30.0084 35.4805C31.6022 37.074 31.6022 39.6563 30.0084 41.2531C28.4141 42.8465 25.8301 42.8465 24.2376 41.2531C22.6437 39.6567 22.6437 37.0744 24.2376 35.4805C24.6194 35.0981 25.0736 34.7955 25.5736 34.5904V19.9686C25.0732 19.7641 24.6189 19.4613 24.2376 19.078C23.0302 17.8715 22.7395 16.0996 23.3588 14.6163L17.3205 8.578L1.37701 24.5207C0.73378 25.1641 0.372437 26.0366 0.372437 26.9464C0.372437 27.8562 0.73378 28.7288 1.37701 29.3722L24.6295 52.6234C25.9685 53.9625 28.1395 53.9625 29.4806 52.6234L52.6239 29.4802C53.2669 28.8366 53.6282 27.964 53.6281 27.0541C53.628 26.1443 53.2666 25.2717 52.6234 24.6282Z" fill="#F34F29"></path>
    </g>
    <defs>
      <clipPath id="clip0_5_77">
        <rect width="54" height="54" fill="white"></rect>
      </clipPath>
    </defs>
  </symbol>

  <symbol fill="none" viewBox="0 0 54 54" id="nuxt">
    <path d="M29.8823 42.1875H47.4474C48.0065 42.1849 48.555 42.0355 49.0381 41.7541C49.5211 41.4727 49.9217 41.0693 50.1998 40.5844C50.479 40.0962 50.6259 39.5436 50.6259 38.9812C50.6259 38.4189 50.479 37.8662 50.1998 37.3781L38.4008 16.767C38.1264 16.2784 37.7269 15.8717 37.2434 15.5887C36.7598 15.3057 36.2096 15.1565 35.6493 15.1565C35.089 15.1565 34.5388 15.3057 34.0552 15.5887C33.5716 15.8717 33.1722 16.2784 32.8978 16.767L29.8806 22.0404L23.9844 11.7281C23.7099 11.2396 23.3102 10.833 22.8265 10.55C22.3428 10.267 21.7925 10.1179 21.2321 10.1179C20.6717 10.1179 20.1214 10.267 19.6378 10.55C19.1541 10.833 18.7544 11.2396 18.4798 11.7281L3.79856 37.3781C3.37827 38.1146 3.2648 38.9869 3.4827 39.8064C3.7006 40.6259 4.23235 41.3267 4.96294 41.7572C5.44556 42.039 5.99231 42.1875 6.55088 42.1875H17.577C21.9459 42.1875 25.1674 40.2519 27.3831 36.4753L32.7662 27.0725L35.6484 22.0404L44.3003 37.1554H32.7662L29.8823 42.1875ZM17.3981 37.1503L9.70313 37.1486L21.2389 16.9965L26.9933 27.0709L23.1407 33.8074C21.6675 36.2576 19.9952 37.1503 17.3981 37.1503Z" fill="#00DC82"></path>
  </symbol>

  <symbol fill="none" viewBox="0 0 54 54" id="pug">
    <path d="M43.0549 21.6776C42.9671 20.0947 43.4076 18.5979 42.7022 17.3677C40.9421 14.2881 36.5445 12.5297 27.7459 12.5297V12.4402V12.528C18.0681 12.528 13.9337 14.2881 12.1753 17.3661C11.5775 18.7208 11.3064 20.1971 11.3839 21.6759C11.0591 23.0292 10.911 24.4189 10.9434 25.8103C11.2067 27.7459 11.3839 29.6814 11.6471 31.4398C11.9104 32.9349 14.0231 34.0791 14.2864 35.4898C14.8146 39.2732 18.1575 41.0316 27.8336 41.0316V41.472H27.6649V41.0316C36.4618 41.0316 40.1524 39.2715 40.6856 35.4898C40.8544 34.0824 42.6212 32.9383 42.8794 31.4398C43.1426 29.6797 43.2321 27.7442 43.4953 25.8103C43.4934 24.4211 43.3458 23.036 43.0549 21.6776Z" fill="#EFCCA3"></path>
    <path d="M27.3071 23.085C28.7464 23.2166 30.075 23.9125 31.0028 25.0206C32.2346 26.077 34.2579 26.7806 35.1371 27.7476C36.2076 28.6351 37.0269 29.7877 37.5131 31.0905C37.8495 32.324 38.027 33.5954 38.0413 34.8739C38.0413 35.3143 38.3046 35.2266 39.0083 34.8739C40.4021 34.0232 41.6499 32.9537 42.7039 31.7065C42.4406 33.2016 40.5928 34.5212 40.4173 35.9252C39.8891 39.7086 36.1986 41.5547 27.1333 41.5547H27.6615" fill="#CCAC8D"></path>
    <path d="M32.9383 20.0948C33.291 21.2389 34.4334 25.1978 32.1469 23.8781C32.981 24.5334 33.5445 25.473 33.7298 26.5174C33.8402 27.0774 34.1037 27.5959 34.491 28.0153C34.8782 28.4347 35.374 28.7386 35.9235 28.8934C37.443 29.1187 38.9903 28.7394 40.2334 27.837C40.9629 27.1379 41.463 26.2337 41.6673 25.2441C41.8716 24.2545 41.7705 23.2262 41.3775 22.2953C41.1099 21.5373 40.6253 20.8747 39.9842 20.3899C39.343 19.905 38.5735 19.6193 37.7713 19.5683C36.1125 19.1261 32.5856 18.7751 32.9383 20.0948Z" fill="#CCAC8D"></path>
    <path d="M37.4254 27.5721C39.2232 27.5721 40.6806 26.1147 40.6806 24.3169C40.6806 22.5191 39.2232 21.0617 37.4254 21.0617C35.6276 21.0617 34.1702 22.5191 34.1702 24.3169C34.1702 26.1147 35.6276 27.5721 37.4254 27.5721Z" fill="black"></path>
    <path d="M36.5445 23.7009C37.0301 23.7009 37.4237 23.3073 37.4237 22.8218C37.4237 22.3362 37.0301 21.9426 36.5445 21.9426C36.0589 21.9426 35.6653 22.3362 35.6653 22.8218C35.6653 23.3073 36.0589 23.7009 36.5445 23.7009Z" fill="white"></path>
    <path d="M32.4101 24.1414C34.0653 25.3026 35.5981 26.629 36.9849 28.1002C38.5678 30.1252 38.5678 30.4762 38.5678 30.4762L37.4237 31.0044C36.5684 29.3353 35.3332 27.8903 33.8175 26.7857C31.7925 25.6415 31.5309 24.6746 31.5309 24.6746L32.4101 24.1414Z" fill="#EFCCA3"></path>
    <path d="M27.3966 23.085C25.8814 23.2128 24.469 23.9033 23.4377 25.0206C22.2058 26.077 20.007 26.7806 19.2189 27.7476C18.1215 28.6292 17.2724 29.7813 16.7552 31.0905C16.4188 32.324 16.2413 33.5954 16.227 34.8739C16.227 35.3143 16.3147 35.4021 15.1706 34.8739C13.7564 34.0516 12.504 32.9782 11.475 31.7065C11.7382 33.2016 13.5861 34.5212 13.7616 35.9252C14.2897 39.6208 17.9803 41.467 27.0456 41.467H27.6615" fill="#CCAC8D"></path>
    <path d="M35.8408 29.1549C34.8314 27.8159 33.5307 26.7239 32.0371 25.9617C30.5434 25.1996 28.896 24.7871 27.2194 24.7556C25.5448 24.7976 23.901 25.2147 22.409 25.976C20.9169 26.7374 19.6146 27.8237 18.5979 29.1549C17.9208 29.86 17.4109 30.7085 17.1063 31.6374C16.8016 32.5664 16.7099 33.552 16.8379 34.5212C16.8379 42.3512 19.5649 39.9752 21.4127 40.9438C23.2529 41.5578 25.2101 41.7386 27.1316 41.472C29.0531 41.7426 31.0112 41.5618 32.8506 40.9438C34.6984 39.9769 37.4254 42.3512 37.4254 34.5212C37.6435 33.5659 37.6124 32.5706 37.3349 31.6308C37.0574 30.6911 36.5429 29.8385 35.8408 29.1549Z" fill="#56332B"></path>
    <path d="M27.0439 26.9561C26.9775 28.4221 26.7113 29.8721 26.2524 31.266L27.2194 31.0027L27.0439 26.9561Z" fill="#442823"></path>
    <path d="M27.3071 26.9561C27.3735 28.4221 27.6397 29.8721 28.0986 31.266L27.1316 31.0027L27.3071 26.9561Z" fill="#442823"></path>
    <path d="M24.2291 26.077C23.8764 25.1978 25.1961 23.7904 27.3088 23.7904C29.4216 23.7904 30.7395 25.1978 30.3885 26.077C30.0375 26.9562 28.6284 27.2211 27.3088 27.2211C25.8998 27.2194 24.5801 26.9562 24.2291 26.077Z" fill="#56332B"></path>
    <path d="M27.3071 26.9561C27.3071 26.7874 28.539 26.7874 29.2427 26.3402C29.2427 26.3402 27.8353 26.7806 27.5704 26.6034C27.3884 26.4424 27.2645 26.2259 27.2177 25.9875C27.1709 26.2259 27.047 26.4424 26.865 26.6034C26.6018 26.7722 25.0172 26.3402 25.0172 26.3402C25.7072 26.4926 26.3842 26.6985 27.0422 26.9561V27.6598C26.9871 28.8061 27.0436 29.9551 27.2109 31.0905C27.4742 31.4432 27.3797 28.6267 27.3797 27.6598C27.3176 27.4307 27.2931 27.1931 27.3071 26.9561Z" fill="black"></path>
    <path d="M27.3071 31.9697C28.3015 32.1023 29.2428 32.4972 30.0341 33.1138C29.3461 32.2221 28.3903 31.5745 27.3071 31.266C26.0649 31.5356 24.9672 32.2573 24.2274 33.291C25.0947 32.5459 26.1696 32.0847 27.3071 31.9697Z" fill="#7F4A41"></path>
    <path d="M27.1316 38.475C25.7516 38.3988 24.3888 38.1325 23.0816 37.6835C22.8184 37.5958 22.5534 37.7713 22.2902 37.6835C20.1642 37.0812 18.2849 35.8182 16.9239 34.0774V34.43C16.9239 42.26 19.6509 39.884 21.4987 40.8527C23.339 41.4667 25.2961 41.6474 27.2177 41.3809C29.1391 41.6515 31.0972 41.4707 32.9366 40.8527C34.7844 39.8857 37.5114 42.26 37.5114 34.43V33.6386C36.2093 35.551 34.2832 36.9517 32.0625 37.6009C31.7992 37.6886 31.3588 37.5131 31.0956 37.5131C29.8395 38.0597 28.4985 38.3851 27.1316 38.475Z" fill="#442823"></path>
    <path d="M23.5254 34.2562C23.5254 34.2562 22.5585 37.071 23.2622 38.3062L22.383 37.9535C22.6716 36.6945 23.0535 35.4586 23.5254 34.2562ZM30.915 34.2562C30.915 34.2562 31.8819 37.071 31.1782 38.3062L32.0625 37.9535C31.8145 36.6833 31.4298 35.4437 30.915 34.2562Z" fill="#442823"></path>
    <path d="M21.2372 20.0948C20.8845 21.2389 19.7421 25.1978 22.0286 23.8781C21.1945 24.5334 20.631 25.473 20.4457 26.5174C20.3352 27.0774 20.0718 27.5959 19.6845 28.0153C19.2973 28.4347 18.8015 28.7386 18.252 28.8934C16.7312 29.1224 15.1812 28.7455 13.9354 27.8438C13.2058 27.1446 12.7058 26.2404 12.5015 25.2508C12.2972 24.2612 12.3982 23.2329 12.7912 22.302C13.0589 21.544 13.5434 20.8815 14.1846 20.3966C14.8257 19.9118 15.5952 19.6261 16.3974 19.575C18.0714 19.1261 21.5899 18.7751 21.2372 20.0948Z" fill="#CCAC8D"></path>
    <path d="M27.2194 31.266C28.3098 31.573 29.2847 32.1965 30.0206 33.0578C30.7566 33.919 31.2205 34.9791 31.3537 36.1041V35.9353C31.326 34.7669 30.9016 33.6427 30.1502 32.7475C29.3989 31.8523 28.3653 31.2394 27.2194 31.0095C26.0663 31.2245 25.0237 31.8332 24.2696 32.7316C23.5155 33.6301 23.0968 34.7625 23.085 35.9353V36.1041C23.2329 34.9844 23.7021 33.9315 24.4358 33.0729C25.1696 32.2143 26.1364 31.5867 27.2194 31.266Z" fill="black"></path>
    <path d="M28.0532 26.0564C28.194 26.0201 28.2491 25.7617 28.1762 25.4792C28.1034 25.1968 27.9302 24.9972 27.7894 25.0335C27.6486 25.0698 27.5936 25.3282 27.6664 25.6107C27.7392 25.8932 27.9124 26.0927 28.0532 26.0564Z" fill="#331712"></path>
    <path d="M26.5928 25.6385C26.6792 25.3599 26.6367 25.0991 26.4979 25.056C26.359 25.0129 26.1764 25.2039 26.0899 25.4825C26.0035 25.7611 26.046 26.0219 26.1849 26.0649C26.3237 26.108 26.5064 25.9171 26.5928 25.6385Z" fill="#331712"></path>
    <path d="M16.9273 27.5721C18.7251 27.5721 20.1825 26.1147 20.1825 24.3169C20.1825 22.5191 18.7251 21.0617 16.9273 21.0617C15.1295 21.0617 13.6721 22.5191 13.6721 24.3169C13.6721 26.1147 15.1295 27.5721 16.9273 27.5721Z" fill="black"></path>
    <path d="M17.8065 23.7009C18.2921 23.7009 18.6857 23.3073 18.6857 22.8218C18.6857 22.3362 18.2921 21.9426 17.8065 21.9426C17.3209 21.9426 16.9273 22.3362 16.9273 22.8218C16.9273 23.3073 17.3209 23.7009 17.8065 23.7009Z" fill="white"></path>
    <path d="M28.1812 24.3169C28.1812 24.3169 27.3021 24.6696 27.1249 24.7573C26.7543 24.6593 26.3989 24.5112 26.0685 24.3169H28.1812Z" fill="#7F4A41"></path>
    <path d="M21.7687 24.1414C20.1136 25.3026 18.5808 26.629 17.1939 28.1002C15.6111 30.1252 15.6111 30.4762 15.6111 30.4762L16.7552 31.0044C17.6105 29.3353 18.8457 27.8903 20.3614 26.7857C22.3864 25.6415 22.6479 24.6746 22.6479 24.6746L21.7687 24.1414Z" fill="#EFCCA3"></path>
    <path d="M15.3427 18.2469C14.7297 19.87 13.5814 21.2356 12.0876 22.1181C13.0206 22.0075 13.8764 21.5457 14.4811 20.8266C15.0858 20.1075 15.3939 19.1851 15.3427 18.2469ZM38.6572 18.2469C39.2703 19.87 40.4186 21.2356 41.9124 22.1181C40.9794 22.0075 40.1236 21.5457 39.5189 20.8266C38.9142 20.1075 38.6061 19.1851 38.6572 18.2469ZM32.5856 23.3482C31.1715 21.9955 29.343 21.1584 27.3949 20.9722H27.6581C26.6838 20.9605 25.7194 21.1679 24.8361 21.5792C23.9528 21.9905 23.1733 22.5951 22.5551 23.3482C24.007 22.1992 25.8066 21.5785 27.6581 21.5882C29.4302 21.7156 31.1339 22.3241 32.5856 23.3482ZM29.9464 18.5102C29.3025 17.6632 28.3575 17.0965 27.3071 16.9273H27.5704C27.0438 16.9451 26.5312 17.1007 26.0835 17.3784C25.6358 17.6561 25.2687 18.0464 25.0189 18.5102C25.6864 17.8089 26.6027 17.398 27.5704 17.3661C28.025 17.3768 28.4721 17.4843 28.8819 17.6816C29.2916 17.8789 29.6545 18.1614 29.9464 18.5102ZM16.9273 29.9464C16.0053 30.4214 14.9426 30.5466 13.9354 30.2991H13.5844C12.8878 29.5814 12.3749 28.706 12.0892 27.7476C12.4547 28.6687 13.1628 29.4123 14.065 29.8224C14.9671 30.2324 15.9931 30.2768 16.9273 29.9464ZM37.3376 29.9464C38.2596 30.4214 39.3224 30.5466 40.3296 30.2991H39.9769C40.4944 30.0917 40.9427 29.742 41.2697 29.2905C41.5967 28.8389 41.7891 28.304 41.8247 27.7476C41.6894 28.1967 41.463 28.613 41.1595 28.9706C40.8559 29.3281 40.4819 29.6192 40.0607 29.8256C39.6395 30.032 39.1803 30.1492 38.7118 30.17C38.2432 30.1908 37.7754 30.1147 37.3376 29.9464Z" fill="#CCAC8D"></path>
    <path d="M18.9506 18.0714C20.2071 17.8247 21.5045 17.8825 22.734 18.2402C24.3169 18.7684 23.0867 20.8794 23.3499 20.9672C23.8571 20.5052 24.4567 20.1564 25.109 19.944C25.7613 19.7316 26.4514 19.6605 27.1333 19.7353C30.1252 19.9041 30.4762 21.2304 30.9167 20.9672C31.3571 20.7984 30.4762 17.2716 35.0511 18.0647C35.0511 18.0647 30.3885 16.8328 30.564 20.1758C29.6012 19.5467 28.4824 19.1978 27.3327 19.168C26.1831 19.1382 25.0477 19.4287 24.0536 20.007C24.0536 20.007 25.0206 16.7518 18.9506 18.0714ZM17.7188 13.5C17.7188 13.5 13.6687 18.5153 13.1439 20.4491C12.528 22.3847 12.0876 30.4779 11.5611 31.6221L9.71325 23.7009L13.1439 15.4322L17.7188 13.5ZM36.5445 13.5C36.5445 13.5 40.5945 18.5153 41.1193 20.4491C41.7353 22.3847 42.1757 30.4779 42.7022 31.6221L44.55 23.7009L41.1193 15.4322L36.5445 13.5Z" fill="#CCAC8D"></path>
    <path d="M36.2813 13.5C38.7367 15.5861 40.6401 18.2453 41.823 21.2422C43.0549 25.3766 42.5267 30.4796 43.4953 31.0956C44.9027 31.9747 46.3978 26.6962 46.926 26.1697C47.7174 25.2906 50.4444 23.0023 50.6216 22.5635C50.7988 22.1248 45.1676 15.9654 42.6161 14.7335C39.7997 13.3194 36.1125 13.1439 36.2813 13.5Z" fill="#56332B"></path>
    <path d="M39.9769 15.6937C43.0916 19.94 44.8408 25.0334 44.9921 30.2974L47.0171 26.163C45.4989 22.1823 43.0908 18.6013 39.9769 15.6937Z" fill="#442823"></path>
    <path d="M17.7188 13.5C15.2633 15.5861 13.3599 18.2453 12.177 21.2422C10.9451 25.3766 11.4733 30.4796 10.5047 31.0956C9.09731 31.9747 7.60219 26.6962 7.074 26.1697C6.28256 25.2906 3.55556 23.0023 3.37838 22.5635C3.20119 22.1248 8.83238 15.9654 11.3839 14.7335C14.2003 13.3194 17.8875 13.1439 17.7188 13.5Z" fill="#56332B"></path>
    <path d="M14.0231 15.6937C10.9084 19.94 9.15924 25.0334 9.00788 30.2974L6.98625 26.1562C8.50441 22.1783 10.9113 18.5998 14.0231 15.6937Z" fill="#442823"></path>
    <path d="M11.2084 30.3868C11.3475 31.3232 11.6766 32.2214 12.1753 33.0261C12.7912 33.642 12.3441 32.4979 12.3441 32.4979C12.3441 32.4979 11.7281 32.1452 11.8159 29.5954C11.9036 27.0456 11.2084 30.3868 11.2084 30.3868ZM42.8794 30.3868C42.7402 31.3232 42.4112 32.2214 41.9124 33.0261C41.2965 33.642 41.7437 32.4979 41.7437 32.4979C41.7437 32.4979 42.3596 32.1452 42.2719 29.5954C42.1757 27.1316 42.8794 30.3868 42.8794 30.3868Z" fill="#CCAC8D"></path>
    <path d="M23.4377 29.1549C23.5831 29.1549 23.7009 29.0371 23.7009 28.8917C23.7009 28.7463 23.5831 28.6284 23.4377 28.6284C23.2923 28.6284 23.1744 28.7463 23.1744 28.8917C23.1744 29.0371 23.2923 29.1549 23.4377 29.1549Z" fill="#442823"></path>
    <path d="M21.6776 31.0028C21.823 31.0028 21.9409 30.8849 21.9409 30.7395C21.9409 30.5941 21.823 30.4763 21.6776 30.4763C21.5322 30.4763 21.4144 30.5941 21.4144 30.7395C21.4144 30.8849 21.5322 31.0028 21.6776 31.0028Z" fill="#442823"></path>
    <path d="M21.1494 29.1549C21.2948 29.1549 21.4127 29.0371 21.4127 28.8917C21.4127 28.7463 21.2948 28.6284 21.1494 28.6284C21.004 28.6284 20.8862 28.7463 20.8862 28.8917C20.8862 29.0371 21.004 29.1549 21.1494 29.1549Z" fill="#442823"></path>
    <path d="M30.6517 29.1549C30.7971 29.1549 30.915 29.0371 30.915 28.8917C30.915 28.7463 30.7971 28.6284 30.6517 28.6284C30.5064 28.6284 30.3885 28.7463 30.3885 28.8917C30.3885 29.0371 30.5064 29.1549 30.6517 29.1549Z" fill="#442823"></path>
    <path d="M32.3224 31.0028C32.4678 31.0028 32.5856 30.8849 32.5856 30.7395C32.5856 30.5941 32.4678 30.4763 32.3224 30.4763C32.177 30.4763 32.0591 30.5941 32.0591 30.7395C32.0591 30.8849 32.177 31.0028 32.3224 31.0028Z" fill="#442823"></path>
    <path d="M32.8506 29.1549C32.9959 29.1549 33.1138 29.0371 33.1138 28.8917C33.1138 28.7463 32.9959 28.6284 32.8506 28.6284C32.7052 28.6284 32.5873 28.7463 32.5873 28.8917C32.5873 29.0371 32.7052 29.1549 32.8506 29.1549Z" fill="#442823"></path>
  </symbol>

  <symbol fill="none" viewBox="0 0 54 54" id="quasar">
    <path d="M30.375 27C30.375 27.6675 30.1771 28.32 29.8062 28.875C29.4354 29.4301 28.9083 29.8626 28.2916 30.1181C27.6749 30.3735 26.9963 30.4404 26.3416 30.3101C25.6869 30.1799 25.0855 29.8585 24.6135 29.3865C24.1415 28.9145 23.8201 28.3131 23.6898 27.6584C23.5596 27.0037 23.6265 26.3251 23.8819 25.7084C24.1374 25.0917 24.5699 24.5646 25.125 24.1938C25.68 23.8229 26.3325 23.625 27 23.625C27.8951 23.625 28.7535 23.9806 29.3865 24.6135C30.0194 25.2464 30.375 26.1049 30.375 27ZM27 44.5837C28.4865 44.5802 29.9665 44.3874 31.4044 44.01V39.4369C32.9172 38.9251 34.324 38.1417 35.5556 37.125C35.0656 35.314 34.2664 33.6013 33.1931 32.0625C30.9224 36.314 27.1507 39.5683 22.6125 41.1919V44.0775C24.048 44.4293 25.5221 44.5993 27 44.5837ZM42.1875 18.225C41.441 16.9395 40.5337 15.7543 39.4875 14.6981L35.5219 16.9931C34.3008 15.9497 32.8998 15.1377 31.3875 14.5969C30.0607 15.923 28.9757 17.4706 28.1813 19.17C33 19.01 37.7053 20.6526 41.3775 23.7769L43.875 22.3256C43.4899 20.8923 42.9228 19.5142 42.1875 18.225ZM11.8125 18.225C11.0761 19.5136 10.5089 20.8919 10.125 22.3256L14.0906 24.6206C13.7998 26.1992 13.7998 27.8176 14.0906 29.3962C15.899 29.8792 17.7775 30.0448 19.6425 29.8856C17.0909 25.7922 16.1582 20.8941 17.0269 16.1494L14.4956 14.715C13.4559 15.7663 12.5542 16.9458 11.8125 18.225Z" fill="#050A14"></path>
    <path d="M42.1875 35.8087C42.9239 34.5201 43.4911 33.1418 43.875 31.7081L39.9263 29.4131C40.2171 27.8345 40.2171 26.2161 39.9263 24.6375C38.1179 24.1545 36.2394 23.9889 34.3744 24.1481C36.9726 28.2234 37.9537 33.1228 37.125 37.8844L39.6225 39.3187C40.6212 38.2608 41.4829 37.0816 42.1875 35.8087ZM11.8125 35.8087C12.559 37.0943 13.4663 38.2794 14.5125 39.3356L18.4781 37.0406C19.6992 38.084 21.1002 38.896 22.6125 39.4369C23.9393 38.1107 25.0243 36.5631 25.8188 34.8637C21 35.0237 16.2947 33.3811 12.6225 30.2569L10.125 31.6912C10.5093 33.1302 11.0764 34.514 11.8125 35.8087ZM27 9.43311C25.5135 9.43651 24.0334 9.62931 22.5956 10.0069V14.58C21.0778 15.1121 19.6707 15.9186 18.4444 16.9594C18.9344 18.7703 19.7336 20.483 20.8069 22.0219C23.0776 17.7704 26.8493 14.5161 31.3875 12.8925V10.0237C29.9557 9.64298 28.4815 9.44453 27 9.43311Z" fill="#00B4FF"></path>
    <path d="M27 6.42937C31.0733 6.42604 35.056 7.63106 38.4441 9.89196C41.8323 12.1529 44.4737 15.368 46.034 19.1306C47.5943 22.8931 48.0034 27.034 47.2096 31.0292C46.4158 35.0243 44.4547 38.6942 41.5744 41.5744C38.6942 44.4547 35.0243 46.4158 31.0292 47.2096C27.034 48.0034 22.8931 47.5943 19.1306 46.034C15.368 44.4737 12.1529 41.8323 9.89196 38.4441C7.63106 35.056 6.42604 31.0733 6.42937 27C6.44274 21.5484 8.61429 16.324 12.4691 12.4691C16.324 8.61429 21.5484 6.44274 27 6.42937ZM27 3.375C20.7343 3.375 14.7251 5.86406 10.2946 10.2946C5.86406 14.7251 3.375 20.7343 3.375 27C3.375 33.2657 5.86406 39.2748 10.2946 43.7054C14.7251 48.1359 20.7343 50.625 27 50.625C33.2657 50.625 39.2748 48.1359 43.7054 43.7054C48.1359 39.2748 50.625 33.2657 50.625 27C50.625 20.7343 48.1359 14.7251 43.7054 10.2946C39.2748 5.86406 33.2657 3.375 27 3.375Z" fill="#00B4FF"></path>
  </symbol>

  <symbol fill="none" viewBox="0 0 54 54" id="react">
    <path d="M27 31.8094C29.6561 31.8094 31.8094 29.6561 31.8094 27C31.8094 24.3438 29.6561 22.1906 27 22.1906C24.3438 22.1906 22.1906 24.3438 22.1906 27C22.1906 29.6561 24.3438 31.8094 27 31.8094Z" fill="#61DAFB"></path>
    <path d="M45.2672 19.0687C44.3391 18.7312 43.3687 18.3937 42.3562 18.0984C42.6094 17.0859 42.8203 16.0734 42.9891 15.1031C43.875 9.53436 42.9047 5.61092 40.2047 4.09218C39.4031 3.62811 38.5172 3.41718 37.5047 3.41718C34.5516 3.41718 30.7969 5.61093 27 9.28124C23.2031 5.61093 19.4484 3.41718 16.4953 3.41718C15.4828 3.41718 14.5969 3.62811 13.7953 4.09218C11.0953 5.65311 10.125 9.57655 11.0109 15.1031C11.1797 16.0734 11.3906 17.0859 11.6437 18.0984C10.6312 18.3937 9.66094 18.689 8.73281 19.0687C3.45937 21.0937 0.590622 23.8781 0.590622 27C0.590622 30.1219 3.50156 32.9062 8.73281 34.9312C9.66094 35.2687 10.6312 35.6062 11.6437 35.9016C11.3906 36.9141 11.1797 37.9265 11.0109 38.8969C10.125 44.4656 11.0953 48.3891 13.7953 49.9078C14.5969 50.3719 15.4828 50.5828 16.4953 50.5828C19.4906 50.5828 23.2453 48.389 27 44.7187C30.7969 48.389 34.5516 50.5828 37.5047 50.5828C38.5172 50.5828 39.4031 50.3719 40.2047 49.9078C42.9047 48.3469 43.875 44.4234 42.9891 38.8969C42.8203 37.9265 42.6094 36.9141 42.3562 35.9016C43.3687 35.6062 44.3391 35.3109 45.2672 34.9312C50.5406 32.9062 53.4094 30.1219 53.4094 27C53.4094 23.8781 50.5406 21.0937 45.2672 19.0687ZM39.0234 6.20155C40.7531 7.21405 41.3437 10.3359 40.6266 14.7656C40.5 15.6516 40.2891 16.5797 40.0359 17.55C37.8422 17.0437 35.5219 16.7062 33.075 16.4953C31.6406 14.4703 30.1641 12.6562 28.6875 11.0109C31.8094 7.93124 34.9734 5.82186 37.5469 5.82186C38.0953 5.82186 38.6016 5.94843 39.0234 6.20155ZM34.2984 31.2187C33.5391 32.5687 32.6531 33.9187 31.725 35.2687C30.1641 35.3953 28.6031 35.4375 27 35.4375C25.3547 35.4375 23.7937 35.3953 22.275 35.2687C21.3469 33.9187 20.5031 32.5687 19.7437 31.2187C18.9422 29.8266 18.1828 28.3922 17.5078 27C18.1828 25.6078 18.9422 24.1734 19.7437 22.7812C20.5031 21.4312 21.3891 20.0812 22.3172 18.7312C23.8781 18.6047 25.4391 18.5625 27.0422 18.5625C28.6875 18.5625 30.2484 18.6047 31.7672 18.7312C32.6953 20.0812 33.5391 21.4312 34.2984 22.7812C35.1 24.1734 35.8594 25.6078 36.5344 27C35.8172 28.3922 35.1 29.7844 34.2984 31.2187ZM37.8 29.8265C38.4328 31.3031 38.9391 32.7375 39.4031 34.1719C37.9687 34.5094 36.45 34.7625 34.8469 34.9734C35.3531 34.1719 35.9016 33.3281 36.3656 32.4422C36.8719 31.5562 37.3359 30.6703 37.8 29.8265ZM27 41.2594C25.9875 40.1625 25.0172 38.9812 24.0891 37.7578C25.0594 37.8 26.0297 37.8422 27 37.8422C27.9703 37.8422 28.9406 37.8 29.9109 37.7578C28.9828 38.9812 28.0125 40.1625 27 41.2594ZM19.1531 34.9312C17.55 34.7203 16.0312 34.4672 14.5969 34.1297C15.0609 32.7375 15.5672 31.2609 16.2 29.7844C16.6641 30.6281 17.1281 31.514 17.6344 32.3578C18.1406 33.2859 18.6469 34.0875 19.1531 34.9312ZM16.2 24.1734C15.5672 22.6969 15.0609 21.2625 14.5969 19.8281C16.0312 19.4906 17.55 19.2375 19.1531 19.0266C18.6469 19.8281 18.0984 20.6719 17.6344 21.5578C17.1281 22.4437 16.6641 23.3297 16.2 24.1734ZM27 12.7406C28.0125 13.8375 28.9828 15.0187 29.9109 16.2422C28.9406 16.2 27.9703 16.1578 27 16.1578C26.0297 16.1578 25.0594 16.2 24.0891 16.2422C25.0172 15.0187 25.9875 13.8375 27 12.7406ZM36.3656 21.6L34.8469 19.0687C36.45 19.2797 37.9687 19.5328 39.4031 19.8703C38.9391 21.2625 38.4328 22.7391 37.8 24.2156C37.3359 23.3297 36.8719 22.4437 36.3656 21.6ZM13.3734 14.7656C12.6562 10.3359 13.2469 7.21405 14.9766 6.20155C15.3984 5.94843 15.9047 5.82186 16.4531 5.82186C18.9844 5.82186 22.1484 7.88905 25.3125 11.0109C23.8359 12.614 22.3594 14.4703 20.925 16.4953C18.4781 16.7062 16.1578 17.0859 13.9641 17.55C13.7109 16.5797 13.5422 15.6516 13.3734 14.7656ZM2.95312 27C2.95312 25.0172 5.35781 22.9078 9.57656 21.3469C10.4203 21.0094 11.3484 20.7141 12.2766 20.4609C12.9516 22.5703 13.7953 24.8062 14.8078 27.0422C13.7953 29.2781 12.9094 31.4719 12.2766 33.5812C6.45468 31.8937 2.95312 29.3625 2.95312 27ZM14.9766 47.7984C13.2469 46.7859 12.6562 43.6641 13.3734 39.2344C13.5 38.3484 13.7109 37.4203 13.9641 36.45C16.1578 36.9562 18.4781 37.2937 20.925 37.5047C22.3594 39.5297 23.8359 41.3437 25.3125 42.9891C22.1906 46.0687 19.0266 48.1781 16.4531 48.1781C15.9047 48.1781 15.3984 48.0516 14.9766 47.7984ZM40.6266 39.2344C41.3437 43.6641 40.7531 46.7859 39.0234 47.7984C38.6016 48.0516 38.0953 48.1781 37.5469 48.1781C35.0156 48.1781 31.8516 46.1109 28.6875 42.9891C30.1641 41.3859 31.6406 39.5297 33.075 37.5047C35.5219 37.2937 37.8422 36.9141 40.0359 36.45C40.2891 37.4203 40.4578 38.3484 40.6266 39.2344ZM44.4234 32.6531C43.5797 32.9906 42.6516 33.2859 41.7234 33.5391C41.0484 31.4297 40.2047 29.1937 39.1922 26.9578C40.2047 24.7219 41.0906 22.5281 41.7234 20.4187C47.5453 22.1062 51.0469 24.6375 51.0469 27C51.0469 28.9828 48.6 31.0922 44.4234 32.6531Z" fill="#61DAFB"></path>
  </symbol>

  <symbol fill="none" viewBox="0 0 54 54" id="sass">
    <path fill-rule="evenodd" clip-rule="evenodd" d="M0.514266 23.6908C0.514266 23.9874 0.601594 24.1831 0.650531 24.3734C0.969469 25.6108 1.65502 26.6726 2.46839 27.6412C3.62686 29.0216 5.04563 30.1328 6.49898 31.1778C7.75955 32.084 9.04584 32.97 10.3115 33.8694C10.5287 34.0238 10.7342 34.2014 10.97 34.3908C10.7671 34.5005 10.5983 34.5971 10.4228 34.6861C8.75264 35.5333 7.14572 36.4829 5.66452 37.6334C4.77183 38.3269 3.90867 39.0639 3.29906 40.0271C2.3182 41.5762 1.971 43.2266 2.70211 44.9888C2.91558 45.5034 3.24127 45.9481 3.70069 46.2767C3.84961 46.383 4.01667 46.4885 4.19091 46.5299C4.63725 46.6349 5.09203 46.7037 5.54386 46.7868L6.82341 46.7859C8.23838 46.6598 9.52636 46.1751 10.6903 45.3718C12.5094 44.1163 13.735 42.433 14.2619 40.2726C14.645 38.7024 14.6606 37.1305 14.2092 35.5674C14.166 35.4226 14.1161 35.2799 14.0598 35.1397C14.005 34.9992 13.9404 34.8625 13.8645 34.6874L16.7653 33.0193L16.8088 33.0564C16.756 33.229 16.6999 33.4011 16.6523 33.5753C16.3076 34.8342 16.0785 36.115 16.1608 37.4216C16.2485 38.8138 16.6371 40.1169 17.4521 41.28C18.1111 42.2208 19.6813 42.2558 20.3816 41.3117C20.6301 40.9763 20.871 40.6257 21.052 40.2515C21.5249 39.2749 21.9628 38.2809 22.4146 37.2938L22.4935 37.1132C22.461 37.5806 22.4231 37.9911 22.4058 38.402C22.3788 39.0437 22.4163 39.6816 22.6357 40.292C22.8234 40.8143 23.1428 41.2045 23.741 41.2733C24.1502 41.3201 24.4763 41.1328 24.7771 40.8953C25.2431 40.527 25.6294 40.0679 25.9124 39.5457C26.7144 38.073 27.5379 36.609 28.2648 35.0992C29.0512 33.4661 29.7388 31.7853 30.4691 30.1244L30.5897 29.8299C30.7623 30.5079 30.8825 31.1719 31.104 31.8005C31.3613 32.5299 31.6799 33.2421 32.0266 33.9344C32.1908 34.2613 32.1718 34.4735 31.9444 34.7477C30.9926 35.8952 30.0573 37.0567 29.1212 38.2168C28.914 38.4729 28.7078 38.7336 28.5352 39.0133C28.4305 39.1899 28.3617 39.3855 28.3327 39.5887C28.3037 39.7759 28.3482 39.967 28.457 40.122C28.5657 40.277 28.7303 40.3839 28.9162 40.4203C29.2912 40.501 29.6758 40.5285 30.0586 40.5017C31.3651 40.4055 32.5515 39.9469 33.6002 39.1698C34.9591 38.1632 35.3953 36.7896 35.0663 35.1616C34.9772 34.7199 34.8199 34.2904 34.6667 33.8648C34.598 33.6728 34.5933 33.5382 34.7186 33.3593C35.805 31.8081 36.7331 30.1624 37.5962 28.4787C37.6304 28.4124 37.6654 28.3462 37.7253 28.2753C38.005 29.7308 38.4261 31.1335 39.1804 32.4063C38.7956 32.7772 38.4147 33.1134 38.07 33.4838C37.311 34.2997 36.6529 35.1856 36.3095 36.2661C36.1619 36.7318 36.0484 37.2052 36.1142 37.7025C36.2163 38.475 36.8491 38.977 37.6089 38.8011C39.2348 38.4248 40.6384 37.6587 41.664 36.3015C42.3541 35.3877 42.417 34.3685 42.128 33.3007C42.0487 33.0105 41.9546 32.7248 41.8534 32.392C42.2546 32.2675 42.6457 32.1182 43.0502 32.0258C45.1508 31.5465 47.2285 31.6301 49.2526 32.3886C50.4343 32.8316 51.389 33.5728 51.9552 34.7389C52.6466 36.1644 52.2644 37.5169 50.9207 38.418C50.7954 38.502 50.652 38.5682 50.5482 38.6733C50.515 38.7118 50.4901 38.7568 50.4752 38.8055C50.4603 38.8542 50.4557 38.9054 50.4617 38.9559C50.4706 39.0078 50.6077 39.0728 50.6866 39.072C51.1283 39.0686 51.4865 38.837 51.8303 38.599C52.6918 38.0029 53.3204 37.2009 53.4558 36.145L53.4824 36.0657L53.4499 35.378C53.4368 35.3384 53.4596 35.2991 53.4566 35.2692C53.2735 33.7314 52.4521 32.5388 51.2574 31.6039C49.8736 30.5218 48.2397 30.0763 46.5117 30.0059C45.1103 29.9455 43.7106 30.161 42.3921 30.6399C42.0137 30.777 41.6386 30.9395 41.2581 31.0926C41.2071 31.0002 41.1522 30.9116 41.1071 30.8201C40.7164 30.0202 40.2431 29.2558 40.1385 28.3386C40.0642 27.6872 39.9731 27.0367 40.1279 26.3925C40.2768 25.7728 40.4709 25.1636 40.6536 24.5523C40.7476 24.2376 40.6814 24.0612 40.381 23.9195C40.2764 23.8673 40.1647 23.8306 40.0494 23.8106C39.3112 23.7035 38.583 23.7646 37.8679 23.9726C37.6148 24.0465 37.4309 24.1882 37.3748 24.4683C37.3427 24.6291 37.2773 24.783 37.2317 24.9417C37.0448 25.6011 36.9124 26.2731 36.6103 26.9013C35.8535 28.477 34.9895 29.9932 34.1052 31.4985C34.0095 31.6609 33.9086 31.8203 33.788 32.0174C33.4775 31.3677 33.1463 30.7846 33.0459 30.1012C32.9324 29.3283 32.843 28.5567 33.0353 27.7898C33.1784 27.2177 33.3653 26.6562 33.5374 26.0917C33.6188 25.8234 33.5813 25.6825 33.3383 25.5412C33.2155 25.4699 33.0767 25.4066 32.9383 25.3859C32.1813 25.2706 31.4078 25.3339 30.6796 25.5707C30.4505 25.6449 30.3303 25.793 30.2603 26.0293C30.0544 26.7262 29.8789 27.44 29.5899 28.1028C28.4196 30.7859 27.2156 33.4551 26.0128 36.1239C25.7618 36.6812 25.4678 37.2191 25.1847 37.7616C25.113 37.8991 25.0083 38.0202 24.9189 38.1493C24.8472 38.0645 24.8193 38.0063 24.8198 37.9481C24.8219 37.6051 24.7809 37.252 24.8463 36.9204C25.0471 35.9175 25.2691 34.919 25.512 33.9255C25.7103 33.1045 25.9411 32.2912 26.1609 31.4757C26.2347 31.2027 26.236 30.9475 26.0398 30.718C25.7103 30.3337 25.0218 30.2493 24.6135 30.5454L24.4329 30.6475L24.4679 30.3564C24.554 29.7325 24.5713 29.1106 24.4 28.496C24.1865 27.7298 23.6398 27.289 22.845 27.3135C22.4745 27.3248 22.0856 27.3881 21.7426 27.5231C20.3002 28.0884 19.1911 29.0895 18.2469 30.294C18.1594 30.4058 18.0509 30.4995 17.9276 30.5699C16.7071 31.2466 15.4828 31.9148 14.259 32.5856L12.8967 33.3319C12.5314 32.9835 12.1994 32.6219 11.8226 32.3152C10.6722 31.377 9.50316 30.4619 8.34469 29.5342C7.31784 28.712 6.32306 27.8556 5.562 26.7667C4.99584 25.9567 4.63092 25.0703 4.59591 24.0688C4.55161 22.7926 4.91358 21.6266 5.56327 20.5411C6.39436 19.1523 7.52794 18.0377 8.77416 17.0281C10.0925 15.9608 11.5185 15.0546 12.9963 14.2273C15.0639 13.0701 17.1906 12.0458 19.4708 11.3695C21.8088 10.676 24.181 10.279 26.6279 10.5557C27.5898 10.6646 28.5238 10.8848 29.3815 11.3552C30.0383 11.715 30.5771 12.1863 30.8277 12.9229C31.0749 13.6477 31.0673 14.3821 30.896 15.1183C30.548 16.6092 29.7316 17.8381 28.7044 18.9363C27.0194 20.7364 24.964 21.962 22.65 22.7715C21.3196 23.2376 19.9353 23.5329 18.5304 23.6503C17.3791 23.7469 16.2519 23.6448 15.1618 23.2445C14.4399 22.9791 13.8113 22.5733 13.3059 21.9843C13.2157 21.8789 13.1001 21.7645 12.9317 21.8633C12.7668 21.9603 12.7377 22.1172 12.7929 22.2763C12.8853 22.5404 12.9705 22.8154 13.1144 23.0517C13.476 23.6444 14.0033 24.0743 14.5838 24.443C15.6988 25.1522 16.945 25.3905 18.2372 25.4458C20.1981 25.5306 22.1113 25.2378 23.9975 24.7118C26.6903 23.9608 29.0318 22.6344 30.9095 20.5419C32.473 18.7996 33.5897 16.8332 33.8289 14.4589C33.9457 13.3 33.8213 12.1648 33.2788 11.1075C32.6903 9.96216 31.7545 9.11039 30.6357 8.52356C29.0064 7.66927 27.2481 7.17188 25.4332 7.17188H23.6149C21.4169 7.17188 19.2919 7.80173 17.2264 8.55309C15.663 9.1222 14.1299 9.79383 12.6415 10.5372C9.40022 12.1567 6.3817 14.1096 3.90234 16.7948C2.66709 18.1326 1.62127 19.6087 1.01967 21.3469C0.838099 21.8658 0.681683 22.3932 0.550969 22.9272M12.2955 38.1202C12.1551 40.0013 11.3025 41.5264 9.909 42.7617C9.12516 43.4561 8.22614 43.9505 7.17905 44.1243C6.79936 44.1872 6.41081 44.2024 6.04252 44.045C5.51728 43.8206 5.39958 43.3544 5.38945 42.8579C5.37384 42.0664 5.65102 41.3509 6.03113 40.67C6.52725 39.7824 7.25456 39.1057 8.03124 38.4737C9.25467 37.4777 10.5819 36.6348 11.9412 35.8391L12.0437 35.7969C12.2538 36.5732 12.3538 37.3397 12.2955 38.1202ZM22.9091 29.9447C22.8099 30.5454 22.6859 31.1466 22.5104 31.7288C21.9038 33.7441 21.1245 35.697 20.2821 37.6237C20.1264 37.9801 19.8998 38.3054 19.7028 38.6433C19.6693 38.6953 19.6292 38.7426 19.5834 38.7842C19.3396 39.0251 19.1084 39.0125 18.9852 38.6973C18.8418 38.3311 18.7536 37.9392 18.6777 37.5515C18.6266 37.2912 18.6389 37.0178 18.6228 36.7512C18.6393 34.8553 19.2177 33.1324 20.199 31.5284C20.6035 30.8669 21.044 30.2366 21.7169 29.8181C21.9262 29.688 22.1527 29.5877 22.3898 29.5203C22.7483 29.4195 22.9686 29.5853 22.9091 29.9447ZM30.1501 39.1702L32.7527 36.1315C32.8611 37.26 30.9428 39.5128 30.1501 39.1702ZM38.4623 37.1254C38.2784 37.2309 38.078 37.3068 37.8894 37.4043C37.7169 37.4937 37.6599 37.4034 37.6549 37.2549C37.6523 37.1521 37.6656 37.0496 37.6941 36.9508C38.0455 35.7113 38.6923 34.6532 39.6546 33.7926L39.7221 33.758C40.1798 35.0384 39.6508 36.4445 38.4623 37.1254Z" fill="#CB6699"></path>
  </symbol>

  <symbol fill="none" viewBox="0 0 54 54" id="tailwind">
    <g clip-path="url(#clip0_5_87)">
      <path d="M27.0017 10.8008C19.8016 10.8008 15.3031 14.3994 13.5017 21.5996C16.2008 18.0006 19.3518 16.651 22.9508 17.5508C25.0058 18.063 26.4744 19.5531 28.1007 21.2043C30.7475 23.8904 33.8112 27 40.5017 27C47.7014 27 52.2003 23.401 54.0017 16.1992C51.3021 19.8003 48.1516 21.1499 44.5521 20.25C42.4976 19.7374 41.0307 18.2478 39.4023 16.5966C36.7571 13.9105 33.6943 10.8008 27.0017 10.8008ZM13.5017 27C6.30197 27 1.8031 30.599 0.00169373 37.8008C2.70085 34.1997 5.85141 32.8501 9.45085 33.75C11.5058 34.2626 12.9743 35.7522 14.6007 37.4034C17.2475 40.0895 20.3112 43.1992 27.0017 43.1992C34.2014 43.1992 38.7003 39.6006 40.5017 32.4004C37.8021 35.9994 34.6516 37.349 31.0521 36.4492C28.9976 35.937 27.5307 34.4469 25.9023 32.7957C23.2571 30.1096 20.1943 27 13.5017 27Z" fill="#38BDF8"></path>
    </g>
    <defs>
      <clipPath id="clip0_5_87">
        <rect width="54" height="54" fill="white"></rect>
      </clipPath>
    </defs>
  </symbol>

  <symbol fill="none" viewBox="0 0 54 54" id="ts">
    <g clip-path="url(#clip0_5_37)">
      <mask id="mask0_5_37" maskUnits="userSpaceOnUse" x="0" y="0" width="54" height="54">
        <path d="M0 0H54V54H0V0Z" fill="white"></path>
      </mask>
      <g mask="url(#mask0_5_37)">
        <path d="M52.7153 1.97385e-06H1.2825C0.942155 0.000598029 0.615952 0.136218 0.375501 0.377091C0.13505 0.617964 1.4554e-06 0.944405 1.97734e-06 1.28475V52.7175C-0.000294422 52.8863 0.0327343 53.0535 0.0971941 53.2095C0.161654 53.3655 0.256276 53.5073 0.375636 53.6266C0.494995 53.746 0.636742 53.8406 0.792749 53.9051C0.948756 53.9695 1.11595 54.0025 1.28475 54.0023H52.7175C52.8862 54.0023 53.0533 53.969 53.2092 53.9045C53.365 53.8399 53.5067 53.7453 53.626 53.626C53.7453 53.5067 53.8399 53.365 53.9045 53.2092C53.969 53.0533 54.0022 52.8862 54.0023 52.7175V1.2825C54.002 1.11379 53.9684 0.946781 53.9036 0.79102C53.8388 0.63526 53.7439 0.493796 53.6244 0.374705C53.5049 0.255614 53.3631 0.161228 53.2071 0.0969362C53.0511 0.0326445 52.884 -0.000293759 52.7153 1.97385e-06ZM32.1435 28.8585H25.7153V48.8565H20.5718V28.8585H14.1435V24.4283H32.1435V28.8585ZM33.5835 47.7135V42.3697C33.5835 42.3697 36.504 44.5703 40.0073 44.5703C43.5105 44.5703 43.3755 42.2797 43.3755 41.9647C43.3755 38.6415 33.4485 38.6415 33.4485 31.275C33.4485 21.258 47.9137 25.2113 47.9137 25.2113L47.7337 29.9723C47.7337 29.9723 45.3083 28.3545 42.5678 28.3545C39.8273 28.3545 38.8395 29.6595 38.8395 31.05C38.8395 34.6433 48.8565 34.2855 48.8565 41.517C48.8565 52.6545 33.5835 47.7158 33.5835 47.7158V47.7135Z" fill="#007ACC"></path>
      </g>
    </g>
    <defs>
      <clipPath id="clip0_5_37">
        <rect width="54" height="54" fill="white"></rect>
      </clipPath>
    </defs>
  </symbol>

  <symbol fill="none" viewBox="0 0 54 54" id="vite">
    <path d="M50.4291 10.3714L28.252 50.0276C28.1479 50.2141 27.996 50.3696 27.812 50.4781C27.628 50.5866 27.4185 50.6443 27.2049 50.6451C26.9912 50.646 26.7812 50.59 26.5964 50.483C26.4115 50.376 26.2584 50.2217 26.1528 50.0361L3.5369 10.3748C3.42319 10.1758 3.36861 9.94845 3.37955 9.71952C3.39049 9.49058 3.46649 9.26952 3.59865 9.08226C3.73081 8.89501 3.91364 8.74933 4.12568 8.66233C4.33772 8.57533 4.57018 8.55061 4.79577 8.59107L26.9965 12.5601C27.1377 12.5855 27.2823 12.5855 27.4235 12.5601L49.1601 8.59782C49.3849 8.55676 49.6166 8.58043 49.8284 8.66607C50.0402 8.75171 50.2233 8.89579 50.3563 9.08152C50.4893 9.26724 50.5668 9.48695 50.5797 9.71503C50.5926 9.94311 50.5404 10.1718 50.4291 10.3714Z" fill="url(#paint0_linear_84_273)"/>
    <path d="M37.5705 3.38684L21.1612 6.60153C21.0299 6.62718 20.9108 6.69584 20.8228 6.79668C20.7348 6.89751 20.6829 7.02478 20.6752 7.1584L19.6661 24.2089C19.6605 24.3024 19.6769 24.396 19.7138 24.4821C19.7507 24.5682 19.8072 24.6446 19.8788 24.705C19.9504 24.7655 20.0351 24.8084 20.1262 24.8304C20.2173 24.8523 20.3123 24.8528 20.4035 24.8316L24.9716 23.7769C25.07 23.7542 25.1726 23.7565 25.2698 23.7838C25.3671 23.8111 25.4559 23.8623 25.5282 23.9329C25.6004 24.0035 25.6538 24.0911 25.6833 24.1877C25.7129 24.2843 25.7176 24.3867 25.6972 24.4857L24.3405 31.1327C24.3195 31.235 24.3256 31.3411 24.358 31.4404C24.3904 31.5397 24.448 31.6288 24.5253 31.6991C24.6026 31.7694 24.6968 31.8184 24.7987 31.8413C24.9006 31.8642 25.0067 31.8601 25.1066 31.8297L27.9281 30.9724C28.0282 30.9418 28.1345 30.9378 28.2366 30.9607C28.3386 30.9837 28.433 31.0328 28.5103 31.1033C28.5876 31.1738 28.6453 31.2633 28.6775 31.3628C28.7098 31.4623 28.7155 31.5686 28.6942 31.671L26.5359 42.1116C26.4009 42.7646 27.27 43.1207 27.6328 42.5621L27.8741 42.1875L41.2475 15.4997C41.2977 15.3992 41.3188 15.2866 41.3084 15.1747C41.2979 15.0628 41.2564 14.956 41.1884 14.8665C41.1205 14.7769 41.0289 14.7082 40.9239 14.668C40.819 14.6278 40.7048 14.6178 40.5945 14.6391L35.8914 15.5453C35.7902 15.5647 35.6857 15.5577 35.5879 15.5252C35.4901 15.4926 35.4023 15.4355 35.3329 15.3593C35.2634 15.2831 35.2147 15.1904 35.1914 15.09C35.168 14.9896 35.1709 14.8849 35.1995 14.7859L38.2674 4.14453C38.2963 4.04521 38.2992 3.94012 38.2757 3.83938C38.2522 3.73863 38.2032 3.64564 38.1333 3.56934C38.0635 3.49305 37.9751 3.43602 37.8769 3.40376C37.7786 3.3715 37.6736 3.36509 37.5722 3.38515L37.5705 3.38684Z" fill="url(#paint1_linear_84_273)"/>
    <defs>
      <linearGradient id="paint0_linear_84_273" x1="2.98428" y1="7.17334" x2="30.5836" y2="44.6554" gradientUnits="userSpaceOnUse">
        <stop stop-color="#41D1FF"/>
        <stop offset="1" stop-color="#BD34FE"/>
      </linearGradient>
      <linearGradient id="paint1_linear_84_273" x1="25.7208" y1="4.25891" x2="30.7134" y2="38.5076" gradientUnits="userSpaceOnUse">
        <stop stop-color="#FFEA83"/>
        <stop offset="0.083" stop-color="#FFDD35"/>
        <stop offset="1" stop-color="#FFA800"/>
      </linearGradient>
    </defs>
  </symbol>

  <symbol fill="none" viewBox="0 0 54 54" id="vue">
    <path d="M41.175 6.62341H50.625L27 47.3765L3.375 6.62341H21.4481L27 16.0734L32.4337 6.62341H41.175Z" fill="#41B883"></path>
    <path d="M3.375 6.62341L27 47.3765L50.625 6.62341H41.175L27 31.0753L12.7069 6.62341H3.375Z" fill="#41B883"></path>
    <path d="M12.7069 6.62341L27 31.1934L41.175 6.62341H32.4337L27 16.0734L21.4481 6.62341H12.7069Z" fill="#35495E"></path>
  </symbol>

  <symbol fill="none" viewBox="0 0 54 54" id="vuetify">
    <path d="M27.5484 14.5184L17.2294 32.3958L27 49.3281L39.9397 26.9139L52.8744 4.50055H33.3281L27.5484 14.5184Z" fill="#1697F6"></path>
    <path d="M14.0653 26.9143L14.7424 28.0926L24.3949 11.3657L28.3614 4.50055H1.12556L14.0653 26.9143Z" fill="#AEDDFF"></path>
    <path d="M33.3281 4.50055C38.2193 20.5959 27 49.3281 27 49.3281L17.2294 32.3953L33.3281 4.50055Z" fill="#1867C0"></path>
    <path d="M28.3614 4.50055C7.75532 4.50055 14.7424 28.0926 14.7424 28.0926L28.3614 4.50055Z" fill="#7BC6FF"></path>
  </symbol>

  <symbol fill="none" viewBox="0 0 54 54" id="webpack">
    <path d="M49.4817 41.3859L27.945 53.5781V44.0817L41.3438 36.7031L49.4817 41.3859ZM50.9583 40.0528V14.5758L43.0777 19.132V35.505L50.9541 40.0486L50.9583 40.0528ZM4.51828 41.3859L26.0339 53.5697V44.0817L12.6309 36.7031L4.51828 41.3859ZM3.04172 40.0528V14.5758L10.9223 19.132V35.505L3.04172 40.0528ZM3.96562 12.9262L26.055 0.421875V9.60188L11.9011 17.3855L11.7872 17.4487L3.96562 12.9262ZM50.0259 12.9262L27.945 0.421875V9.60188L42.0989 17.3813L42.2128 17.4445L50.0344 12.9262H50.0259Z" fill="#8ED6FB"></path>
    <path d="M26.055 41.9217L12.8123 34.6359V20.2163L26.055 27.8438V41.9217ZM27.945 41.9217L41.1877 34.6444V20.2163L27.945 27.8438V41.9217ZM13.7109 18.5625L27 11.2472L40.2891 18.5625L27 26.2238L13.7109 18.5625Z" fill="#1C78C0"></path>
  </symbol>

  <symbol fill="none" viewBox="0 0 54 54" id="bootstrap">
    <path d="M11.8006 6.28571C8.83352 6.28571 6.63794 8.88296 6.73625 11.6996C6.8307 14.4056 6.70802 17.9105 5.82584 20.7686C4.94103 23.635 3.44441 25.4508 1 25.684V28.316C3.44441 28.5492 4.94103 30.3649 5.82584 33.2316C6.70802 36.0897 6.8307 39.5942 6.73625 42.3004C6.63794 45.1166 8.83352 47.7143 11.801 47.7143H42.2033C45.1705 47.7143 47.3655 45.117 47.2672 42.3004C47.173 39.5944 47.2954 36.0897 48.1776 33.2316C49.063 30.3652 50.5556 28.549 53 28.316V25.684C50.5556 25.4508 49.063 23.635 48.1778 20.7686C47.2954 17.9109 47.173 14.4058 47.2672 11.6996C47.3655 8.88337 45.1705 6.28571 42.2033 6.28571H11.8002H11.8006ZM36.2544 31.7876C36.2544 35.6661 33.3619 38.0182 28.5616 38.0182H20.3899C20.1562 38.0181 19.9321 37.9252 19.7668 37.7599C19.6016 37.5946 19.5088 37.3705 19.5088 37.1367V16.8633C19.5087 16.7475 19.5315 16.6328 19.5758 16.5259C19.6201 16.4189 19.685 16.3217 19.7668 16.2398C19.8487 16.158 19.9458 16.093 20.0528 16.0487C20.1597 16.0044 20.2744 15.9816 20.3901 15.9816H28.5149C32.5175 15.9816 35.1443 18.1502 35.1443 21.4794C35.1443 23.8162 33.3771 25.9083 31.1259 26.2745V26.3966C34.1908 26.7328 36.2544 28.8556 36.2544 31.7876ZM27.6703 18.7759H23.0112V25.3579H26.9356C29.9691 25.3579 31.642 24.1362 31.642 21.9523C31.642 19.906 30.2033 18.7759 27.6703 18.7759ZM23.0112 27.9696V35.2231H27.842C31.0001 35.2231 32.6735 33.9556 32.6735 31.5735C32.6735 29.191 30.9536 27.9692 27.6388 27.9692H23.0112V27.9696Z" fill="#7E13F8"/>
  </symbol>

  <symbol fill="none" viewBox="0 0 54 54" id="nest">
    <path fill-rule="evenodd" clip-rule="evenodd" d="M31.1968 3.375C30.8725 3.37953 30.5511 3.43652 30.2451 3.54375C32.9704 5.33587 29.7557 7.93125 31.2576 10.125C31.1541 9.38712 31.2715 8.63512 31.5949 7.96389C31.9184 7.29265 32.4334 6.73227 33.075 6.35344C33.556 5.9535 33.8648 5.81006 33.7618 5.14856C33.5948 4.06519 32.1503 3.375 31.1968 3.375ZM35.0781 4.07363C34.7018 5.96869 34.2343 6.03788 32.8455 7.25794C32.3038 7.68498 31.9216 8.28186 31.7603 8.95251C31.5989 9.62316 31.668 10.3286 31.9562 10.9553C26.2187 8.72775 18.8646 7.38112 13.473 11.2354C11.5341 12.6208 10.3511 14.6104 7.95995 15.4221C6.4142 15.9519 4.89545 15.795 3.92682 17.3272C3.57257 17.7697 3.38751 18.3239 3.40483 18.8904C3.42215 19.4569 3.64071 19.9988 4.02132 20.4188C4.30989 20.7141 4.86507 20.9031 5.09457 21.2034C5.22789 21.3722 5.22451 21.5409 5.35107 21.7654C5.57474 22.2884 5.89799 22.763 6.30282 23.1626C6.55089 23.3668 7.40307 23.5659 7.5482 23.7836C7.73045 24.0553 7.25795 25.1336 7.65451 25.3024C7.92114 25.4256 8.70245 24.0469 8.77839 23.9254C8.62314 25.0104 8.41895 26.9359 9.63901 25.3328C10.2178 24.5717 10.2533 24.3202 11.2269 24.1515C11.85 24.0433 12.4798 23.9778 13.1119 23.9557C16.7226 23.8294 20.2443 25.0929 22.9512 27.4859C25.6581 29.8788 27.344 33.2189 27.6615 36.8179C27.4793 35.9741 26.3773 34.6241 25.3513 34.9447C24.9143 35.0798 24.7523 35.8341 24.4654 36.2711C24.1027 36.8253 23.6558 37.3195 23.1407 37.7359C23.2279 36.9178 23.1869 36.0911 23.0192 35.2856C22.7121 36.5479 22.0961 38.6421 20.5453 38.3029C20.0287 38.224 19.5447 38.0015 19.1484 37.6608C18.7522 37.32 18.4597 36.8747 18.3043 36.3757C18.1035 35.0933 19.4586 33.5897 17.28 33.4834C12.9094 33.2691 13.9202 39.6968 16.5004 41.3724C15.9074 41.438 15.329 41.5993 14.7876 41.85C16.4266 42.8019 18.2734 43.3388 20.1672 43.4141C22.0611 43.4893 23.9446 43.1007 25.654 42.2819C27.3634 41.4632 28.8468 40.2391 29.9752 38.7162C31.1036 37.1934 31.8427 35.4178 32.1283 33.5441C32.5039 35.2601 32.4952 37.0378 32.103 38.7501C31.8933 39.66 31.5796 40.5427 31.1681 41.3809C30.6103 42.513 29.8691 43.5451 28.9744 44.4352C28.4445 44.9601 27.4725 45.4883 27.1384 46.0232C29.1836 45.752 31.1821 45.2024 33.0784 44.3897C31.1154 47.0784 28.5012 49.2241 25.4813 50.625C28.7192 50.3959 31.8492 49.3645 34.589 47.6237C37.3288 45.8829 39.5922 43.4875 41.175 40.6536C40.6705 43.4879 39.5501 46.1769 37.8928 48.5308C40.1219 47.0385 42.0183 45.1015 43.4631 42.8413C44.9078 40.5811 45.8696 38.0466 46.2881 35.397C46.7037 37.3366 46.8226 39.328 46.6408 41.3032C48.4719 38.7589 49.7089 35.8362 50.2606 32.7504C50.8123 29.6646 50.6646 26.4943 49.8285 23.4731C49.189 21.1245 48.23 18.8749 46.9783 16.7872C46.495 15.9738 45.966 15.1884 45.3938 14.4349C45.1693 14.1429 43.9695 13.0747 43.9695 12.7474C43.9594 12.78 43.951 12.78 43.9442 12.7474C43.9442 18.2284 38.038 21.7468 33.0919 20.2787C34.9726 20.1328 36.7502 19.3609 38.1408 18.0863C39.5313 16.8117 40.4546 15.1078 40.7633 13.2469C41.0365 11.2945 40.6176 9.30812 39.5791 7.63245C38.5406 5.95679 36.9481 4.69766 35.0781 4.07363Z" fill="#EA2845"></path>
  </symbol>

  <symbol fill="none" viewBox="0 0 54 54" id="node">
    <path d="M27 50.625C26.3626 50.6253 25.7363 50.4576 25.1843 50.139L19.4063 46.7185C18.5439 46.2358 18.9641 46.0654 19.2493 45.9658C20.1664 45.6825 21.0445 45.2857 21.8633 44.7846C21.9318 44.7529 22.0073 44.7392 22.0826 44.7448C22.1579 44.7504 22.2305 44.7751 22.2936 44.8166L26.7334 47.4542C26.8161 47.4979 26.9082 47.5208 27.0017 47.5208C27.0952 47.5208 27.1873 47.4979 27.27 47.4542L44.5838 37.4608C44.6648 37.4123 44.7318 37.3435 44.7782 37.2613C44.8247 37.179 44.849 37.0862 44.8487 36.9917V17.0016C44.8488 16.9056 44.8241 16.8113 44.7771 16.7276C44.7301 16.644 44.6624 16.5739 44.5804 16.524L27.2666 6.53908C27.185 6.4931 27.0929 6.46894 26.9992 6.46894C26.9055 6.46894 26.8133 6.4931 26.7317 6.53908L9.42807 16.5274C9.34553 16.5762 9.277 16.6455 9.2291 16.7286C9.18121 16.8117 9.15558 16.9057 9.1547 17.0016V36.9833C9.15493 37.0775 9.18021 37.17 9.22795 37.2512C9.2757 37.3325 9.34418 37.3996 9.42638 37.4456L14.175 40.1861C16.7484 41.472 18.3246 39.9566 18.3246 38.4345V18.706C18.3246 18.5717 18.3779 18.4429 18.4728 18.348C18.5678 18.253 18.6966 18.1997 18.8308 18.1997H21.0246C21.1588 18.1997 21.2876 18.253 21.3825 18.348C21.4775 18.4429 21.5308 18.5717 21.5308 18.706V38.4362C21.5308 41.8703 19.6611 43.8362 16.4042 43.8362C14.9991 43.8607 13.6161 43.4849 12.4166 42.7528L7.86544 40.1423C7.31294 39.8205 6.85449 39.3595 6.53588 38.8051C6.21726 38.2508 6.04962 37.6226 6.04969 36.9833V17.0016C6.04805 16.3612 6.21498 15.7317 6.53371 15.1763C6.85244 14.6209 7.31173 14.1592 7.86544 13.8375L25.1809 3.84077C25.7386 3.53561 26.3642 3.37567 27 3.37567C27.6358 3.37567 28.2614 3.53561 28.8191 3.84077L46.1329 13.8375C46.6853 14.1586 47.1439 14.619 47.4628 15.1727C47.7817 15.7265 47.9498 16.3541 47.9503 16.9931V36.9833C47.9494 37.6226 47.7811 38.2506 47.4623 38.8048C47.1435 39.359 46.6851 39.8201 46.1329 40.1423L28.8191 50.139C28.266 50.4581 27.6386 50.6258 27 50.625Z" fill="#83CD29"></path>
    <path d="M23.7161 30.2957C23.7161 30.1614 23.7695 30.0327 23.8644 29.9377C23.9593 29.8428 24.0881 29.7895 24.2224 29.7895H26.4617C26.5813 29.7898 26.697 29.8326 26.7881 29.9101C26.8792 29.9877 26.94 30.095 26.9595 30.213C27.297 32.4928 28.3095 33.642 32.8877 33.642C36.5344 33.642 38.0886 32.8168 38.0886 30.8813C38.0886 29.7658 37.6481 28.9373 31.9798 28.3821C27.2413 27.913 24.3118 26.8633 24.3118 23.0766C24.3118 19.5835 27.2565 17.4994 32.1924 17.4994C37.7393 17.4994 40.4848 19.4248 40.8324 23.5558C40.8377 23.6248 40.8289 23.6941 40.8063 23.7595C40.7838 23.8249 40.7481 23.885 40.7015 23.9361C40.6548 23.9872 40.5982 24.0281 40.5351 24.0565C40.472 24.0848 40.4038 24.0999 40.3346 24.1009H38.0801C37.967 24.0993 37.8577 24.0599 37.7696 23.9889C37.6815 23.918 37.6198 23.8196 37.5941 23.7094C37.0558 21.3115 35.7379 20.5453 32.1941 20.5453C28.2116 20.5453 27.7493 21.9325 27.7493 22.972C27.7493 24.2308 28.296 24.5987 33.6724 25.3091C38.9931 26.0128 41.5209 27.0085 41.5209 30.748C41.5209 34.5212 38.3754 36.6812 32.8894 36.6812C25.3041 36.6913 23.7161 33.2134 23.7161 30.2957Z" fill="#83CD29"></path>
  </symbol>

  <symbol fill="none" viewBox="0 0 54 54" id="postgresql">
    <path d="M39.5757 38.8597C39.9068 36.1036 39.8077 35.6991 41.8605 36.1458L42.3815 36.1914C43.9602 36.2631 46.0253 35.9374 47.2386 35.3738C49.8504 34.1617 51.3987 32.1389 48.824 32.67C42.9498 33.882 42.5461 31.8929 42.5461 31.8929C48.7489 22.6897 51.3418 11.0067 49.1033 8.14683C42.9988 0.346779 32.4321 4.03523 32.2553 4.13058L32.1988 4.14112C31.0382 3.90023 29.7392 3.75637 28.28 3.73275C25.6217 3.68887 23.6047 4.42968 22.0746 5.58984C22.0746 5.58984 3.22396 -2.17646 4.10103 15.3567C4.2875 19.0865 9.44703 43.5793 15.6013 36.1813C17.8508 33.4762 20.0243 31.1888 20.0243 31.1888C21.1034 31.9056 22.3961 32.2717 23.7511 32.1401L23.8562 32.0507C23.8233 32.3865 23.8376 32.7151 23.8979 33.1041C22.313 34.8756 22.7787 35.1865 19.6092 35.8387C16.4021 36.4994 18.2862 37.676 19.5159 37.9835C21.0073 38.3565 24.4569 38.8846 26.7882 35.6219L26.6954 35.9939C27.3172 36.4918 27.2755 39.5702 27.3632 41.7694C27.4514 43.9691 27.5986 46.0215 28.0471 47.2319C28.4955 48.4418 29.0246 51.5586 33.1902 50.6659C36.6715 49.9217 39.3331 48.8481 39.5757 38.8597Z" fill="black"></path>
    <path d="M31.8339 52.8424C29.9915 52.8424 28.7917 52.1298 28.0631 51.4418C26.9633 50.4039 26.5271 49.067 26.2664 48.2684L26.1537 47.9351C25.6289 46.5185 25.4509 44.4787 25.3454 41.8521C25.3294 41.4577 25.3184 41.0514 25.3062 40.6207C25.2973 40.3055 25.2864 39.9102 25.2703 39.4968C24.6066 39.8133 23.9021 40.0359 23.177 40.1583C21.878 40.3802 20.4816 40.3085 19.0257 39.9444C17.9985 39.6875 16.9311 39.1551 16.3228 38.3328C14.5496 39.8858 12.8583 39.6753 11.937 39.3677C10.3115 38.8256 8.85686 37.3022 7.48956 34.7115C6.51545 32.8658 5.5734 30.4611 4.68915 27.5636C3.14931 22.518 2.17098 17.2037 2.08408 15.4588C1.8107 9.99761 3.28094 6.09189 6.45301 3.85131C11.4569 0.316841 19.0384 2.39542 21.8025 3.33915C23.6596 2.21992 25.8445 1.67528 28.3133 1.71451C29.6393 1.73603 30.9019 1.85247 32.0747 2.06172C33.2982 1.67697 35.7147 1.12473 38.4809 1.15933C43.5776 1.22008 47.801 3.20626 50.6938 6.90315C52.7584 9.54072 51.7375 15.0795 50.9456 18.1465C49.831 22.4606 47.8782 27.049 45.4794 31.0433C46.1308 31.0479 47.0745 30.9699 48.4161 30.6927C51.0629 30.1464 51.8371 31.5655 52.0472 32.2009C52.8888 34.7499 49.2303 36.6761 48.0891 37.206C46.6269 37.8848 44.2429 38.2982 42.2905 38.2088L42.2052 38.2033L41.6922 38.1582L41.6416 38.586L41.5927 39.004C41.4615 44.0661 40.7384 47.2719 39.2504 49.3902C37.6908 51.6109 35.5232 52.2332 33.6137 52.6424C32.9624 52.7816 32.3705 52.8424 31.8339 52.8424ZM27.9568 34.4187C29.1461 35.3704 29.2503 37.1613 29.3435 40.508C29.3553 40.9257 29.3663 41.321 29.3811 41.6901C29.4258 42.8081 29.5308 45.4258 29.9409 46.532C29.9987 46.6885 30.0506 46.8471 30.1054 47.0155C30.5623 48.4144 30.7914 49.116 32.767 48.6937C34.4254 48.338 35.278 48.0191 35.9455 47.069C36.9153 45.6878 37.4579 42.9093 37.5574 38.8108L39.5753 38.8598L37.5714 38.6193L37.6304 38.119C37.8224 36.4694 37.9608 35.278 39.0631 34.49C39.9478 33.858 40.9556 33.9192 41.7585 34.0639C40.8763 33.3973 40.6325 32.6156 40.5675 32.295L40.3992 31.466L40.8721 30.7644C43.5962 26.7228 45.8422 21.7557 47.0353 17.1362C48.2612 12.3896 47.8875 9.86893 47.5137 9.39222C42.5655 3.06958 33.985 5.68014 33.0889 5.97629L32.9375 6.05814L32.1781 6.19947L31.7891 6.11889C30.7167 5.89614 29.5254 5.77295 28.2483 5.75228C26.2419 5.71853 24.6232 6.19272 23.296 7.19973L22.375 7.89793L21.3064 7.45792C19.0232 6.52431 12.3171 4.64739 8.77839 7.15375C6.81414 8.54509 5.91934 11.2712 6.11847 15.2567C6.18428 16.5725 7.07823 21.5536 8.55311 26.3845C10.5912 33.0607 12.4432 35.2785 13.2165 35.5362C13.3515 35.5818 13.7017 35.3097 14.0501 34.8912C15.5031 33.1494 17.0076 31.4513 18.5617 29.7992L19.7303 28.5694L21.1431 29.5081C21.7127 29.8865 22.3408 30.1012 22.9859 30.1417L26.3554 27.2679L25.8673 32.2494C25.8563 32.3612 25.8508 32.5135 25.8947 32.7962L26.0415 33.7403L25.4045 34.4524L25.3311 34.5351L27.1823 35.3894L27.9568 34.4187Z" fill="black"></path>
    <path d="M48.824 32.67C42.9494 33.882 42.5457 31.8929 42.5457 31.8929C48.7485 22.6893 51.3413 11.0059 49.1037 8.14682C42.9992 0.347199 32.4316 4.03565 32.2553 4.13142L32.1983 4.14154C31.0378 3.90065 29.7388 3.75721 28.2787 3.73359C25.6205 3.69014 23.6043 4.43053 22.0742 5.59068C22.0742 5.59068 3.22313 -2.17519 4.09978 15.3575C4.28625 19.0877 9.44578 43.5805 15.6001 36.1825C17.8495 33.4775 20.0226 31.1901 20.0226 31.1901C21.1022 31.9068 22.3944 32.273 23.749 32.1414L23.8545 32.052C23.8216 32.3878 23.8368 32.7164 23.8967 33.1054C22.3113 34.8768 22.777 35.1877 19.6075 35.84C16.4004 36.5006 18.2845 37.6772 19.5147 37.9848C21.0056 38.3577 24.4557 38.8859 26.7865 35.6231L26.6933 35.9952C27.3147 36.493 27.7509 39.2318 27.678 41.7146C27.6046 44.1973 27.5556 45.9021 28.0454 47.2335C28.5348 48.565 29.0225 51.5603 33.1889 50.6676C36.6702 49.9217 38.4742 47.9883 38.7256 44.7635C38.9036 42.4706 39.3065 42.8098 39.3323 40.7599L39.6558 39.7896C40.0288 36.6816 39.7149 35.6792 41.8601 36.1454L42.3811 36.191C43.9598 36.2627 46.0257 35.937 47.2386 35.3734C49.85 34.1622 51.3987 32.1389 48.824 32.67Z" fill="#336791"></path>
    <path d="M32.0444 51.5982C28.5715 51.5982 27.4712 48.848 27.0211 47.7233C26.3621 46.0751 26.22 39.6786 26.3668 34.433C26.3689 34.3445 26.3886 34.2574 26.4246 34.1765C26.4606 34.0957 26.5123 34.0228 26.5766 33.962C26.6409 33.9012 26.7166 33.8538 26.7993 33.8224C26.8821 33.791 26.9702 33.7763 27.0586 33.7791C27.147 33.7815 27.234 33.8013 27.3147 33.8373C27.3954 33.8734 27.4682 33.925 27.5289 33.9892C27.5897 34.0535 27.6371 34.129 27.6687 34.2116C27.7002 34.2942 27.7151 34.3822 27.7125 34.4705C27.5434 40.5206 27.7834 46.0033 28.2711 47.2234C29.0322 49.1256 30.1864 50.7895 33.4496 50.0905C36.5475 49.426 37.7076 48.2515 38.2244 45.2558C38.621 42.957 39.4052 36.4171 39.5018 35.1266C39.5083 35.0384 39.5321 34.9523 39.5719 34.8733C39.6117 34.7944 39.6666 34.724 39.7337 34.6663C39.8007 34.6086 39.8784 34.5647 39.9624 34.5371C40.0464 34.5096 40.1351 34.4988 40.2233 34.5056C40.4012 34.519 40.5665 34.6026 40.6829 34.7378C40.7994 34.8731 40.8574 35.049 40.8442 35.227C40.7434 36.5706 39.963 43.0979 39.5512 45.4848C38.9412 49.0231 37.3638 50.6279 33.7319 51.4067C33.1147 51.5388 32.554 51.5978 32.0444 51.5982ZM13.2135 38.1653C12.91 38.1643 12.6086 38.1144 12.3209 38.0177C10.0651 37.265 7.91648 33.5913 5.93451 27.0974C4.42589 22.1543 3.46992 16.9948 3.38597 15.3178C3.13748 10.3465 4.41745 6.82928 7.19128 4.86461C12.6786 0.976613 21.9097 4.67899 22.2999 4.83846C22.4652 4.90598 22.5969 5.03641 22.6661 5.20105C22.7352 5.3657 22.7361 5.55106 22.6686 5.71638C22.6011 5.88169 22.4707 6.01341 22.306 6.08256C22.1414 6.15171 21.956 6.15262 21.7907 6.0851C21.7017 6.04882 12.8499 2.50253 7.96669 5.96486C5.59491 7.64646 4.50605 10.7709 4.73006 15.2508C4.80051 16.6636 5.69362 21.6991 7.22166 26.7042C8.991 32.5016 11.0046 36.1597 12.7465 36.7406C13.0199 36.8318 13.8518 37.1089 15.0411 35.6788C16.428 34.0132 17.8669 32.3915 19.3556 30.8163C19.4802 30.692 19.6485 30.6214 19.8244 30.6197C20.0003 30.6179 20.17 30.6851 20.297 30.8068C20.424 30.9286 20.4983 31.0952 20.5041 31.2711C20.5098 31.4469 20.4465 31.618 20.3276 31.7478C20.3074 31.7688 18.2828 33.8854 16.0764 36.5398C15.0314 37.7966 14.0299 38.1653 13.2135 38.1653ZM42.5039 32.4932C42.3819 32.493 42.2622 32.4597 42.1576 32.3968C42.053 32.3339 41.9676 32.2437 41.9103 32.1359C41.853 32.0282 41.8261 31.9069 41.8324 31.785C41.8387 31.6631 41.8781 31.5453 41.9462 31.444C48.2165 22.1395 50.4174 10.897 48.5325 8.4881C46.1599 5.4565 42.8098 3.87321 38.5746 3.78166C35.4388 3.71416 32.9463 4.51488 32.5388 4.65452L32.4363 4.69628C32.0266 4.82496 31.7123 4.60052 31.5938 4.33811C31.5262 4.18777 31.516 4.01789 31.565 3.86052C31.614 3.70314 31.719 3.56915 31.86 3.48382C31.8794 3.47243 31.941 3.44627 32.041 3.40957C32.7333 3.15602 35.2637 2.39664 38.3978 2.4325C43.084 2.48228 46.9551 4.28917 49.5918 7.65869C50.8393 9.25296 50.8423 12.9258 49.5998 17.736C48.3334 22.6403 45.9502 27.9108 43.062 32.1966C42.933 32.3894 42.7203 32.4932 42.5039 32.4932ZM42.8245 36.8006C41.7538 36.8006 40.794 36.6495 40.2195 36.3053C39.6288 35.9513 39.5162 35.4704 39.5014 35.2151C39.3403 32.3844 40.902 31.8916 41.6985 31.6668C41.5876 31.4988 41.4298 31.3014 41.2665 31.0976C40.8021 30.5171 40.1659 29.7223 39.6757 28.5335C39.5989 28.3479 39.3584 27.9163 39.08 27.4164C37.5701 24.7088 34.4284 19.0746 36.4466 16.1894C37.3807 14.8542 39.2407 14.3285 41.9812 14.6217C41.175 12.1656 37.3359 4.48239 28.2264 4.33305C25.4867 4.28749 23.2398 5.12997 21.5515 6.83477C17.7715 10.6523 17.9082 17.5597 17.9103 17.6289C17.9126 17.7172 17.8975 17.8052 17.8658 17.8877C17.8342 17.9702 17.7866 18.0457 17.7257 18.1099C17.6649 18.174 17.592 18.2255 17.5113 18.2615C17.4305 18.2974 17.3435 18.3171 17.2551 18.3195C17.1667 18.3218 17.0788 18.3067 16.9963 18.275C16.9137 18.2434 16.8382 18.1958 16.7741 18.1349C16.71 18.0741 16.6585 18.0012 16.6225 17.9205C16.5865 17.8397 16.5668 17.7527 16.5645 17.6643C16.5561 17.3576 16.4152 10.1089 20.5951 5.88724C22.5513 3.9116 25.1265 2.93622 28.2487 2.98727C34.0765 3.08303 37.8278 6.04586 39.9482 8.51425C42.2596 11.2045 43.3928 14.172 43.486 15.1626C43.5556 15.8992 43.027 16.0464 42.9203 16.0683L42.6773 16.0738C39.9878 15.6431 38.2624 15.9422 37.549 16.9615C36.0138 19.1556 38.9859 24.4852 40.2549 26.7612C40.5789 27.3417 40.8126 27.7615 40.9198 28.0205C41.3366 29.0313 41.8804 29.7105 42.317 30.2564C42.7013 30.7365 43.0342 31.1529 43.1532 31.6414C43.2084 31.7385 43.9927 32.8986 48.6464 31.938C49.8129 31.6976 50.5124 31.903 50.7262 32.5497C51.1469 33.8217 48.7869 35.3054 47.4803 35.9121C46.3096 36.4563 44.4412 36.8006 42.8245 36.8006ZM40.8434 35.1042C40.9911 35.2531 41.7298 35.51 43.2595 35.4442C44.6196 35.386 46.054 35.0903 46.9146 34.6908C48.0153 34.1794 48.7502 33.6078 49.1307 33.2176L48.9198 33.2564C45.9443 33.8706 43.8396 33.7888 42.6642 33.013C42.5853 32.9608 42.5092 32.9043 42.4364 32.8438C42.309 32.894 42.1913 32.9269 42.1073 32.9505C41.4408 33.1374 40.7514 33.3311 40.8434 35.1042ZM21.6219 38.8652C20.8828 38.8652 20.1049 38.7644 19.3105 38.5657C18.4874 38.3598 17.0999 37.7401 17.121 36.7221C17.145 35.5801 18.8059 35.2375 19.4311 35.1088C21.6899 34.6435 21.8371 34.457 22.5429 33.5606C22.7488 33.2994 23.0048 32.9741 23.3542 32.5843C23.8726 32.0038 24.4392 31.7098 25.0383 31.7098C25.4555 31.7098 25.7977 31.8511 26.0238 31.9452C26.7443 32.2439 27.3455 32.9661 27.5927 33.8297C27.8159 34.6089 27.7092 35.359 27.2932 35.9416C25.9276 37.854 23.9663 38.8652 21.6219 38.8652ZM18.5752 36.7799C18.7781 36.9368 19.1848 37.1465 19.6374 37.2596C20.3255 37.4317 20.9929 37.519 21.6224 37.519C23.5402 37.519 25.08 36.725 26.1984 35.159C26.4317 34.8325 26.3617 34.4178 26.2993 34.1997C26.1685 33.7428 25.8436 33.3273 25.5091 33.1885C25.3277 33.1134 25.1771 33.056 25.0387 33.056C24.9645 33.056 24.7383 33.056 24.3578 33.4817C24.0952 33.777 23.8428 34.0812 23.601 34.3938C22.7218 35.51 22.3189 35.8889 19.7032 36.4276C19.065 36.5584 18.7376 36.6917 18.5752 36.7799ZM23.7511 33.6749C23.5904 33.6746 23.4351 33.6169 23.3133 33.5121C23.1914 33.4074 23.1111 33.2625 23.0867 33.1037C23.07 32.9919 23.0587 32.8794 23.0529 32.7666C21.3384 32.7345 19.6843 31.9988 18.4283 30.6884C16.8404 29.0317 16.1177 26.7363 16.446 24.3911C16.8024 21.8442 16.6691 19.5961 16.5974 18.3882C16.5776 18.0524 16.5632 17.8098 16.5641 17.6419C16.5653 17.4289 16.5696 16.864 18.4579 15.9068C19.1295 15.5663 20.4761 14.9723 21.9472 14.82C24.3844 14.5682 25.9909 15.6536 26.4718 17.8769C27.7699 23.8794 26.5747 26.5342 25.7019 28.4732C25.5395 28.8343 25.3859 29.1752 25.2631 29.5055L25.1547 29.7966C24.6936 31.0331 24.2949 32.1013 24.4173 32.8991C24.4307 32.9864 24.4268 33.0756 24.4058 33.1614C24.3847 33.2473 24.347 33.3282 24.2947 33.3994C24.2424 33.4707 24.1765 33.531 24.1009 33.5768C24.0253 33.6226 23.9415 33.6531 23.8541 33.6664L23.7511 33.6749ZM17.9145 17.8284L17.9407 18.3089C18.0149 19.5636 18.1533 21.8982 17.7787 24.578C17.5082 26.5123 18.0989 28.4002 19.3999 29.7569C20.428 30.8293 21.781 31.4212 23.1715 31.4212H23.2002C23.3558 30.7652 23.6145 30.0725 23.8929 29.3262L24.0005 29.0368C24.1393 28.6638 24.3017 28.3027 24.4738 27.9205C25.3138 26.0541 26.3596 23.7309 25.1551 18.1617C24.9168 17.0585 24.3384 16.4202 23.3879 16.2097C21.4355 15.7785 18.5258 17.2471 17.9145 17.8284ZM21.9772 17.5428C21.9434 17.7807 22.413 18.4161 23.0255 18.5009C23.6368 18.5865 24.1599 18.0895 24.1933 17.8516C24.2266 17.6137 23.7575 17.3513 23.1449 17.266C22.5328 17.1808 22.0096 17.3049 21.9772 17.5428ZM23.166 18.735L22.9943 18.7232C22.6146 18.6705 22.2307 18.4313 21.9679 18.0828C21.8755 17.9605 21.7249 17.7234 21.7548 17.5116C21.7974 17.2011 22.1763 17.015 22.7673 17.015C22.8994 17.015 23.0369 17.0247 23.1753 17.0441C23.4984 17.0889 23.7984 17.1821 24.0199 17.3057C24.4038 17.52 24.432 17.7592 24.4147 17.8828C24.3675 18.2258 23.822 18.735 23.166 18.735ZM22.2003 17.5825C22.2193 17.7293 22.583 18.2136 23.0563 18.279L23.1664 18.2866C23.6035 18.2866 23.93 17.9427 23.9684 17.8301C23.9279 17.7533 23.6469 17.5626 23.1141 17.4884C22.9994 17.4719 22.8836 17.4636 22.7677 17.4635C22.4252 17.4635 22.2434 17.5407 22.2003 17.5825ZM40.5962 17.0572C40.6295 17.2952 40.1604 17.9305 39.5483 18.0157C38.9365 18.1009 38.413 17.6044 38.3792 17.3665C38.3472 17.1285 38.8163 16.8657 39.428 16.7809C40.0397 16.6953 40.5624 16.8197 40.5962 17.0572ZM39.4069 18.1372C38.818 18.1372 38.3096 17.6791 38.2679 17.3816C38.2193 17.0247 38.807 16.7535 39.412 16.6695C39.5453 16.651 39.6773 16.6417 39.8043 16.6417C40.3266 16.6417 40.6725 16.7948 40.7071 17.042C40.7295 17.2019 40.6067 17.4487 40.3954 17.6715C40.2557 17.8179 39.9625 18.0714 39.563 18.1267L39.4069 18.1372ZM39.8047 16.8661C39.6883 16.8661 39.5668 16.875 39.4436 16.8918C38.8357 16.9766 38.4729 17.2205 38.4906 17.3513C38.5109 17.4951 38.899 17.9132 39.4073 17.9132L39.5326 17.9043C39.8647 17.8584 40.114 17.6415 40.233 17.5166C40.4198 17.3205 40.4941 17.1357 40.4852 17.0728C40.4734 16.9893 40.249 16.8661 39.8047 16.8661ZM41.4775 30.7218C41.3555 30.7218 41.2358 30.6887 41.1313 30.626C41.0267 30.5633 40.9411 30.4733 40.8837 30.3657C40.8263 30.2581 40.7993 30.1369 40.8055 30.0151C40.8117 29.8933 40.8509 29.7755 40.9189 29.6742C42.3525 27.5332 42.09 25.35 41.8365 23.2385C41.7281 22.3391 41.6167 21.4089 41.6454 20.5162C41.6749 19.5978 41.7918 18.8401 41.9044 18.1073C42.0382 17.239 42.1647 16.4189 42.1124 15.4452C42.1076 15.357 42.1203 15.2687 42.1497 15.1853C42.179 15.1019 42.2246 15.0252 42.2836 14.9594C42.3426 14.8936 42.414 14.8401 42.4938 14.802C42.5735 14.7638 42.6599 14.7417 42.7482 14.7369C42.8364 14.7321 42.9248 14.7448 43.0081 14.7742C43.0915 14.8036 43.1682 14.8491 43.234 14.9081C43.2998 14.9671 43.3533 15.0385 43.3915 15.1183C43.4296 15.198 43.4517 15.2844 43.4565 15.3727C43.5164 16.4856 43.3734 17.4137 43.235 18.3119C43.1283 19.005 43.0177 19.7218 42.9912 20.5592C42.9654 21.3498 43.0663 22.1893 43.173 23.0778C43.443 25.323 43.7489 27.8678 42.0377 30.4231C41.9761 30.5151 41.8927 30.5905 41.795 30.6426C41.6973 30.6947 41.5882 30.7219 41.4775 30.7218Z" fill="white"></path>
  </symbol>

  <symbol fill="none" viewBox="0 0 54 54" id="graphql">
    <path d="M8.06793 38.3839L27.3915 4.91736L29.1262 5.91805L9.80437 39.3862L8.06793 38.3839Z" fill="#E10098"/>
    <path d="M7.66968 35.7109H46.3168V37.7139H7.66968V35.7109Z" fill="#E10098"/>
    <path d="M8.43579 36.8348L9.43648 35.1L28.7668 46.2611L27.7644 47.9959L8.43579 36.8348ZM25.2281 7.74564L26.2305 6.01257L45.5608 17.1737L44.5584 18.9084L25.2281 7.74564Z" fill="#E10098"/>
    <path d="M8.44086 17.1686L27.7695 6.00751L28.7719 7.74226L9.44154 18.9034L8.44086 17.1686Z" fill="#E10098"/>
    <path d="M24.8788 5.91973L26.6135 4.91736L45.9354 38.3855L44.2024 39.3862L24.8788 5.91973ZM9.20361 15.8389H11.2067V38.1611H9.20361V15.8389Z" fill="#E10098"/>
    <path d="M42.795 15.8389H44.798V38.1611H42.795V15.8389Z" fill="#E10098"/>
    <path d="M26.5511 45.6334L43.362 35.9269L44.2378 37.4423L27.4253 47.1488L26.5511 45.6334Z" fill="#E10098"/>
    <path d="M47.4525 38.8125C47.0361 39.536 46.4144 40.1198 45.6662 40.4898C44.9179 40.8599 44.0766 40.9996 43.2489 40.8913C42.4211 40.7831 41.6441 40.4317 41.0162 39.8816C40.3883 39.3315 39.9376 38.6075 39.7213 37.8012C39.5051 36.995 39.5328 36.1426 39.8012 35.3521C40.0695 34.5617 40.5663 33.8685 41.2287 33.3605C41.8912 32.8525 42.6894 32.5525 43.5225 32.4983C44.3555 32.4442 45.1859 32.6384 45.9085 33.0564C46.8756 33.6159 47.5813 34.5361 47.8707 35.6152C48.1602 36.6943 48.0098 37.8441 47.4525 38.8125ZM13.8375 19.4062C13.4211 20.1298 12.7994 20.7135 12.0512 21.0836C11.3029 21.4536 10.4616 21.5933 9.63388 21.4851C8.80614 21.3768 8.02913 21.0254 7.40119 20.4753C6.77325 19.9253 6.32262 19.2013 6.10634 18.395C5.89005 17.5887 5.91783 16.7364 6.18617 15.9459C6.4545 15.1554 6.95132 14.4623 7.61374 13.9543C8.27617 13.4463 9.07442 13.1462 9.90745 13.0921C10.7405 13.038 11.5708 13.2322 12.2935 13.6502C13.2606 14.2096 13.9663 15.1298 14.2557 16.2089C14.5452 17.288 14.3948 18.4379 13.8375 19.4062ZM6.54751 38.8125C6.12952 38.0899 5.93529 37.2595 5.98943 36.4265C6.04356 35.5935 6.34362 34.7952 6.85163 34.1328C7.35963 33.4704 8.05274 32.9735 8.84323 32.7052C9.63372 32.4369 10.486 32.4091 11.2923 32.6254C12.0986 32.8417 12.8226 33.2923 13.3727 33.9202C13.9227 34.5482 14.2741 35.3252 14.3824 36.1529C14.4907 36.9807 14.351 37.8219 13.9809 38.5702C13.6108 39.3185 13.0271 39.9402 12.3036 40.3566C11.3352 40.9138 10.1854 41.0642 9.10626 40.7748C8.02716 40.4853 7.10695 39.7796 6.54751 38.8125ZM40.1625 19.4062C39.7445 18.6836 39.5503 17.8533 39.6044 17.0202C39.6586 16.1872 39.9586 15.389 40.4666 14.7265C40.9746 14.0641 41.6677 13.5673 42.4582 13.299C43.2487 13.0306 44.1011 13.0028 44.9073 13.2191C45.7136 13.4354 46.4376 13.886 46.9877 14.514C47.5377 15.1419 47.8891 15.9189 47.9974 16.7467C48.1057 17.5744 47.966 18.4157 47.5959 19.1639C47.2258 19.9122 46.6421 20.5339 45.9186 20.9503C44.9502 21.5076 43.8004 21.658 42.7213 21.3685C41.6422 21.079 40.7219 20.3733 40.1625 19.4062ZM27 50.625C26.1656 50.625 25.35 50.3776 24.6562 49.914C23.9624 49.4504 23.4217 48.7916 23.1024 48.0207C22.7831 47.2498 22.6995 46.4016 22.8623 45.5832C23.0251 44.7648 23.4269 44.0131 24.0169 43.4231C24.6069 42.8331 25.3586 42.4313 26.177 42.2686C26.9953 42.1058 27.8436 42.1893 28.6145 42.5086C29.3853 42.8279 30.0442 43.3687 30.5078 44.0624C30.9713 44.7562 31.2188 45.5719 31.2188 46.4062C31.2203 46.9607 31.1123 47.51 30.9008 48.0225C30.6893 48.5351 30.3787 49.0008 29.9866 49.3928C29.5945 49.7849 29.1288 50.0956 28.6163 50.307C28.1038 50.5185 27.5545 50.6266 27 50.625ZM27 11.7973C26.1656 11.7973 25.35 11.5499 24.6562 11.0863C23.9624 10.6228 23.4217 9.96388 23.1024 9.193C22.7831 8.42212 22.6995 7.57387 22.8623 6.75552C23.0251 5.93716 23.4269 5.18545 24.0169 4.59545C24.6069 4.00544 25.3586 3.60365 26.177 3.44087C26.9953 3.27808 27.8436 3.36163 28.6145 3.68094C29.3853 4.00024 30.0442 4.54097 30.5078 5.23474C30.9713 5.92851 31.2188 6.74416 31.2188 7.57855C31.2203 8.13301 31.1123 8.6823 30.9008 9.19484C30.6893 9.70739 30.3787 10.1731 29.9866 10.5651C29.5945 10.9572 29.1288 11.2679 28.6163 11.4793C28.1038 11.6908 27.5545 11.7989 27 11.7973Z" fill="#E10098"/>
  </symbol>

  <symbol fill="none" viewBox="0 0 50 50" id="left">
    <path d="M32.9082 38.9667C33.3485 39.407 33.5959 40.0042 33.5959 40.6269C33.5959 41.2495 33.3485 41.8467 32.9082 42.287C32.4679 42.7273 31.8707 42.9747 31.248 42.9747C30.6254 42.9747 30.0282 42.7273 29.5879 42.287L13.9629 26.662C13.7444 26.4443 13.571 26.1855 13.4527 25.9007C13.3344 25.6158 13.2735 25.3103 13.2735 25.0019C13.2735 24.6934 13.3344 24.388 13.4527 24.1031C13.571 23.8182 13.7444 23.5595 13.9629 23.3417L29.5879 7.71671C30.0282 7.27641 30.6254 7.02905 31.248 7.02905C31.8707 7.02905 32.4679 7.27641 32.9082 7.71671C33.3485 8.15701 33.5959 8.75419 33.5959 9.37687C33.5959 9.99955 33.3485 10.5967 32.9082 11.037L18.9453 24.9999L32.9082 38.9667Z" fill="#86B91A"/>
  </symbol>

  <symbol fill="none" viewBox="0 0 50 50" id="right">
    <path d="M17.0918 38.9667C16.6515 39.407 16.4041 40.0042 16.4041 40.6269C16.4041 41.2495 16.6515 41.8467 17.0918 42.287C17.5321 42.7273 18.1293 42.9747 18.7519 42.9747C19.3746 42.9747 19.9718 42.7273 20.4121 42.287L36.0371 26.662C36.2556 26.4443 36.429 26.1855 36.5473 25.9007C36.6655 25.6158 36.7264 25.3103 36.7264 25.0019C36.7264 24.6934 36.6655 24.388 36.5473 24.1031C36.429 23.8182 36.2556 23.5595 36.0371 23.3417L20.4121 7.71671C19.9718 7.27641 19.3746 7.02905 18.7519 7.02905C18.1293 7.02905 17.5321 7.27641 17.0918 7.71671C16.6515 8.15701 16.4041 8.75419 16.4041 9.37687C16.4041 9.99955 16.6515 10.5967 17.0918 11.037L31.0547 24.9999L17.0918 38.9667Z" fill="#86B91A"/>
  </symbol>

  <symbol fill="none" viewBox="0 0 24 24" id="demo">
    <path d="M4 20C3.45 20 2.979 19.804 2.587 19.412C2.195 19.02 1.99934 18.5493 2 18V6C2 5.45 2.196 4.979 2.588 4.587C2.98 4.195 3.45067 3.99934 4 4H20C20.55 4 21.021 4.196 21.413 4.588C21.805 4.98 22.0007 5.45067 22 6V18C22 18.55 21.804 19.021 21.412 19.413C21.02 19.805 20.5493 20.0007 20 20H4ZM4 18H14.5V14.5H4V18ZM16.5 18H20V9H16.5V18ZM4 12.5H14.5V9H4V12.5Z" fill="white"/>
  </symbol>

  <symbol fill="none" viewBox="0 0 18 18" id="code">
    <g clip-path="url(#clip0_12_18)">
      <path d="M9 0C4.0275 0 0 4.0275 0 9C0 12.9825 2.57625 16.3463 6.15375 17.5387C6.60375 17.6175 6.7725 17.3475 6.7725 17.1112C6.7725 16.8975 6.76125 16.1888 6.76125 15.435C4.5 15.8513 3.915 14.8837 3.735 14.3775C3.63375 14.1187 3.195 13.32 2.8125 13.1062C2.4975 12.9375 2.0475 12.5212 2.80125 12.51C3.51 12.4987 4.01625 13.1625 4.185 13.4325C4.995 14.7937 6.28875 14.4113 6.80625 14.175C6.885 13.59 7.12125 13.1962 7.38 12.9712C5.3775 12.7463 3.285 11.97 3.285 8.5275C3.285 7.54875 3.63375 6.73875 4.2075 6.10875C4.1175 5.88375 3.8025 4.96125 4.2975 3.72375C4.2975 3.72375 5.05125 3.4875 6.7725 4.64625C7.4925 4.44375 8.2575 4.3425 9.0225 4.3425C9.7875 4.3425 10.5525 4.44375 11.2725 4.64625C12.9938 3.47625 13.7475 3.72375 13.7475 3.72375C14.2425 4.96125 13.9275 5.88375 13.8375 6.10875C14.4113 6.73875 14.76 7.5375 14.76 8.5275C14.76 11.9812 12.6562 12.7463 10.6538 12.9712C10.98 13.2525 11.2613 13.7925 11.2613 14.6363C11.2613 15.84 11.25 16.8075 11.25 17.1112C11.25 17.3475 11.4187 17.6287 11.8688 17.5387C13.6555 16.9357 15.2081 15.7875 16.308 14.2557C17.4079 12.7239 17.9997 10.8858 18 9C18 4.0275 13.9725 0 9 0Z" fill="#86B91A"/>
    </g>
    <defs>
      <clipPath id="clip0_12_18">
        <rect width="18" height="18" fill="white"/>
      </clipPath>
    </defs>
  </symbol>

  <symbol fill="none" viewBox="0 0 46 47" id="github">
    <g clip-path="url(#clip0_84_445)">
      <path d="M23 0.287598C16.9 0.287598 11.0499 2.7108 6.73654 7.02414C2.42321 11.3375 0 17.1876 0 23.2876C0 29.3876 2.42321 35.2377 6.73654 39.5511C11.0499 43.8644 16.9 46.2876 23 46.2876C29.1 46.2876 34.9501 43.8644 39.2635 39.5511C43.5768 35.2377 46 29.3876 46 23.2876C46 17.1876 43.5768 11.3375 39.2635 7.02414C34.9501 2.7108 29.1 0.287598 23 0.287598ZM29.0624 42.0383H28.8842C28.7503 42.0459 28.6163 42.026 28.4903 41.9799C28.3644 41.9337 28.2493 41.8623 28.152 41.77C28.0621 41.675 27.992 41.563 27.946 41.4406C27.8999 41.3181 27.8787 41.1877 27.8837 41.057V38.3622C27.8952 37.4671 27.9028 36.5605 27.9028 35.6482C27.8997 34.981 27.8023 34.3177 27.6134 33.6778C27.4345 33.031 27.074 32.449 26.5746 32.0008C27.9105 31.8718 29.2237 31.5683 30.4807 31.098C31.5411 30.6948 32.5002 30.0641 33.2906 29.2503C34.0707 28.4319 34.6514 27.4429 34.9868 26.3638C35.3948 25.0424 35.589 23.6641 35.5618 22.2813C35.5693 21.3159 35.4004 20.3572 35.0635 19.4523C34.7211 18.5404 34.2035 17.7043 33.5398 16.9913C33.683 16.6318 33.7871 16.2578 33.8502 15.8758C33.9135 15.4925 33.9461 15.1053 33.9461 14.7182C33.9461 14.2198 33.8886 13.7215 33.7736 13.2366C33.6691 12.7392 33.5275 12.2504 33.35 11.7742C33.2822 11.7477 33.21 11.7347 33.1372 11.7358H32.9264C32.4856 11.7397 32.0524 11.8125 31.6346 11.9486C31.1743 12.0829 30.7241 12.2495 30.2872 12.4469C29.8526 12.6417 29.4297 12.8612 29.0202 13.1043C28.6082 13.3478 28.244 13.5816 27.922 13.7982C24.6976 12.8995 21.2889 12.8995 18.0646 13.7982C17.705 13.5578 17.3394 13.3264 16.9682 13.1043C16.553 12.8592 16.1229 12.6402 15.6802 12.4488C15.2445 12.2448 14.7925 12.0775 14.329 11.9486C13.9194 11.8133 13.4915 11.7415 13.0602 11.7358H12.8493C12.7772 11.7348 12.7056 11.7478 12.6385 11.7742C12.4585 12.2511 12.3112 12.7397 12.1977 13.2366C12.0942 13.7234 12.0443 14.2198 12.0424 14.7182C12.0424 15.1053 12.075 15.4925 12.1402 15.8758C12.2034 16.2573 12.305 16.631 12.4468 16.9913C11.7848 17.7053 11.2691 18.542 10.9288 19.4543C10.5901 20.3587 10.4193 21.3175 10.4248 22.2833C10.3979 23.6586 10.5868 25.0297 10.9844 26.3466C11.3313 27.4257 11.9102 28.4166 12.6787 29.2523C13.4742 30.0611 14.4325 30.6898 15.4886 31.0999C16.7402 31.5791 18.0512 31.8858 19.3852 32.0123C19.0127 32.3498 18.7172 32.7636 18.5188 33.2255C18.3301 33.6823 18.2012 34.1616 18.1355 34.6515C17.4322 34.9882 16.6631 35.165 15.8834 35.169C15.1593 35.198 14.4447 34.9967 13.8422 34.594C13.2642 34.1657 12.7747 33.6293 12.4008 33.0147C12.2335 32.7565 12.0464 32.5117 11.8412 32.2825C11.6247 32.0415 11.3859 31.8214 11.1282 31.6251C10.8741 31.4352 10.5956 31.2805 10.3002 31.1651C10.0095 31.0377 9.69562 30.9717 9.37825 30.9715C9.30158 30.9734 9.22492 30.9811 9.14825 30.9907C9.04355 30.9903 8.93922 31.0032 8.83775 31.029C8.74856 31.0524 8.66421 31.0913 8.58858 31.144C8.5542 31.163 8.52545 31.1907 8.50525 31.2243C8.48505 31.258 8.47412 31.2964 8.47358 31.3357C8.48163 31.4279 8.50984 31.5173 8.5562 31.5974C8.60257 31.6776 8.66597 31.7466 8.74192 31.7995C8.92017 31.9413 9.06775 32.0506 9.18658 32.1273L9.24408 32.1675C9.499 32.3649 9.74433 32.5777 9.97625 32.8058C10.1909 32.9936 10.3845 33.2063 10.5513 33.4383C10.7238 33.6663 10.8732 33.9098 10.994 34.1685C11.1339 34.4253 11.2815 34.7205 11.4367 35.0559C11.7971 35.9644 12.4372 36.733 13.2652 37.2505C14.1335 37.7163 15.1072 37.9482 16.0943 37.9233C16.4278 37.9233 16.7632 37.9041 17.0947 37.8658C17.4244 37.8121 17.7522 37.7565 18.0818 37.6913V41.0321C18.0878 41.1668 18.0653 41.3012 18.0157 41.4266C17.9662 41.552 17.8907 41.6656 17.7943 41.7598C17.6979 41.8541 17.5827 41.9269 17.4562 41.9736C17.3297 42.0203 17.1948 42.0397 17.0602 42.0307H16.9414C12.4718 40.5868 8.66461 37.5945 6.20534 33.5928C3.74607 29.591 2.79635 24.8427 3.5272 20.2029C4.25806 15.563 6.62146 11.3366 10.1918 8.28462C13.7622 5.23263 18.3049 3.55565 23.0019 3.55565C27.6989 3.55565 32.2417 5.23263 35.812 8.28462C39.3824 11.3366 41.7458 15.563 42.4766 20.2029C43.2075 24.8427 42.2578 29.591 39.7985 33.5928C37.3392 37.5945 33.532 40.5868 29.0624 42.0307V42.0383Z" fill="#86B91A"/>
    </g>
    <defs>
      <clipPath id="clip0_84_445">
        <rect width="46" height="46" fill="white" transform="translate(0 0.287598)"/>
      </clipPath>
    </defs>
  </symbol>

  <symbol fill="none" viewBox="0 0 46 47" id="telegram">
    <path d="M37.4756 6.03176C37.0141 6.06533 36.5612 6.17359 36.1344 6.35232H36.1286C35.719 6.51476 33.7711 7.33413 30.8099 8.57613L20.1983 13.0453C12.5838 16.2509 5.09877 19.4077 5.09877 19.4077L5.18789 19.3732C5.18789 19.3732 4.67183 19.5428 4.13277 19.9123C3.79974 20.1242 3.51317 20.4015 3.29039 20.7273C3.02589 21.1154 2.81314 21.7091 2.89221 22.3229C3.02158 23.3608 3.69433 23.9833 4.17733 24.3268C4.66608 24.6747 5.13183 24.8371 5.13183 24.8371H5.14333L12.1626 27.2018C12.4775 28.2124 14.3016 34.2096 14.7401 35.5911C14.9988 36.4162 15.2504 36.9323 15.5652 37.3261C15.7176 37.5274 15.8958 37.6956 16.11 37.8307C16.2214 37.8955 16.3401 37.9466 16.4636 37.9831L16.3918 37.9658C16.4133 37.9716 16.4306 37.9888 16.4464 37.9946C16.5039 38.0104 16.5427 38.0161 16.616 38.0276C17.7272 38.364 18.6199 37.674 18.6199 37.674L18.6702 37.6338L22.8145 33.8603L29.7605 39.1891L29.9186 39.2567C31.3662 39.8921 32.8325 39.5384 33.6073 38.9146C34.3878 38.2864 34.6911 37.4828 34.6911 37.4828L34.7415 37.3534L40.1091 9.85551C40.2615 9.17701 40.3003 8.54163 40.1321 7.92494C39.9586 7.30082 39.5582 6.76403 39.0094 6.41988C38.5486 6.13973 38.0142 6.00451 37.4756 6.03176ZM37.3304 8.97863C37.3246 9.06919 37.3419 9.05913 37.3016 9.23307V9.24888L31.9843 36.4608C31.9613 36.4996 31.9225 36.5844 31.8161 36.6692C31.704 36.7583 31.6149 36.8144 31.1477 36.6289L22.6521 30.1156L17.5202 34.7933L18.5983 27.9076L32.4788 14.9701C33.051 14.4383 32.8598 14.3261 32.8598 14.3261C32.9 13.6735 31.9958 14.1349 31.9958 14.1349L14.4928 24.978L14.4871 24.9493L6.09783 22.1246V22.1188L6.07627 22.1145C6.09098 22.1096 6.10538 22.1039 6.11939 22.0973L6.16539 22.0743L6.20996 22.0584C6.20996 22.0584 13.7008 18.9017 21.3152 15.6961C25.1275 14.0904 28.9685 12.4732 31.9225 11.2254C33.6745 10.488 35.4282 9.75488 37.1838 9.02607C37.3016 8.98007 37.2456 8.97863 37.3304 8.97863Z" fill="#86B91A"/>
  </symbol>

  <symbol fill="none" viewBox="0 0 46 47" id="email">
    <path d="M9.34375 7.4751C7.62813 7.4751 5.98278 8.15662 4.76965 9.36975C3.55653 10.5829 2.875 12.2282 2.875 13.9438V32.6313C2.875 34.347 3.55653 35.9923 4.76965 37.2054C5.98278 38.4186 7.62813 39.1001 9.34375 39.1001H36.6562C38.3719 39.1001 40.0172 38.4186 41.2303 37.2054C42.4435 35.9923 43.125 34.347 43.125 32.6313V13.9438C43.125 12.2282 42.4435 10.5829 41.2303 9.36975C40.0172 8.15662 38.3719 7.4751 36.6562 7.4751H9.34375ZM40.25 15.2419L23 24.5296L5.75 15.2419V13.9438C5.75 12.9907 6.12863 12.0766 6.80259 11.4027C7.47654 10.7287 8.39063 10.3501 9.34375 10.3501H36.6562C37.6094 10.3501 38.5235 10.7287 39.1974 11.4027C39.8714 12.0766 40.25 12.9907 40.25 13.9438V15.2419ZM5.75 18.5065L22.3186 27.429C22.528 27.5418 22.7622 27.6008 23 27.6008C23.2378 27.6008 23.472 27.5418 23.6814 27.429L40.25 18.5065V32.6313C40.25 33.5845 39.8714 34.4986 39.1974 35.1725C38.5235 35.8465 37.6094 36.2251 36.6562 36.2251H9.34375C8.39063 36.2251 7.47654 35.8465 6.80259 35.1725C6.12863 34.4986 5.75 33.5845 5.75 32.6313V18.5065Z" fill="#86B91A"/>
  </symbol>

  <symbol fill="none" viewBox="0 0 24 24" id="send">
    <path d="M3.4 20.3999L20.85 12.9199C21.0304 12.8431 21.1842 12.7149 21.2923 12.5513C21.4004 12.3877 21.4581 12.196 21.4581 11.9999C21.4581 11.8038 21.4004 11.6121 21.2923 11.4485C21.1842 11.2849 21.0304 11.1567 20.85 11.0799L3.4 3.5999C3.2489 3.534 3.08377 3.50675 2.91951 3.52061C2.75525 3.53447 2.59702 3.589 2.4591 3.6793C2.32118 3.76959 2.20791 3.8928 2.1295 4.0378C2.0511 4.18281 2.01003 4.34506 2.01 4.5099L2 9.1199C2 9.6199 2.37 10.0499 2.87 10.1099L17 11.9999L2.87 13.8799C2.37 13.9499 2 14.3799 2 14.8799L2.01 19.4899C2.01 20.1999 2.74 20.6899 3.4 20.3999Z" fill="#86B91A"/>
  </symbol>

  <symbol fill="none" viewBox="0 0 24 24" id="lightbulb">
    <path d="M9.00006 18H15.0001M10.0001 21H14.0001M9.00006 15C9.00106 13 8.50106 12.5 7.50006 11.5C6.50006 10.5 6.02406 9.487 6.00006 8C5.95306 4.95 8.00006 3 12.0001 3C16.0011 3 18.0491 4.95 18.0001 8C17.9771 9.487 17.5001 10.5 16.5001 11.5C15.5011 12.5 15.0011 13 15.0001 15" stroke="white" stroke-width="1.5" stroke-linecap="round" stroke-linejoin="round"/>
  </symbol>

  <symbol fill="none" viewBox="0 0 24 24" id="lightbulb-active">
    <path d="M12 3C8 3 5.952 4.95 6 8C6.023 9.487 6.5 10.5 7.5 11.5C8.5 12.5 9 13 9 15H15C15 13 15.5 12.5 16.5 11.5C17.5 10.5 17.977 9.487 18 8C18.048 4.95 16 3 12 3Z" fill="white"/>
    <path d="M21 2L20 3M3 2L4 3M21 16L20 15M3 16L4 15M9 18H15M10 21H14M12 3C8 3 5.952 4.95 6 8C6.023 9.487 6.5 10.5 7.5 11.5C8.5 12.5 9 13 9 15H15C15 13 15.5 12.5 16.5 11.5C17.5 10.5 17.977 9.487 18 8C18.048 4.95 16 3 12 3Z" stroke="white" stroke-width="1.5" stroke-linecap="round" stroke-linejoin="round"/>
  </symbol>
</svg>